Bungee_Rotated-Regular_fpo.ufo
<glyph name="exclam" format="1">
  <advance width="830"/>
  <unicode hex="0021"/>
  <outline>
    <contour>
      <point x="775" y="452" type="line" smooth="yes"/>
      <point x="775" y="477"/>
      <point x="764" y="488"/>
      <point x="739" y="488" type="curve" smooth="yes"/>
      <point x="608" y="488" type="line" smooth="yes"/>
      <point x="582" y="488"/>
      <point x="572" y="477"/>
      <point x="572" y="452" type="curve" smooth="yes"/>
      <point x="572" y="268" type="line" smooth="yes"/>
      <point x="572" y="243"/>
      <point x="582" y="232"/>
      <point x="608" y="232" type="curve"/>
      <point x="739" y="232" type="line" smooth="yes"/>
      <point x="764" y="232"/>
      <point x="775" y="243"/>
      <point x="775" y="268" type="curve" smooth="yes"/>
    </contour>
    <contour>
      <point x="513" y="437" type="line" smooth="yes"/>
      <point x="513" y="462"/>
      <point x="502" y="474"/>
      <point x="477" y="475" type="curve" smooth="yes"/>
      <point x="91" y="489" type="line" smooth="yes"/>
      <point x="66" y="490"/>
      <point x="55" y="480"/>
      <point x="55" y="455" type="curve" smooth="yes"/>
      <point x="55" y="264" type="line" smooth="yes"/>
      <point x="55" y="239"/>
      <point x="66" y="229"/>
      <point x="91" y="230" type="curve" smooth="yes"/>
      <point x="477" y="245" type="line" smooth="yes"/>
      <point x="502" y="246"/>
      <point x="513" y="257"/>
      <point x="513" y="282" type="curve" smooth="yes"/>
    </contour>
  </outline>
</glyph>
<glyph name="quotedbl" format="1">
  <advance width="535"/>
  <unicode hex="0022"/>
  <outline>
    <contour>
      <point x="455" y="277" type="line" smooth="yes"/>
      <point x="455" y="312"/>
      <point x="449" y="317"/>
      <point x="414" y="319" type="curve"/>
      <point x="121" y="327" type="line" smooth="yes"/>
      <point x="86" y="328"/>
      <point x="80" y="322"/>
      <point x="80" y="288" type="curve" smooth="yes"/>
      <point x="80" y="123" type="line" smooth="yes"/>
      <point x="80" y="88"/>
      <point x="86" y="82"/>
      <point x="121" y="83" type="curve" smooth="yes"/>
      <point x="414" y="91" type="line" smooth="yes"/>
      <point x="449" y="92"/>
      <point x="455" y="98"/>
      <point x="455" y="133" type="curve" smooth="yes"/>
    </contour>
    <contour>
      <point x="455" y="587" type="line" smooth="yes"/>
      <point x="455" y="622"/>
      <point x="449" y="627"/>
      <point x="414" y="629" type="curve"/>
      <point x="121" y="637" type="line" smooth="yes"/>
      <point x="86" y="638"/>
      <point x="80" y="632"/>
      <point x="80" y="598" type="curve" smooth="yes"/>
      <point x="80" y="433" type="line" smooth="yes"/>
      <point x="80" y="398"/>
      <point x="86" y="392"/>
      <point x="121" y="393" type="curve" smooth="yes"/>
      <point x="414" y="401" type="line" smooth="yes"/>
      <point x="449" y="402"/>
      <point x="455" y="408"/>
      <point x="455" y="443" type="curve" smooth="yes"/>
    </contour>
  </outline>
</glyph>
<glyph name="dollar" format="1">
  <advance width="1010"/>
  <unicode hex="0024"/>
  <outline>
    <contour>
      <point x="782" y="259" type="line"/>
      <point x="919" y="259" type="line" smooth="yes"/>
      <point x="944" y="259"/>
      <point x="955" y="270"/>
      <point x="955" y="295" type="curve" smooth="yes"/>
      <point x="955" y="440" type="line" smooth="yes"/>
      <point x="955" y="465"/>
      <point x="944" y="476"/>
      <point x="919" y="476" type="curve" smooth="yes"/>
      <point x="782" y="476" type="line"/>
    </contour>
    <contour>
      <point x="243" y="476" type="line"/>
      <point x="91" y="476" type="line" smooth="yes"/>
      <point x="66" y="476"/>
      <point x="55" y="465"/>
      <point x="55" y="440" type="curve" smooth="yes"/>
      <point x="55" y="295" type="line" smooth="yes"/>
      <point x="55" y="270"/>
      <point x="66" y="259"/>
      <point x="91" y="259" type="curve" smooth="yes"/>
      <point x="243" y="259" type="line"/>
    </contour>
    <component base="S" xOffset="63"/>
  </outline>
</glyph>
<glyph name="percent" format="1">
  <advance width="890"/>
  <unicode hex="0025"/>
  <outline>
    <contour>
      <point x="769" y="66" type="line" smooth="yes"/>
      <point x="790" y="52"/>
      <point x="805" y="62"/>
      <point x="805" y="87" type="curve" smooth="yes"/>
      <point x="805" y="172" type="line" smooth="yes"/>
      <point x="805" y="197"/>
      <point x="790" y="209"/>
      <point x="769" y="223" type="curve" smooth="yes"/>
      <point x="121" y="655" type="line" smooth="yes"/>
      <point x="100" y="669"/>
      <point x="85" y="659"/>
      <point x="85" y="634" type="curve" smooth="yes"/>
      <point x="85" y="549" type="line" smooth="yes"/>
      <point x="85" y="524"/>
      <point x="100" y="512"/>
      <point x="121" y="498" type="curve" smooth="yes"/>
    </contour>
    <contour>
      <point x="359" y="394" type="curve"/>
      <point x="199" y="394" type="line" smooth="yes"/>
      <point x="128" y="394"/>
      <point x="80" y="362"/>
      <point x="80" y="227" type="curve" smooth="yes"/>
      <point x="80" y="92"/>
      <point x="128" y="58"/>
      <point x="199" y="58" type="curve" smooth="yes"/>
      <point x="359" y="58" type="line" smooth="yes"/>
      <point x="430" y="58"/>
      <point x="478" y="92"/>
      <point x="478" y="227" type="curve" smooth="yes"/>
      <point x="478" y="362"/>
      <point x="430" y="394"/>
    </contour>
    <contour>
      <point x="328" y="203" type="curve"/>
      <point x="230" y="203" type="line" smooth="yes"/>
      <point x="222" y="203"/>
      <point x="213" y="206"/>
      <point x="213" y="227" type="curve" smooth="yes"/>
      <point x="213" y="247"/>
      <point x="222" y="250"/>
      <point x="230" y="250" type="curve" smooth="yes"/>
      <point x="328" y="250" type="line" smooth="yes"/>
      <point x="338" y="250"/>
      <point x="346" y="247"/>
      <point x="346" y="227" type="curve" smooth="yes"/>
      <point x="346" y="207"/>
      <point x="338" y="203"/>
    </contour>
    <contour>
      <point x="691" y="661" type="curve"/>
      <point x="531" y="661" type="line" smooth="yes"/>
      <point x="460" y="661"/>
      <point x="412" y="629"/>
      <point x="412" y="494" type="curve" smooth="yes"/>
      <point x="412" y="359"/>
      <point x="460" y="325"/>
      <point x="531" y="325" type="curve" smooth="yes"/>
      <point x="691" y="325" type="line" smooth="yes"/>
      <point x="762" y="325"/>
      <point x="810" y="359"/>
      <point x="810" y="494" type="curve" smooth="yes"/>
      <point x="810" y="643"/>
      <point x="762" y="661"/>
    </contour>
    <contour>
      <point x="660" y="470" type="curve"/>
      <point x="562" y="470" type="line" smooth="yes"/>
      <point x="554" y="470"/>
      <point x="545" y="473"/>
      <point x="545" y="494" type="curve" smooth="yes"/>
      <point x="545" y="514"/>
      <point x="554" y="517"/>
      <point x="562" y="517" type="curve" smooth="yes"/>
      <point x="660" y="517" type="line" smooth="yes"/>
      <point x="670" y="517"/>
      <point x="678" y="514"/>
      <point x="678" y="494" type="curve" smooth="yes"/>
      <point x="678" y="474"/>
      <point x="670" y="470"/>
    </contour>
  </outline>
</glyph>
<glyph name="quotesingle" format="1">
  <advance width="519"/>
  <unicode hex="0027"/>
  <outline>
    <contour>
      <point x="447" y="432" type="line" smooth="yes"/>
      <point x="447" y="467"/>
      <point x="441" y="472"/>
      <point x="406" y="474" type="curve" smooth="yes"/>
      <point x="113" y="482" type="line" smooth="yes"/>
      <point x="78" y="483"/>
      <point x="72" y="477"/>
      <point x="72" y="443" type="curve" smooth="yes"/>
      <point x="72" y="278" type="line" smooth="yes"/>
      <point x="72" y="243"/>
      <point x="78" y="237"/>
      <point x="113" y="238" type="curve" smooth="yes"/>
      <point x="406" y="246" type="line" smooth="yes"/>
      <point x="441" y="247"/>
      <point x="447" y="253"/>
      <point x="447" y="288" type="curve" smooth="yes"/>
    </contour>
  </outline>
</glyph>
<glyph name="asterisk" format="1">
  <advance width="742.0"/>
  <unicode hex="002A"/>
  <outline>
    <contour>
      <point x="635" y="287" type="curve" smooth="yes"/>
      <point x="494" y="360" type="line"/>
      <point x="635" y="434" type="line" smooth="yes"/>
      <point x="663" y="450"/>
      <point x="666" y="457"/>
      <point x="647" y="486" type="curve" smooth="yes"/>
      <point x="579" y="580" type="line" smooth="yes"/>
      <point x="559" y="608"/>
      <point x="550" y="609"/>
      <point x="525" y="586" type="curve" smooth="yes"/>
      <point x="410" y="476" type="line"/>
      <point x="385" y="629" type="line" smooth="yes"/>
      <point x="379" y="663"/>
      <point x="372" y="668"/>
      <point x="339" y="657" type="curve" smooth="yes"/>
      <point x="228" y="620" type="line" smooth="yes"/>
      <point x="195" y="609"/>
      <point x="191" y="601"/>
      <point x="206" y="571" type="curve" smooth="yes"/>
      <point x="270" y="434" type="line"/>
      <point x="121" y="454" type="line" smooth="yes"/>
      <point x="87" y="460"/>
      <point x="80" y="454"/>
      <point x="80" y="420" type="curve" smooth="yes"/>
      <point x="80" y="303" type="line" smooth="yes"/>
      <point x="80" y="269"/>
      <point x="87" y="262"/>
      <point x="121" y="267" type="curve" smooth="yes"/>
      <point x="270" y="290" type="line"/>
      <point x="206" y="148" type="line" smooth="yes"/>
      <point x="191" y="118"/>
      <point x="195" y="109"/>
      <point x="228" y="99" type="curve" smooth="yes"/>
      <point x="339" y="63" type="line" smooth="yes"/>
      <point x="372" y="52"/>
      <point x="379" y="57"/>
      <point x="385" y="91" type="curve" smooth="yes"/>
      <point x="410" y="243" type="line"/>
      <point x="525" y="134" type="line" smooth="yes"/>
      <point x="550" y="111"/>
      <point x="559" y="112"/>
      <point x="579" y="140" type="curve" smooth="yes"/>
      <point x="647" y="234" type="line"/>
      <point x="666" y="263"/>
      <point x="663" y="271"/>
    </contour>
  </outline>
</glyph>
<glyph name="comma" format="1">
  <advance width="499"/>
  <unicode hex="002C"/>
  <outline>
    <contour>
      <point x="447" y="349" type="line" smooth="yes"/>
      <point x="447" y="439"/>
      <point x="398" y="497"/>
      <point x="296" y="497" type="curve" smooth="yes"/>
      <point x="108" y="497" type="line" smooth="yes"/>
      <point x="83" y="497"/>
      <point x="72" y="486"/>
      <point x="72" y="461" type="curve" smooth="yes"/>
      <point x="72" y="259" type="line" smooth="yes"/>
      <point x="72" y="234"/>
      <point x="83" y="223"/>
      <point x="108" y="223" type="curve"/>
      <point x="256" y="223" type="line"/>
      <point x="281" y="223"/>
      <point x="292" y="234"/>
      <point x="292" y="259" type="curve" smooth="yes"/>
      <point x="292" y="368" type="line"/>
      <point x="307" y="368" type="line" smooth="yes"/>
      <point x="325" y="368"/>
      <point x="335" y="359"/>
      <point x="335" y="341" type="curve" smooth="yes"/>
      <point x="335" y="272" type="line" smooth="yes"/>
      <point x="335" y="247"/>
      <point x="346" y="236"/>
      <point x="371" y="236" type="curve"/>
      <point x="411" y="236" type="line"/>
      <point x="437" y="236"/>
      <point x="447" y="247"/>
      <point x="447" y="272" type="curve" smooth="yes"/>
    </contour>
  </outline>
</glyph>
<glyph name="hyphen" format="1">
  <advance width="420"/>
  <unicode hex="002D"/>
  <unicode hex="00AD"/>
  <outline>
    <contour>
      <point x="76" y="257" type="curve"/>
      <point x="344" y="257" type="line" smooth="yes"/>
      <point x="369" y="257"/>
      <point x="380" y="267"/>
      <point x="380" y="293" type="curve" smooth="yes"/>
      <point x="380" y="427" type="line" smooth="yes"/>
      <point x="380" y="453"/>
      <point x="369" y="463"/>
      <point x="344" y="463" type="curve" smooth="yes"/>
      <point x="76" y="463" type="line" smooth="yes"/>
      <point x="51" y="463"/>
      <point x="40" y="452"/>
      <point x="40" y="427" type="curve" smooth="yes"/>
      <point x="40" y="293" type="line" smooth="yes"/>
      <point x="40" y="267"/>
      <point x="51" y="257"/>
    </contour>
  </outline>
</glyph>
<glyph name="period" format="1">
  <advance width="435"/>
  <unicode hex="002E"/>
  <outline>
    <contour>
      <point x="355" y="461" type="line" smooth="yes"/>
      <point x="355" y="486"/>
      <point x="344" y="497"/>
      <point x="319" y="497" type="curve" smooth="yes"/>
      <point x="116" y="497" type="line" smooth="yes"/>
      <point x="90" y="497"/>
      <point x="80" y="486"/>
      <point x="80" y="461" type="curve" smooth="yes"/>
      <point x="80" y="259" type="line" smooth="yes"/>
      <point x="80" y="234"/>
      <point x="90" y="223"/>
      <point x="116" y="223" type="curve"/>
      <point x="319" y="223" type="line"/>
      <point x="344" y="223"/>
      <point x="355" y="234"/>
      <point x="355" y="259" type="curve" smooth="yes"/>
    </contour>
  </outline>
</glyph>
<glyph name="zero" format="1">
  <advance width="864"/>
  <unicode hex="0030"/>
  <outline>
    <contour>
      <point x="603" y="660" type="curve" smooth="yes"/>
      <point x="262" y="660" type="line" smooth="yes"/>
      <point x="140" y="660"/>
      <point x="57" y="598"/>
      <point x="57" y="360" type="curve" smooth="yes"/>
      <point x="57" y="122"/>
      <point x="140" y="60"/>
      <point x="262" y="60" type="curve" smooth="yes"/>
      <point x="603" y="60" type="line" smooth="yes"/>
      <point x="725" y="60"/>
      <point x="807" y="122"/>
      <point x="807" y="360" type="curve" smooth="yes"/>
      <point x="807" y="598"/>
      <point x="725" y="660"/>
    </contour>
    <contour>
      <point x="567" y="286" type="curve" smooth="yes"/>
      <point x="298" y="286" type="line" smooth="yes"/>
      <point x="272" y="286"/>
      <point x="252" y="300"/>
      <point x="252" y="360" type="curve" smooth="yes"/>
      <point x="252" y="420"/>
      <point x="272" y="435"/>
      <point x="298" y="435" type="curve" smooth="yes"/>
      <point x="567" y="435" type="line" smooth="yes"/>
      <point x="594" y="435"/>
      <point x="614" y="420"/>
      <point x="614" y="360" type="curve" smooth="yes"/>
      <point x="614" y="300"/>
      <point x="594" y="286"/>
    </contour>
  </outline>
</glyph>
<glyph name="four" format="1">
  <advance width="842"/>
  <unicode hex="0034"/>
  <outline>
    <contour>
      <point x="620" y="434" type="line"/>
      <point x="751" y="434" type="line" smooth="yes"/>
      <point x="776" y="434"/>
      <point x="787" y="445"/>
      <point x="787" y="470" type="curve" smooth="yes"/>
      <point x="787" y="624" type="line" smooth="yes"/>
      <point x="787" y="649"/>
      <point x="776" y="660"/>
      <point x="751" y="660" type="curve" smooth="yes"/>
      <point x="103" y="660" type="line" smooth="yes"/>
      <point x="78" y="660"/>
      <point x="67" y="649"/>
      <point x="67" y="624" type="curve" smooth="yes"/>
      <point x="67" y="470" type="line" smooth="yes"/>
      <point x="67" y="445"/>
      <point x="78" y="434"/>
      <point x="103" y="434" type="curve" smooth="yes"/>
      <point x="411" y="434" type="line"/>
      <point x="411" y="318" type="line" smooth="yes"/>
      <point x="411" y="299"/>
      <point x="398" y="287"/>
      <point x="377" y="287" type="curve" smooth="yes"/>
      <point x="103" y="287" type="line" smooth="yes"/>
      <point x="78" y="287"/>
      <point x="67" y="276"/>
      <point x="67" y="251" type="curve" smooth="yes"/>
      <point x="67" y="96" type="line" smooth="yes"/>
      <point x="67" y="71"/>
      <point x="78" y="60"/>
      <point x="103" y="60" type="curve" smooth="yes"/>
      <point x="454" y="60" type="line" smooth="yes"/>
      <point x="568" y="60"/>
      <point x="620" y="112"/>
      <point x="620" y="242" type="curve" smooth="yes"/>
    </contour>
  </outline>
</glyph>
<glyph name="six" format="1">
  <advance width="859"/>
  <unicode hex="0036"/>
  <outline>
    <contour>
      <point x="455.0" y="281.0" type="line"/>
      <point x="317.0" y="281.0" type="line" smooth="yes"/>
      <point x="268.0" y="281.0"/>
      <point x="257.0" y="295.0"/>
      <point x="257.0" y="344.0" type="curve" smooth="yes"/>
      <point x="257.0" y="553.0" type="line" smooth="yes"/>
      <point x="257.0" y="578.0"/>
      <point x="246.0" y="589.0"/>
      <point x="221.0" y="589.0" type="curve" smooth="yes"/>
      <point x="103.0" y="589.0" type="line" smooth="yes"/>
      <point x="78.0" y="589.0"/>
      <point x="67.0" y="579.0"/>
      <point x="67.0" y="553.0" type="curve" smooth="yes"/>
      <point x="67.0" y="301.0" type="line" smooth="yes"/>
      <point x="67.0" y="112.0"/>
      <point x="150.0" y="55.0"/>
      <point x="272.0" y="55.0" type="curve" smooth="yes"/>
      <point x="600.0" y="55.0" type="line" smooth="yes"/>
      <point x="722.0" y="55.0"/>
      <point x="802.0" y="116.0"/>
      <point x="802.0" y="362.0" type="curve" smooth="yes"/>
      <point x="802.0" y="592.0"/>
      <point x="722.0" y="665.0"/>
      <point x="600.0" y="665.0" type="curve" smooth="yes"/>
      <point x="504.0" y="665.0" type="line" smooth="yes"/>
      <point x="385.0" y="665.0"/>
      <point x="324.0" y="612.0"/>
      <point x="324.0" y="431.0" type="curve" smooth="yes"/>
      <point x="324.0" y="241.0"/>
      <point x="391.0" y="176.0"/>
      <point x="489.0" y="176.0" type="curve"/>
    </contour>
    <contour>
      <point x="532.0" y="281.0" type="line" smooth="yes"/>
      <point x="505.0" y="281.0"/>
      <point x="489.0" y="297.0"/>
      <point x="489.0" y="355.0" type="curve" smooth="yes"/>
      <point x="489.0" y="415.0"/>
      <point x="505.0" y="439.0"/>
      <point x="532.0" y="439.0" type="curve" smooth="yes"/>
      <point x="579.0" y="439.0" type="line" smooth="yes"/>
      <point x="605.0" y="439.0"/>
      <point x="621.0" y="415.0"/>
      <point x="621.0" y="355.0" type="curve" smooth="yes"/>
      <point x="621.0" y="297.0"/>
      <point x="605.0" y="281.0"/>
      <point x="580.0" y="281.0" type="curve" smooth="yes"/>
    </contour>
  </outline>
</glyph>
<glyph name="seven" format="1">
  <advance width="857"/>
  <unicode hex="0037"/>
  <outline>
    <contour>
      <point x="80.0" y="624.0" type="curve"/>
      <point x="80.0" y="96.0" type="line" smooth="yes"/>
      <point x="80.0" y="71.0"/>
      <point x="91.0" y="60.0"/>
      <point x="116.0" y="60.0" type="curve" smooth="yes"/>
      <point x="237.0" y="60.0" type="line" smooth="yes"/>
      <point x="262.0" y="60.0"/>
      <point x="273.0" y="71.0"/>
      <point x="273.0" y="96.0" type="curve" smooth="yes"/>
      <point x="273.0" y="433.0" type="line"/>
      <point x="363.0" y="433.0" type="line"/>
      <point x="385.0" y="313.0" type="line" smooth="yes"/>
      <point x="417.0" y="206.0"/>
      <point x="456.0" y="157.0"/>
      <point x="583.0" y="157.0" type="curve" smooth="yes"/>
      <point x="764.0" y="157.0" type="line" smooth="yes"/>
      <point x="789.0" y="157.0"/>
      <point x="800.0" y="168.0"/>
      <point x="800.0" y="193.0" type="curve" smooth="yes"/>
      <point x="800.0" y="355.0" type="line" smooth="yes"/>
      <point x="800.0" y="380.0"/>
      <point x="789.0" y="391.0"/>
      <point x="764.0" y="391.0" type="curve" smooth="yes"/>
      <point x="589.0" y="391.0" type="line"/>
      <point x="567.0" y="504.0" type="line" smooth="yes"/>
      <point x="546.0" y="614.0"/>
      <point x="496.0" y="660.0"/>
      <point x="369.0" y="660.0" type="curve" smooth="yes"/>
      <point x="116.0" y="660.0" type="line" smooth="yes"/>
      <point x="91.0" y="660.0"/>
      <point x="80.0" y="649.0"/>
    </contour>
  </outline>
</glyph>
<glyph name="eight" format="1">
  <advance width="864"/>
  <unicode hex="0038"/>
  <outline>
    <contour>
      <point x="312.0" y="297.0" type="curve"/>
      <point x="268.0" y="297.0" type="line" smooth="yes"/>
      <point x="248.0" y="297.0"/>
      <point x="232.0" y="304.0"/>
      <point x="232.0" y="360.0" type="curve" smooth="yes"/>
      <point x="232.0" y="417.0"/>
      <point x="248.0" y="422.0"/>
      <point x="268.0" y="422.0" type="curve" smooth="yes"/>
      <point x="312.0" y="422.0" type="line" smooth="yes"/>
      <point x="333.0" y="422.0"/>
      <point x="349.0" y="417.0"/>
      <point x="349.0" y="360.0" type="curve" smooth="yes"/>
      <point x="349.0" y="304.0"/>
      <point x="333.0" y="297.0"/>
    </contour>
    <contour>
      <point x="595.0" y="275.0" type="curve" smooth="yes"/>
      <point x="542.0" y="275.0" type="line" smooth="yes"/>
      <point x="522.0" y="275.0"/>
      <point x="506.0" y="288.0"/>
      <point x="506.0" y="360.0" type="curve" smooth="yes"/>
      <point x="506.0" y="433.0"/>
      <point x="522.0" y="444.0"/>
      <point x="542.0" y="444.0" type="curve" smooth="yes"/>
      <point x="595.0" y="444.0" type="line" smooth="yes"/>
      <point x="616.0" y="444.0"/>
      <point x="632.0" y="433.0"/>
      <point x="632.0" y="360.0" type="curve" smooth="yes"/>
      <point x="632.0" y="288.0"/>
      <point x="616.0" y="275.0"/>
    </contour>
    <contour>
      <point x="536.0" y="665.0" type="line" smooth="yes"/>
      <point x="442.0" y="665.0"/>
      <point x="393.0" y="622.0"/>
      <point x="381.0" y="562.0" type="curve"/>
      <point x="362.0" y="606.0"/>
      <point x="324.0" y="621.0"/>
      <point x="273.0" y="621.0" type="curve" smooth="yes"/>
      <point x="215.0" y="621.0" type="line" smooth="yes"/>
      <point x="117.0" y="621.0"/>
      <point x="57.0" y="562.0"/>
      <point x="57.0" y="361.0" type="curve" smooth="yes"/>
      <point x="57.0" y="160.0"/>
      <point x="117.0" y="98.0"/>
      <point x="215.0" y="98.0" type="curve" smooth="yes"/>
      <point x="273.0" y="98.0" type="line" smooth="yes"/>
      <point x="324.0" y="98.0"/>
      <point x="362.0" y="113.0"/>
      <point x="381.0" y="157.0" type="curve"/>
      <point x="393.0" y="97.0"/>
      <point x="442.0" y="54.0"/>
      <point x="536.0" y="54.0" type="curve" smooth="yes"/>
      <point x="633.0" y="54.0" type="line" smooth="yes"/>
      <point x="737.0" y="54.0"/>
      <point x="807.0" y="119.0"/>
      <point x="807.0" y="360.0" type="curve" smooth="yes"/>
      <point x="807.0" y="601.0"/>
      <point x="737.0" y="665.0"/>
      <point x="633.0" y="665.0" type="curve" smooth="yes"/>
    </contour>
  </outline>
</glyph>
<glyph name="nine" format="1">
  <advance width="859.0"/>
  <unicode hex="0039"/>
  <outline>
    <contour>
      <point x="327" y="439" type="line" smooth="yes"/>
      <point x="354" y="439"/>
      <point x="370" y="423"/>
      <point x="370" y="365" type="curve" smooth="yes"/>
      <point x="370" y="305"/>
      <point x="354" y="281"/>
      <point x="327" y="281" type="curve" smooth="yes"/>
      <point x="280" y="281" type="line" smooth="yes"/>
      <point x="254" y="281"/>
      <point x="238" y="305"/>
      <point x="238" y="365" type="curve" smooth="yes"/>
      <point x="238" y="423"/>
      <point x="254" y="439"/>
      <point x="279" y="439" type="curve" smooth="yes"/>
    </contour>
    <contour>
      <point x="404" y="439" type="line"/>
      <point x="542" y="439" type="line" smooth="yes"/>
      <point x="591" y="439"/>
      <point x="602" y="425"/>
      <point x="602" y="376" type="curve" smooth="yes"/>
      <point x="602" y="167" type="line" smooth="yes"/>
      <point x="602" y="142"/>
      <point x="613" y="131"/>
      <point x="638" y="131" type="curve" smooth="yes"/>
      <point x="756" y="131" type="line" smooth="yes"/>
      <point x="781" y="131"/>
      <point x="792" y="141"/>
      <point x="792" y="167" type="curve" smooth="yes"/>
      <point x="792" y="419" type="line" smooth="yes"/>
      <point x="792" y="608"/>
      <point x="709" y="665"/>
      <point x="587" y="665" type="curve" smooth="yes"/>
      <point x="259" y="665" type="line" smooth="yes"/>
      <point x="137" y="665"/>
      <point x="57" y="604"/>
      <point x="57" y="358" type="curve" smooth="yes"/>
      <point x="57" y="128"/>
      <point x="137" y="55"/>
      <point x="259" y="55" type="curve" smooth="yes"/>
      <point x="355" y="55" type="line" smooth="yes"/>
      <point x="474" y="55"/>
      <point x="535" y="108"/>
      <point x="535" y="289" type="curve" smooth="yes"/>
      <point x="535" y="479"/>
      <point x="468" y="544"/>
      <point x="370" y="544" type="curve"/>
    </contour>
  </outline>
</glyph>
<glyph name="less" format="1">
  <advance width="726.490817055"/>
  <unicode hex="003C"/>
  <outline>
    <contour>
      <point x="663.245408527" y="595" type="line" smooth="yes"/>
      <point x="668.245408527" y="620"/>
      <point x="658.245408527" y="631"/>
      <point x="632.245408527" y="631" type="curve" smooth="yes"/>
      <point x="500.245408527" y="631" type="line" smooth="yes"/>
      <point x="474.245408527" y="631"/>
      <point x="463.245408527" y="620"/>
      <point x="459.245408527" y="595" type="curve" smooth="yes"/>
      <point x="382.245408527" y="308" type="line" smooth="yes"/>
      <point x="379.245408527" y="294"/>
      <point x="375.245408527" y="291"/>
      <point x="363.245408527" y="291" type="curve" smooth="yes"/>
      <point x="351.245408527" y="291"/>
      <point x="347.245408527" y="294"/>
      <point x="344.245408527" y="308" type="curve" smooth="yes"/>
      <point x="267.245408527" y="595" type="line" smooth="yes"/>
      <point x="263.245408527" y="620"/>
      <point x="252.245408527" y="631"/>
      <point x="226.245408527" y="631" type="curve" smooth="yes"/>
      <point x="94.2454085274" y="631" type="line" smooth="yes"/>
      <point x="68.2454085274" y="631"/>
      <point x="58.2454085274" y="620"/>
      <point x="63.2454085274" y="595" type="curve" smooth="yes"/>
      <point x="172.245408527" y="214" type="line" smooth="yes"/>
      <point x="196.245408527" y="131"/>
      <point x="228.245408527" y="87"/>
      <point x="327.245408527" y="87" type="curve" smooth="yes"/>
      <point x="399.245408527" y="87" type="line" smooth="yes"/>
      <point x="498.245408527" y="87"/>
      <point x="530.245408527" y="131"/>
      <point x="554.245408527" y="214" type="curve"/>
    </contour>
  </outline>
</glyph>
<glyph name="equal" format="1">
  <advance width="646"/>
  <unicode hex="003D"/>
  <outline>
    <contour>
      <point x="380" y="621" type="curve"/>
      <point x="380" y="99" type="line" smooth="yes"/>
      <point x="380" y="74"/>
      <point x="390" y="63"/>
      <point x="416" y="63" type="curve" smooth="yes"/>
      <point x="530" y="63" type="line" smooth="yes"/>
      <point x="556" y="63"/>
      <point x="566" y="74"/>
      <point x="566" y="99" type="curve" smooth="yes"/>
      <point x="566" y="621" type="line" smooth="yes"/>
      <point x="566" y="646"/>
      <point x="555" y="657"/>
      <point x="530" y="657" type="curve" smooth="yes"/>
      <point x="416" y="657" type="line" smooth="yes"/>
      <point x="390" y="657"/>
      <point x="380" y="646"/>
    </contour>
    <contour>
      <point x="80" y="621" type="curve"/>
      <point x="80" y="99" type="line" smooth="yes"/>
      <point x="80" y="74"/>
      <point x="90" y="63"/>
      <point x="116" y="63" type="curve" smooth="yes"/>
      <point x="230" y="63" type="line" smooth="yes"/>
      <point x="256" y="63"/>
      <point x="266" y="74"/>
      <point x="266" y="99" type="curve" smooth="yes"/>
      <point x="266" y="621" type="line" smooth="yes"/>
      <point x="266" y="646"/>
      <point x="255" y="657"/>
      <point x="230" y="657" type="curve" smooth="yes"/>
      <point x="116" y="657" type="line" smooth="yes"/>
      <point x="90" y="657"/>
      <point x="80" y="646"/>
    </contour>
  </outline>
</glyph>
<glyph name="greater" format="1">
  <advance width="726.490817055"/>
  <unicode hex="003E"/>
  <outline>
    <contour>
      <point x="554.245408527" y="504.0" type="line"/>
      <point x="530.245408527" y="587.0"/>
      <point x="498.245408527" y="631.0"/>
      <point x="399.245408527" y="631.0" type="curve" smooth="yes"/>
      <point x="327.245408527" y="631.0" type="line" smooth="yes"/>
      <point x="228.245408527" y="631.0"/>
      <point x="196.245408527" y="587.0"/>
      <point x="172.245408527" y="504.0" type="curve" smooth="yes"/>
      <point x="63.2454085274" y="123.0" type="line" smooth="yes"/>
      <point x="58.2454085274" y="98.0"/>
      <point x="68.2454085274" y="87.0"/>
      <point x="94.2454085274" y="87.0" type="curve" smooth="yes"/>
      <point x="226.245408527" y="87.0" type="line" smooth="yes"/>
      <point x="252.245408527" y="87.0"/>
      <point x="263.245408527" y="98.0"/>
      <point x="267.245408527" y="123.0" type="curve" smooth="yes"/>
      <point x="344.245408527" y="410.0" type="line" smooth="yes"/>
      <point x="347.245408527" y="424.0"/>
      <point x="351.245408527" y="427.0"/>
      <point x="363.245408527" y="427.0" type="curve" smooth="yes"/>
      <point x="375.245408527" y="427.0"/>
      <point x="379.245408527" y="424.0"/>
      <point x="382.245408527" y="410.0" type="curve" smooth="yes"/>
      <point x="459.245408527" y="123.0" type="line" smooth="yes"/>
      <point x="463.245408527" y="98.0"/>
      <point x="474.245408527" y="87.0"/>
      <point x="500.245408527" y="87.0" type="curve" smooth="yes"/>
      <point x="632.245408527" y="87.0" type="line" smooth="yes"/>
      <point x="658.245408527" y="87.0"/>
      <point x="668.245408527" y="98.0"/>
      <point x="663.245408527" y="123.0" type="curve" smooth="yes"/>
    </contour>
  </outline>
</glyph>
<glyph name="question" format="1">
  <advance width="847.0"/>
  <unicode hex="003F"/>
  <outline>
    <contour>
      <point x="519.0" y="488.0" type="line" smooth="yes"/>
      <point x="506.0" y="583.0"/>
      <point x="465.0" y="643.0"/>
      <point x="353.0" y="643.0" type="curve" smooth="yes"/>
      <point x="248.0" y="643.0" type="line" smooth="yes"/>
      <point x="134.0" y="643.0"/>
      <point x="72.0" y="566.0"/>
      <point x="72.0" y="436.0" type="curve" smooth="yes"/>
      <point x="72.0" y="113.0" type="line" smooth="yes"/>
      <point x="72.0" y="88.0"/>
      <point x="83.0" y="77.0"/>
      <point x="108.0" y="77.0" type="curve"/>
      <point x="229.0" y="77.0" type="line" smooth="yes"/>
      <point x="255.0" y="77.0"/>
      <point x="265.0" y="88.0"/>
      <point x="265.0" y="113.0" type="curve" smooth="yes"/>
      <point x="265.0" y="389.0" type="line" smooth="yes"/>
      <point x="265.0" y="406.0"/>
      <point x="274.0" y="416.0"/>
      <point x="293.0" y="416.0" type="curve" smooth="yes"/>
      <point x="313.0" y="416.0"/>
      <point x="321.0" y="409.0"/>
      <point x="324.0" y="389.0" type="curve" smooth="yes"/>
      <point x="352.0" y="190.0" type="line" smooth="yes"/>
      <point x="355.0" y="165.0"/>
      <point x="367.0" y="153.0"/>
      <point x="393.0" y="157.0" type="curve" smooth="yes"/>
      <point x="525.0" y="178.0" type="line" smooth="yes"/>
      <point x="550.0" y="182.0"/>
      <point x="559.0" y="192.0"/>
      <point x="556.0" y="217.0" type="curve" smooth="yes"/>
    </contour>
    <contour>
      <point x="792.0" y="376.0" type="line" smooth="yes"/>
      <point x="792.0" y="401.0"/>
      <point x="781.0" y="412.0"/>
      <point x="756.0" y="412.0" type="curve" smooth="yes"/>
      <point x="625.0" y="412.0" type="line" smooth="yes"/>
      <point x="599.0" y="412.0"/>
      <point x="589.0" y="401.0"/>
      <point x="589.0" y="376.0" type="curve" smooth="yes"/>
      <point x="589.0" y="193.0" type="line" smooth="yes"/>
      <point x="589.0" y="167.0"/>
      <point x="599.0" y="157.0"/>
      <point x="625.0" y="157.0" type="curve" smooth="yes"/>
      <point x="756.0" y="157.0" type="line" smooth="yes"/>
      <point x="781.0" y="157.0"/>
      <point x="792.0" y="167.0"/>
      <point x="792.0" y="193.0" type="curve" smooth="yes"/>
    </contour>
  </outline>
</glyph>
<glyph name="B" format="1">
  <advance width="861"/>
  <unicode hex="0042"/>
  <outline>
    <contour>
      <point x="789" y="471" type="line" smooth="yes"/>
      <point x="789" y="599"/>
      <point x="726" y="665"/>
      <point x="625" y="665" type="curve" smooth="yes"/>
      <point x="533" y="665" type="line" smooth="yes"/>
      <point x="439" y="665"/>
      <point x="385" y="611"/>
      <point x="378" y="539" type="curve"/>
      <point x="359" y="583"/>
      <point x="321" y="598"/>
      <point x="270" y="598" type="curve" smooth="yes"/>
      <point x="222" y="598" type="line" smooth="yes"/>
      <point x="134" y="598"/>
      <point x="69" y="542"/>
      <point x="69" y="406" type="curve" smooth="yes"/>
      <point x="69" y="96" type="line" smooth="yes"/>
      <point x="69" y="71"/>
      <point x="80" y="60"/>
      <point x="105" y="60" type="curve"/>
      <point x="753" y="60" type="line"/>
      <point x="778" y="60"/>
      <point x="789" y="71"/>
      <point x="789" y="96" type="curve" smooth="yes"/>
    </contour>
    <contour>
      <point x="501" y="285" type="line"/>
      <point x="501" y="406" type="line" smooth="yes"/>
      <point x="501" y="438"/>
      <point x="519" y="444"/>
      <point x="540" y="444" type="curve" smooth="yes"/>
      <point x="579" y="444" type="line" smooth="yes"/>
      <point x="600" y="444"/>
      <point x="619" y="438"/>
      <point x="619" y="406" type="curve" smooth="yes"/>
      <point x="619" y="285" type="line"/>
    </contour>
    <contour>
      <point x="239" y="285" type="line"/>
      <point x="239" y="361" type="line" smooth="yes"/>
      <point x="239" y="393"/>
      <point x="258" y="399"/>
      <point x="279" y="399" type="curve" smooth="yes"/>
      <point x="307" y="399" type="line" smooth="yes"/>
      <point x="328" y="399"/>
      <point x="347" y="393"/>
      <point x="347" y="361" type="curve" smooth="yes"/>
      <point x="347" y="285" type="line"/>
    </contour>
  </outline>
</glyph>
<glyph name="E" format="1">
  <advance width="880"/>
  <unicode hex="0045"/>
  <outline>
    <contour>
      <point x="800" y="614" type="line" smooth="yes"/>
      <point x="800" y="639"/>
      <point x="789" y="650"/>
      <point x="764" y="650" type="curve" smooth="yes"/>
      <point x="647" y="650" type="line" smooth="yes"/>
      <point x="622" y="650"/>
      <point x="611" y="639"/>
      <point x="611" y="614" type="curve" smooth="yes"/>
      <point x="611" y="287" type="line"/>
      <point x="525" y="287" type="line"/>
      <point x="525" y="533" type="line" smooth="yes"/>
      <point x="525" y="558"/>
      <point x="514" y="569"/>
      <point x="489" y="569" type="curve" smooth="yes"/>
      <point x="382" y="569" type="line" smooth="yes"/>
      <point x="356" y="569"/>
      <point x="346" y="558"/>
      <point x="346" y="533" type="curve" smooth="yes"/>
      <point x="346" y="287" type="line"/>
      <point x="269" y="287" type="line"/>
      <point x="269" y="614" type="line" smooth="yes"/>
      <point x="269" y="639"/>
      <point x="258" y="650"/>
      <point x="233" y="650" type="curve" smooth="yes"/>
      <point x="116" y="650" type="line" smooth="yes"/>
      <point x="91" y="650"/>
      <point x="80" y="639"/>
      <point x="80" y="614" type="curve" smooth="yes"/>
      <point x="80" y="96" type="line" smooth="yes"/>
      <point x="80" y="71"/>
      <point x="91" y="60"/>
      <point x="116" y="60" type="curve"/>
      <point x="764" y="60" type="line"/>
      <point x="789" y="60"/>
      <point x="800" y="71"/>
      <point x="800" y="96" type="curve" smooth="yes"/>
    </contour>
  </outline>
</glyph>
<glyph name="F" format="1">
  <advance width="855.0"/>
  <unicode hex="0046"/>
  <outline>
    <contour>
      <point x="800.0" y="251" type="line" smooth="yes"/>
      <point x="800.0" y="276"/>
      <point x="789.0" y="287"/>
      <point x="764.0" y="287" type="curve" smooth="yes"/>
      <point x="567.0" y="287" type="line"/>
      <point x="567.0" y="533" type="line" smooth="yes"/>
      <point x="567.0" y="558"/>
      <point x="556.0" y="569"/>
      <point x="531.0" y="569" type="curve" smooth="yes"/>
      <point x="411.0" y="569" type="line" smooth="yes"/>
      <point x="386.0" y="569"/>
      <point x="375.0" y="558"/>
      <point x="375.0" y="533" type="curve" smooth="yes"/>
      <point x="375.0" y="287" type="line"/>
      <point x="271.0" y="287" type="line"/>
      <point x="271.0" y="614" type="line" smooth="yes"/>
      <point x="271.0" y="639"/>
      <point x="260.0" y="650"/>
      <point x="235.0" y="650" type="curve" smooth="yes"/>
      <point x="116.0" y="650" type="line" smooth="yes"/>
      <point x="91.0" y="650"/>
      <point x="80.0" y="639"/>
      <point x="80.0" y="614" type="curve" smooth="yes"/>
      <point x="80.0" y="96" type="line" smooth="yes"/>
      <point x="80.0" y="71"/>
      <point x="91.0" y="60"/>
      <point x="116.0" y="60" type="curve"/>
      <point x="764.0" y="60" type="line"/>
      <point x="789.0" y="60"/>
      <point x="800.0" y="71"/>
      <point x="800.0" y="96" type="curve" smooth="yes"/>
    </contour>
  </outline>
</glyph>
<glyph name="H" format="1">
  <advance width="854.0"/>
  <unicode hex="0048"/>
  <outline>
    <contour>
      <point x="787.0" y="251.0" type="line" smooth="yes"/>
      <point x="787.0" y="276.0"/>
      <point x="776.0" y="287.0"/>
      <point x="751.0" y="287.0" type="curve" smooth="yes"/>
      <point x="529.0" y="287.0" type="line"/>
      <point x="529.0" y="433.0" type="line"/>
      <point x="751.0" y="433.0" type="line" smooth="yes"/>
      <point x="776.0" y="433.0"/>
      <point x="787.0" y="444.0"/>
      <point x="787.0" y="469.0" type="curve" smooth="yes"/>
      <point x="787.0" y="624.0" type="line" smooth="yes"/>
      <point x="787.0" y="649.0"/>
      <point x="776.0" y="660.0"/>
      <point x="751.0" y="660.0" type="curve" smooth="yes"/>
      <point x="103.0" y="660.0" type="line" smooth="yes"/>
      <point x="78.0" y="660.0"/>
      <point x="67.0" y="649.0"/>
      <point x="67.0" y="624.0" type="curve" smooth="yes"/>
      <point x="67.0" y="469.0" type="line" smooth="yes"/>
      <point x="67.0" y="444.0"/>
      <point x="78.0" y="433.0"/>
      <point x="103.0" y="433.0" type="curve" smooth="yes"/>
      <point x="320.0" y="433.0" type="line"/>
      <point x="320.0" y="287.0" type="line"/>
      <point x="103.0" y="287.0" type="line" smooth="yes"/>
      <point x="78.0" y="287.0"/>
      <point x="67.0" y="276.0"/>
      <point x="67.0" y="251.0" type="curve" smooth="yes"/>
      <point x="67.0" y="96.0" type="line" smooth="yes"/>
      <point x="67.0" y="71.0"/>
      <point x="78.0" y="60.0"/>
      <point x="103.0" y="60.0" type="curve" smooth="yes"/>
      <point x="751.0" y="60.0" type="line" smooth="yes"/>
      <point x="776.0" y="60.0"/>
      <point x="787.0" y="71.0"/>
      <point x="787.0" y="96.0" type="curve" smooth="yes"/>
    </contour>
  </outline>
</glyph>
<glyph name="J" format="1">
  <advance width="847.0"/>
  <unicode hex="004A"/>
  <outline>
    <contour>
      <point x="586" y="660" type="curve"/>
      <point x="91" y="660" type="line" smooth="yes"/>
      <point x="66" y="660"/>
      <point x="55" y="649"/>
      <point x="55" y="624" type="curve" smooth="yes"/>
      <point x="55" y="467" type="line" smooth="yes"/>
      <point x="55" y="442"/>
      <point x="66" y="431"/>
      <point x="91" y="431" type="curve" smooth="yes"/>
      <point x="546" y="431" type="line" smooth="yes"/>
      <point x="573" y="431"/>
      <point x="593" y="422"/>
      <point x="593" y="355" type="curve" smooth="yes"/>
      <point x="593" y="284"/>
      <point x="573" y="277"/>
      <point x="546" y="277" type="curve" smooth="yes"/>
      <point x="424" y="277" type="line" smooth="yes"/>
      <point x="398" y="277"/>
      <point x="388" y="266"/>
      <point x="388" y="241" type="curve" smooth="yes"/>
      <point x="388" y="96" type="line" smooth="yes"/>
      <point x="388" y="71"/>
      <point x="398" y="60"/>
      <point x="424" y="60" type="curve"/>
      <point x="586" y="60" type="line" smooth="yes"/>
      <point x="708" y="60"/>
      <point x="790" y="116"/>
      <point x="790" y="357" type="curve" smooth="yes"/>
      <point x="790" y="600"/>
      <point x="708" y="660"/>
    </contour>
  </outline>
</glyph>
<glyph name="K" format="1">
  <advance width="854.0"/>
  <unicode hex="004B"/>
  <outline>
    <contour>
      <point x="787.0" y="251" type="line" smooth="yes"/>
      <point x="787.0" y="276"/>
      <point x="776.0" y="287"/>
      <point x="751.0" y="287" type="curve" smooth="yes"/>
      <point x="522.0" y="287" type="line"/>
      <point x="522.0" y="402" type="line" smooth="yes"/>
      <point x="522.0" y="423"/>
      <point x="534.0" y="434"/>
      <point x="556.0" y="434" type="curve" smooth="yes"/>
      <point x="751.0" y="434" type="line" smooth="yes"/>
      <point x="776.0" y="434"/>
      <point x="787.0" y="445"/>
      <point x="787.0" y="470" type="curve" smooth="yes"/>
      <point x="787.0" y="624" type="line" smooth="yes"/>
      <point x="787.0" y="649"/>
      <point x="776.0" y="660"/>
      <point x="751.0" y="660" type="curve" smooth="yes"/>
      <point x="469.0" y="660" type="line" smooth="yes"/>
      <point x="389.0" y="660"/>
      <point x="337.0" y="612"/>
      <point x="333.0" y="537" type="curve"/>
      <point x="100.0" y="639" type="line" smooth="yes"/>
      <point x="79.0" y="648"/>
      <point x="67.0" y="640"/>
      <point x="67.0" y="617" type="curve" smooth="yes"/>
      <point x="67.0" y="463" type="line" smooth="yes"/>
      <point x="67.0" y="437"/>
      <point x="76.0" y="423"/>
      <point x="100.0" y="413" type="curve" smooth="yes"/>
      <point x="333.0" y="310" type="line"/>
      <point x="333.0" y="287" type="line"/>
      <point x="103.0" y="287" type="line" smooth="yes"/>
      <point x="78.0" y="287"/>
      <point x="67.0" y="276"/>
      <point x="67.0" y="251" type="curve" smooth="yes"/>
      <point x="67.0" y="96" type="line" smooth="yes"/>
      <point x="67.0" y="71"/>
      <point x="78.0" y="60"/>
      <point x="103.0" y="60" type="curve"/>
      <point x="751.0" y="60" type="line"/>
      <point x="776.0" y="60"/>
      <point x="787.0" y="71"/>
      <point x="787.0" y="96" type="curve" smooth="yes"/>
    </contour>
  </outline>
</glyph>
<glyph name="L" format="1">
  <advance width="855"/>
  <unicode hex="004C"/>
  <outline>
    <contour>
      <point x="775" y="624" type="line" smooth="yes"/>
      <point x="775" y="649"/>
      <point x="764" y="660"/>
      <point x="739" y="660" type="curve" smooth="yes"/>
      <point x="424" y="660" type="line" smooth="yes"/>
      <point x="399" y="660"/>
      <point x="388" y="649"/>
      <point x="388" y="624" type="curve" smooth="yes"/>
      <point x="388" y="479" type="line" smooth="yes"/>
      <point x="388" y="454"/>
      <point x="399" y="443"/>
      <point x="424" y="443" type="curve" smooth="yes"/>
      <point x="586" y="443" type="line"/>
      <point x="586" y="287" type="line"/>
      <point x="91" y="287" type="line" smooth="yes"/>
      <point x="66" y="287"/>
      <point x="55" y="276"/>
      <point x="55" y="251" type="curve" smooth="yes"/>
      <point x="55" y="96" type="line" smooth="yes"/>
      <point x="55" y="71"/>
      <point x="66" y="60"/>
      <point x="91" y="60" type="curve"/>
      <point x="739" y="60" type="line"/>
      <point x="764" y="60"/>
      <point x="775" y="71"/>
      <point x="775" y="96" type="curve" smooth="yes"/>
    </contour>
  </outline>
</glyph>
<glyph name="M" format="1">
  <advance width="854.0"/>
  <unicode hex="004D"/>
  <outline>
    <contour>
      <point x="787.0" y="206.0" type="line" smooth="yes"/>
      <point x="787.0" y="231.0"/>
      <point x="776.0" y="242.0"/>
      <point x="751.0" y="242.0" type="curve" smooth="yes"/>
      <point x="458.0" y="245.0" type="line"/>
      <point x="416.0" y="245.0" type="line"/>
      <point x="526.0" y="284.0" type="line"/>
      <point x="549.0" y="297.0"/>
      <point x="558.0" y="311.0"/>
      <point x="558.0" y="337.0" type="curve" smooth="yes"/>
      <point x="558.0" y="364.0" type="line" smooth="yes"/>
      <point x="558.0" y="390.0"/>
      <point x="549.0" y="404.0"/>
      <point x="526.0" y="417.0" type="curve"/>
      <point x="416.0" y="455.0" type="line"/>
      <point x="458.0" y="455.0" type="line"/>
      <point x="751.0" y="459.0" type="line" smooth="yes"/>
      <point x="776.0" y="459.0"/>
      <point x="787.0" y="470.0"/>
      <point x="787.0" y="495.0" type="curve" smooth="yes"/>
      <point x="787.0" y="646.0" type="line" smooth="yes"/>
      <point x="787.0" y="672.0"/>
      <point x="776.0" y="682.0"/>
      <point x="751.0" y="682.0" type="curve" smooth="yes"/>
      <point x="103.0" y="678.0" type="line" smooth="yes"/>
      <point x="78.0" y="678.0"/>
      <point x="67.0" y="668.0"/>
      <point x="67.0" y="642.0" type="curve" smooth="yes"/>
      <point x="67.0" y="502.0" type="line" smooth="yes"/>
      <point x="67.0" y="476.0"/>
      <point x="75.0" y="460.0"/>
      <point x="97.0" y="446.0" type="curve"/>
      <point x="273.0" y="368.0" type="line"/>
      <point x="273.0" y="344.0" type="line"/>
      <point x="97.0" y="274.0" type="line"/>
      <point x="74.0" y="261.0"/>
      <point x="67.0" y="235.0"/>
      <point x="67.0" y="209.0" type="curve" smooth="yes"/>
      <point x="67.0" y="78.0" type="line" smooth="yes"/>
      <point x="67.0" y="53.0"/>
      <point x="78.0" y="42.0"/>
      <point x="103.0" y="42.0" type="curve" smooth="yes"/>
      <point x="751.0" y="38.0" type="line" smooth="yes"/>
      <point x="776.0" y="38.0"/>
      <point x="787.0" y="49.0"/>
      <point x="787.0" y="74.0" type="curve" smooth="yes"/>
    </contour>
  </outline>
</glyph>
<glyph name="P" format="1">
  <advance width="847"/>
  <unicode hex="0050"/>
  <outline>
    <contour>
      <point x="792" y="251" type="line" smooth="yes"/>
      <point x="792" y="276"/>
      <point x="781" y="287"/>
      <point x="756" y="287" type="curve" smooth="yes"/>
      <point x="590" y="287" type="line"/>
      <point x="590" y="428" type="line" smooth="yes"/>
      <point x="590" y="610"/>
      <point x="511" y="664"/>
      <point x="395" y="664" type="curve" smooth="yes"/>
      <point x="267" y="664" type="line" smooth="yes"/>
      <point x="151" y="664"/>
      <point x="72" y="610"/>
      <point x="72" y="428" type="curve" smooth="yes"/>
      <point x="72" y="96" type="line" smooth="yes"/>
      <point x="72" y="71"/>
      <point x="83" y="60"/>
      <point x="108" y="60" type="curve"/>
      <point x="756" y="60" type="line"/>
      <point x="781" y="60"/>
      <point x="792" y="71"/>
      <point x="792" y="96" type="curve" smooth="yes"/>
    </contour>
    <contour>
      <point x="259" y="285" type="line"/>
      <point x="259" y="401" type="line" smooth="yes"/>
      <point x="259" y="440"/>
      <point x="282" y="448"/>
      <point x="308" y="448" type="curve" smooth="yes"/>
      <point x="361" y="448" type="line" smooth="yes"/>
      <point x="387" y="448"/>
      <point x="410" y="440"/>
      <point x="410" y="401" type="curve" smooth="yes"/>
      <point x="410" y="285" type="line"/>
    </contour>
  </outline>
</glyph>
<glyph name="R" format="1">
  <advance width="859"/>
  <unicode hex="0052"/>
  <outline>
    <contour>
      <point x="792" y="250" type="line" smooth="yes"/>
      <point x="792" y="275"/>
      <point x="781" y="286"/>
      <point x="756" y="286" type="curve" smooth="yes"/>
      <point x="553" y="286" type="line"/>
      <point x="553" y="395" type="line" smooth="yes"/>
      <point x="553" y="423"/>
      <point x="566" y="433"/>
      <point x="596" y="433" type="curve" smooth="yes"/>
      <point x="756" y="433" type="line" smooth="yes"/>
      <point x="781" y="433"/>
      <point x="792" y="444"/>
      <point x="792" y="469" type="curve" smooth="yes"/>
      <point x="792" y="624" type="line" smooth="yes"/>
      <point x="792" y="649"/>
      <point x="781" y="660"/>
      <point x="756" y="660" type="curve" smooth="yes"/>
      <point x="544" y="660" type="line" smooth="yes"/>
      <point x="460" y="660"/>
      <point x="407" y="620"/>
      <point x="399" y="559" type="curve"/>
      <point x="381" y="601"/>
      <point x="341" y="615"/>
      <point x="285" y="615" type="curve" smooth="yes"/>
      <point x="239" y="615" type="line" smooth="yes"/>
      <point x="140" y="615"/>
      <point x="72" y="568"/>
      <point x="72" y="418" type="curve" smooth="yes"/>
      <point x="72" y="96" type="line" smooth="yes"/>
      <point x="72" y="71"/>
      <point x="83" y="60"/>
      <point x="108" y="60" type="curve" smooth="yes"/>
      <point x="756" y="60" type="line" smooth="yes"/>
      <point x="781" y="60"/>
      <point x="792" y="71"/>
      <point x="792" y="96" type="curve" smooth="yes"/>
    </contour>
    <contour>
      <point x="252" y="286" type="line"/>
      <point x="252" y="350" type="line" smooth="yes"/>
      <point x="252" y="385"/>
      <point x="272" y="394"/>
      <point x="299" y="394" type="curve" smooth="yes"/>
      <point x="333" y="394" type="line" smooth="yes"/>
      <point x="360" y="394"/>
      <point x="380" y="385"/>
      <point x="380" y="350" type="curve" smooth="yes"/>
      <point x="380" y="286" type="line"/>
    </contour>
  </outline>
</glyph>
<glyph name="X" format="1">
  <advance width="854"/>
  <unicode hex="0058"/>
  <outline>
    <contour>
      <point x="787" y="242" type="line" smooth="yes"/>
      <point x="787" y="267"/>
      <point x="776" y="278"/>
      <point x="751" y="278" type="curve" smooth="yes"/>
      <point x="557" y="278" type="line" smooth="yes"/>
      <point x="535" y="278"/>
      <point x="522" y="289"/>
      <point x="522" y="310" type="curve" smooth="yes"/>
      <point x="522" y="410" type="line" smooth="yes"/>
      <point x="522" y="431"/>
      <point x="535" y="442"/>
      <point x="557" y="442" type="curve" smooth="yes"/>
      <point x="751" y="442" type="line" smooth="yes"/>
      <point x="776" y="442"/>
      <point x="787" y="453"/>
      <point x="787" y="478" type="curve" smooth="yes"/>
      <point x="787" y="632" type="line" smooth="yes"/>
      <point x="787" y="657"/>
      <point x="776" y="668"/>
      <point x="751" y="668" type="curve" smooth="yes"/>
      <point x="470" y="668" type="line" smooth="yes"/>
      <point x="405" y="668"/>
      <point x="357" y="636"/>
      <point x="341" y="582" type="curve"/>
      <point x="102" y="647" type="line" smooth="yes"/>
      <point x="79" y="653"/>
      <point x="67" y="645"/>
      <point x="67" y="620" type="curve" smooth="yes"/>
      <point x="67" y="468" type="line" smooth="yes"/>
      <point x="67" y="442"/>
      <point x="77" y="431"/>
      <point x="102" y="425" type="curve" smooth="yes"/>
      <point x="333" y="377" type="line"/>
      <point x="333" y="344" type="line"/>
      <point x="102" y="296" type="line" smooth="yes"/>
      <point x="77" y="290"/>
      <point x="67" y="278"/>
      <point x="67" y="252" type="curve" smooth="yes"/>
      <point x="67" y="101" type="line" smooth="yes"/>
      <point x="67" y="77"/>
      <point x="79" y="69"/>
      <point x="102" y="75" type="curve" smooth="yes"/>
      <point x="341" y="140" type="line"/>
      <point x="356" y="84"/>
      <point x="404" y="51"/>
      <point x="470" y="51" type="curve" smooth="yes"/>
      <point x="751" y="51" type="line"/>
      <point x="776" y="51"/>
      <point x="787" y="62"/>
      <point x="787" y="87" type="curve" smooth="yes"/>
    </contour>
  </outline>
</glyph>
<glyph name="Y" format="1">
  <advance width="842"/>
  <unicode hex="0059"/>
  <outline>
    <contour>
      <point x="644" y="462" type="line"/>
      <point x="418" y="623" type="line" smooth="yes"/>
      <point x="377" y="653"/>
      <point x="347" y="661"/>
      <point x="295" y="661" type="curve" smooth="yes"/>
      <point x="103" y="661" type="line" smooth="yes"/>
      <point x="78" y="661"/>
      <point x="67" y="650"/>
      <point x="67" y="625" type="curve" smooth="yes"/>
      <point x="67" y="476" type="line" smooth="yes"/>
      <point x="67" y="451"/>
      <point x="78" y="440"/>
      <point x="103" y="440" type="curve" smooth="yes"/>
      <point x="267" y="440" type="line" smooth="yes"/>
      <point x="281" y="440"/>
      <point x="295" y="440"/>
      <point x="309" y="431" type="curve" smooth="yes"/>
      <point x="381" y="391" type="line" smooth="yes"/>
      <point x="393" y="384"/>
      <point x="398" y="378"/>
      <point x="398" y="367" type="curve"/>
      <point x="398" y="357" type="line" smooth="yes"/>
      <point x="398" y="346"/>
      <point x="393" y="340"/>
      <point x="381" y="333" type="curve" smooth="yes"/>
      <point x="309" y="294" type="line" smooth="yes"/>
      <point x="295" y="285"/>
      <point x="281" y="285"/>
      <point x="267" y="285" type="curve" smooth="yes"/>
      <point x="103" y="285" type="line" smooth="yes"/>
      <point x="78" y="285"/>
      <point x="67" y="274"/>
      <point x="67" y="249" type="curve" smooth="yes"/>
      <point x="67" y="95" type="line" smooth="yes"/>
      <point x="67" y="70"/>
      <point x="78" y="59"/>
      <point x="103" y="59" type="curve" smooth="yes"/>
      <point x="295" y="59" type="line" smooth="yes"/>
      <point x="347" y="59"/>
      <point x="377" y="66"/>
      <point x="418" y="97" type="curve" smooth="yes"/>
      <point x="644" y="259" type="line"/>
    </contour>
    <contour>
      <point x="787" y="441" type="line" smooth="yes"/>
      <point x="787" y="466"/>
      <point x="776" y="477"/>
      <point x="751" y="477" type="curve" smooth="yes"/>
      <point x="563" y="477" type="line"/>
      <point x="563" y="243" type="line"/>
      <point x="751" y="243" type="line" smooth="yes"/>
      <point x="776" y="243"/>
      <point x="787" y="253"/>
      <point x="787" y="279" type="curve" smooth="yes"/>
    </contour>
  </outline>
</glyph>
<glyph name="underscore" format="1">
  <advance width="734"/>
  <unicode hex="005F"/>
  <outline>
    <contour>
      <point x="106" y="60" type="curve"/>
      <point x="628" y="60" type="line" smooth="yes"/>
      <point x="653" y="60"/>
      <point x="664" y="70"/>
      <point x="664" y="96" type="curve" smooth="yes"/>
      <point x="664" y="230" type="line" smooth="yes"/>
      <point x="664" y="256"/>
      <point x="653" y="266"/>
      <point x="628" y="266" type="curve" smooth="yes"/>
      <point x="106" y="266" type="line" smooth="yes"/>
      <point x="81" y="266"/>
      <point x="70" y="255"/>
      <point x="70" y="230" type="curve" smooth="yes"/>
      <point x="70" y="96" type="line" smooth="yes"/>
      <point x="70" y="70"/>
      <point x="81" y="60"/>
    </contour>
  </outline>
</glyph>
<glyph name="grave" format="1">
  <advance width="262.0"/>
  <unicode hex="0060"/>
  <outline>
    <contour>
      <point x="235.0" y="535.0" type="line" smooth="yes"/>
      <point x="238.0" y="558.0"/>
      <point x="225.0" y="569.0"/>
      <point x="202.0" y="569.0" type="curve" smooth="yes"/>
      <point x="106.0" y="569.0" type="line" smooth="yes"/>
      <point x="81.0" y="569.0"/>
      <point x="73.0" y="558.0"/>
      <point x="70.0" y="533.0" type="curve" smooth="yes"/>
      <point x="27.0" y="184.0" type="line" smooth="yes"/>
      <point x="24.0" y="161.0"/>
      <point x="37.0" y="150.0"/>
      <point x="60.0" y="150.0" type="curve" smooth="yes"/>
      <point x="156.0" y="150.0" type="line" smooth="yes"/>
      <point x="181.0" y="150.0"/>
      <point x="189.0" y="161.0"/>
      <point x="192.0" y="186.0" type="curve" smooth="yes"/>
    </contour>
  </outline>
</glyph>
<glyph name="asciitilde" format="1">
  <advance width="362.839328906"/>
  <unicode hex="007E"/>
  <outline>
    <contour>
      <point x="273.919664453" y="360" type="line"/>
      <point x="276.919664453" y="383" type="line" smooth="yes"/>
      <point x="293.919664453" y="496"/>
      <point x="300.919664453" y="517"/>
      <point x="264.919664453" y="620" type="curve" smooth="yes"/>
      <point x="257.919664453" y="638"/>
      <point x="246.919664453" y="657"/>
      <point x="211.919664453" y="657" type="curve" smooth="yes"/>
      <point x="112.919664453" y="657" type="line" smooth="yes"/>
      <point x="82.9196644532" y="657"/>
      <point x="71.9196644532" y="640"/>
      <point x="81.9196644532" y="605" type="curve" smooth="yes"/>
      <point x="106.919664453" y="522"/>
      <point x="110.919664453" y="516"/>
      <point x="92.9196644532" y="391" type="curve" smooth="yes"/>
      <point x="88.9196644532" y="360" type="line"/>
      <point x="85.9196644532" y="336" type="line" smooth="yes"/>
      <point x="68.9196644532" y="222"/>
      <point x="61.9196644532" y="203"/>
      <point x="97.9196644532" y="100" type="curve" smooth="yes"/>
      <point x="104.919664453" y="80"/>
      <point x="115.919664453" y="63"/>
      <point x="150.919664453" y="63" type="curve" smooth="yes"/>
      <point x="256.919664453" y="63" type="line" smooth="yes"/>
      <point x="279.919664453" y="63"/>
      <point x="290.919664453" y="80"/>
      <point x="281.919664453" y="114" type="curve"/>
      <point x="258.919664453" y="189"/>
      <point x="252.919664453" y="212"/>
      <point x="268.919664453" y="320" type="curve"/>
    </contour>
  </outline>
</glyph>
<glyph name="exclamdown" format="1">
  <advance width="830"/>
  <unicode hex="00A1"/>
  <outline>
    <contour>
      <point x="55" y="268" type="line"/>
      <point x="55" y="243"/>
      <point x="66" y="232"/>
      <point x="91" y="232" type="curve" smooth="yes"/>
      <point x="222" y="232" type="line" smooth="yes"/>
      <point x="248" y="232"/>
      <point x="258" y="243"/>
      <point x="258" y="268" type="curve" smooth="yes"/>
      <point x="258" y="452" type="line" smooth="yes"/>
      <point x="258" y="477"/>
      <point x="248" y="488"/>
      <point x="222" y="488" type="curve" smooth="yes"/>
      <point x="91" y="488" type="line" smooth="yes"/>
      <point x="66" y="488"/>
      <point x="55" y="477"/>
      <point x="55" y="452" type="curve" smooth="yes"/>
    </contour>
    <contour>
      <point x="317" y="282" type="line"/>
      <point x="317" y="257"/>
      <point x="328" y="246"/>
      <point x="353" y="245" type="curve" smooth="yes"/>
      <point x="739" y="230" type="line" smooth="yes"/>
      <point x="764" y="229"/>
      <point x="775" y="239"/>
      <point x="775" y="264" type="curve" smooth="yes"/>
      <point x="775" y="455" type="line" smooth="yes"/>
      <point x="775" y="480"/>
      <point x="764" y="490"/>
      <point x="739" y="489" type="curve" smooth="yes"/>
      <point x="353" y="475" type="line" smooth="yes"/>
      <point x="328" y="474"/>
      <point x="317" y="462"/>
      <point x="317" y="437" type="curve" smooth="yes"/>
    </contour>
  </outline>
</glyph>
<glyph name="currency" format="1">
  <advance width="884.0"/>
  <unicode hex="00A4"/>
  <outline>
    <contour>
      <point x="381.0" y="545" type="line"/>
      <point x="215.0" y="711" type="line"/>
      <point x="199.0" y="729"/>
      <point x="185.0" y="730"/>
      <point x="167.0" y="711" type="curve" smooth="yes"/>
      <point x="91.0" y="635" type="line" smooth="yes"/>
      <point x="72.0" y="617"/>
      <point x="73.0" y="603"/>
      <point x="91.0" y="587" type="curve"/>
      <point x="244.0" y="434" type="line"/>
    </contour>
    <contour>
      <point x="530.0" y="147" type="line"/>
      <point x="669.0" y="8" type="line" smooth="yes"/>
      <point x="685.0" y="-9"/>
      <point x="700.0" y="-9"/>
      <point x="718.0" y="8" type="curve" smooth="yes"/>
      <point x="794.0" y="84" type="line" smooth="yes"/>
      <point x="812.0" y="103"/>
      <point x="811.0" y="117"/>
      <point x="794.0" y="133" type="curve" smooth="yes"/>
      <point x="656.0" y="271" type="line"/>
    </contour>
    <contour>
      <point x="657.0" y="450" type="line"/>
      <point x="794.0" y="587" type="line" smooth="yes"/>
      <point x="811.0" y="603"/>
      <point x="812.0" y="617"/>
      <point x="794.0" y="635" type="curve" smooth="yes"/>
      <point x="718.0" y="711" type="line" smooth="yes"/>
      <point x="699.0" y="730"/>
      <point x="685.0" y="729"/>
      <point x="669.0" y="711" type="curve"/>
      <point x="518.0" y="560" type="line"/>
    </contour>
    <contour>
      <point x="241.0" y="283" type="line"/>
      <point x="91.0" y="133" type="line"/>
      <point x="73.0" y="117"/>
      <point x="73.0" y="102"/>
      <point x="91.0" y="84" type="curve" smooth="yes"/>
      <point x="167.0" y="8" type="line" smooth="yes"/>
      <point x="185.0" y="-10"/>
      <point x="199.0" y="-9"/>
      <point x="215.0" y="8" type="curve" smooth="yes"/>
      <point x="369.0" y="162" type="line"/>
    </contour>
    <contour>
      <point x="542.0" y="623" type="curve"/>
      <point x="343.0" y="623" type="line" smooth="yes"/>
      <point x="233.0" y="623"/>
      <point x="158.0" y="573"/>
      <point x="158.0" y="362" type="curve" smooth="yes"/>
      <point x="158.0" y="151"/>
      <point x="233.0" y="100"/>
      <point x="343.0" y="100" type="curve" smooth="yes"/>
      <point x="542.0" y="100" type="line" smooth="yes"/>
      <point x="652.0" y="100"/>
      <point x="726.0" y="151"/>
      <point x="726.0" y="362" type="curve" smooth="yes"/>
      <point x="726.0" y="573"/>
      <point x="652.0" y="623"/>
    </contour>
    <contour>
      <point x="513.0" y="282" type="curve"/>
      <point x="372.0" y="282" type="line" smooth="yes"/>
      <point x="347.0" y="282"/>
      <point x="328.0" y="294"/>
      <point x="328.0" y="362" type="curve" smooth="yes"/>
      <point x="328.0" y="431"/>
      <point x="347.0" y="442"/>
      <point x="372.0" y="442" type="curve" smooth="yes"/>
      <point x="513.0" y="442" type="line" smooth="yes"/>
      <point x="539.0" y="442"/>
      <point x="558.0" y="431"/>
      <point x="558.0" y="362" type="curve" smooth="yes"/>
      <point x="558.0" y="294"/>
      <point x="539.0" y="282"/>
    </contour>
  </outline>
</glyph>
<glyph name="copyright" format="1">
  <advance width="1026"/>
  <unicode hex="00A9"/>
  <outline>
    <contour>
      <point x="724" y="634" type="line"/>
      <point x="810" y="634"/>
      <point x="869" y="581"/>
      <point x="869" y="361" type="curve" smooth="yes"/>
      <point x="869" y="141"/>
      <point x="810" y="87"/>
      <point x="724" y="87" type="curve"/>
      <point x="306" y="87" type="line"/>
      <point x="219" y="87"/>
      <point x="159" y="141"/>
      <point x="159" y="361" type="curve" smooth="yes"/>
      <point x="159" y="581"/>
      <point x="219" y="634"/>
      <point x="306" y="634" type="curve"/>
    </contour>
    <contour>
      <point x="764" y="515" type="line" smooth="yes"/>
      <point x="764" y="533"/>
      <point x="756" y="541"/>
      <point x="738" y="541" type="curve" smooth="yes"/>
      <point x="652" y="541" type="line" smooth="yes"/>
      <point x="635" y="541"/>
      <point x="627" y="533"/>
      <point x="627" y="515" type="curve" smooth="yes"/>
      <point x="627" y="371" type="line" smooth="yes"/>
      <point x="627" y="334"/>
      <point x="612" y="327"/>
      <point x="592" y="327" type="curve" smooth="yes"/>
      <point x="422" y="327" type="line" smooth="yes"/>
      <point x="403" y="327"/>
      <point x="386" y="334"/>
      <point x="386" y="371" type="curve" smooth="yes"/>
      <point x="386" y="515" type="line" smooth="yes"/>
      <point x="386" y="533"/>
      <point x="378" y="541"/>
      <point x="360" y="541" type="curve" smooth="yes"/>
      <point x="273" y="541" type="line" smooth="yes"/>
      <point x="255" y="541"/>
      <point x="248" y="533"/>
      <point x="248" y="515" type="curve" smooth="yes"/>
      <point x="248" y="340" type="line" smooth="yes"/>
      <point x="248" y="205"/>
      <point x="307" y="164"/>
      <point x="394" y="164" type="curve" smooth="yes"/>
      <point x="617" y="164" type="line" smooth="yes"/>
      <point x="704" y="164"/>
      <point x="764" y="205"/>
      <point x="764" y="340" type="curve" smooth="yes"/>
    </contour>
    <contour>
      <point x="720" y="734" type="curve" smooth="yes"/>
      <point x="310" y="734" type="line" smooth="yes"/>
      <point x="163" y="734"/>
      <point x="62" y="662"/>
      <point x="62" y="361" type="curve" smooth="yes"/>
      <point x="62" y="61"/>
      <point x="163" y="-14"/>
      <point x="310" y="-14" type="curve" smooth="yes"/>
      <point x="720" y="-14" type="line" smooth="yes"/>
      <point x="866" y="-14"/>
      <point x="965" y="61"/>
      <point x="965" y="361" type="curve" smooth="yes"/>
      <point x="965" y="662"/>
      <point x="866" y="734"/>
    </contour>
  </outline>
</glyph>
<glyph name="ordfeminine" format="1">
  <advance width="880"/>
  <unicode hex="00AA"/>
  <outline>
    <contour>
      <point x="598" y="269" type="line" smooth="yes"/>
      <point x="598" y="290"/>
      <point x="588" y="299"/>
      <point x="568" y="299" type="curve" smooth="yes"/>
      <point x="364" y="299" type="line"/>
      <point x="232" y="343" type="line" smooth="yes"/>
      <point x="227" y="344"/>
      <point x="222" y="347"/>
      <point x="222" y="351" type="curve" smooth="yes"/>
      <point x="222" y="364" type="line" smooth="yes"/>
      <point x="222" y="367"/>
      <point x="227" y="371"/>
      <point x="232" y="373" type="curve" smooth="yes"/>
      <point x="364" y="416" type="line"/>
      <point x="568" y="416" type="line" smooth="yes"/>
      <point x="588" y="416"/>
      <point x="598" y="426"/>
      <point x="598" y="446" type="curve" smooth="yes"/>
      <point x="598" y="554" type="line" smooth="yes"/>
      <point x="598" y="576"/>
      <point x="588" y="584"/>
      <point x="568" y="584" type="curve" smooth="yes"/>
      <point x="389" y="584" type="line" smooth="yes"/>
      <point x="349" y="584"/>
      <point x="312" y="575"/>
      <point x="281" y="564" type="curve" smooth="yes"/>
      <point x="112" y="502" type="line"/>
      <point x="89" y="492"/>
      <point x="80" y="481"/>
      <point x="80" y="455" type="curve" smooth="yes"/>
      <point x="80" y="266" type="line" smooth="yes"/>
      <point x="80" y="239"/>
      <point x="89" y="228"/>
      <point x="112" y="218" type="curve"/>
      <point x="166" y="199"/>
      <point x="226" y="176"/>
      <point x="281" y="157" type="curve"/>
      <point x="312" y="145"/>
      <point x="349" y="136"/>
      <point x="389" y="136" type="curve" smooth="yes"/>
      <point x="568" y="136" type="line" smooth="yes"/>
      <point x="588" y="136"/>
      <point x="598" y="146"/>
      <point x="598" y="166" type="curve" smooth="yes"/>
    </contour>
    <contour>
      <point x="473" y="454" type="line"/>
      <point x="337" y="454" type="line"/>
      <point x="337" y="262" type="line"/>
      <point x="473" y="262" type="line"/>
    </contour>
    <contour>
      <point x="800" y="172" type="curve"/>
      <point x="800" y="548" type="line" smooth="yes"/>
      <point x="800" y="573"/>
      <point x="790" y="584"/>
      <point x="764" y="584" type="curve" smooth="yes"/>
      <point x="697" y="584" type="line" smooth="yes"/>
      <point x="671" y="584"/>
      <point x="661" y="573"/>
      <point x="661" y="548" type="curve" smooth="yes"/>
      <point x="661" y="172" type="line" smooth="yes"/>
      <point x="661" y="147"/>
      <point x="672" y="136"/>
      <point x="697" y="136" type="curve" smooth="yes"/>
      <point x="764" y="136" type="line" smooth="yes"/>
      <point x="790" y="136"/>
      <point x="800" y="147"/>
    </contour>
  </outline>
</glyph>
<glyph name="guillemotleft" format="1">
  <advance width="812"/>
  <unicode hex="00AB"/>
  <outline>
    <contour>
      <point x="356.0" y="106.0" type="line" smooth="yes"/>
      <point x="380.0" y="99.0"/>
      <point x="392.0" y="113.0"/>
      <point x="392.0" y="137.0" type="curve" smooth="yes"/>
      <point x="392.0" y="254.0" type="line" smooth="yes"/>
      <point x="392.0" y="280.0"/>
      <point x="380.0" y="296.0"/>
      <point x="356.0" y="303.0" type="curve" smooth="yes"/>
      <point x="261.0" y="330.0" type="line" smooth="yes"/>
      <point x="247.0" y="335.0"/>
      <point x="244.0" y="337.0"/>
      <point x="244.0" y="349.0" type="curve" smooth="yes"/>
      <point x="244.0" y="361.0"/>
      <point x="248.0" y="363.0"/>
      <point x="261.0" y="368.0" type="curve" smooth="yes"/>
      <point x="356.0" y="396.0" type="line" smooth="yes"/>
      <point x="379.0" y="405.0"/>
      <point x="392.0" y="419.0"/>
      <point x="392.0" y="445.0" type="curve" smooth="yes"/>
      <point x="392.0" y="562.0" type="line" smooth="yes"/>
      <point x="392.0" y="588.0"/>
      <point x="377.0" y="599.0"/>
      <point x="356.0" y="593.0" type="curve" smooth="yes"/>
      <point x="177.0" y="541.0" type="line" smooth="yes"/>
      <point x="94.0" y="516.0"/>
      <point x="50.0" y="485.0"/>
      <point x="50.0" y="386.0" type="curve" smooth="yes"/>
      <point x="50.0" y="312.0" type="line" smooth="yes"/>
      <point x="50.0" y="213.0"/>
      <point x="94.0" y="181.0"/>
      <point x="177.0" y="157.0" type="curve" smooth="yes"/>
    </contour>
    <contour>
      <point x="716.0" y="109.0" type="line" smooth="yes"/>
      <point x="740.0" y="102.0"/>
      <point x="752.0" y="116.0"/>
      <point x="752.0" y="140.0" type="curve" smooth="yes"/>
      <point x="752.0" y="254.0" type="line" smooth="yes"/>
      <point x="752.0" y="280.0"/>
      <point x="740.0" y="296.0"/>
      <point x="716.0" y="303.0" type="curve" smooth="yes"/>
      <point x="621.0" y="330.0" type="line"/>
      <point x="607.0" y="335.0"/>
      <point x="604.0" y="337.0"/>
      <point x="604.0" y="349.0" type="curve" smooth="yes"/>
      <point x="604.0" y="361.0"/>
      <point x="608.0" y="363.0"/>
      <point x="621.0" y="368.0" type="curve"/>
      <point x="716.0" y="396.0" type="line"/>
      <point x="739.0" y="405.0"/>
      <point x="752.0" y="419.0"/>
      <point x="752.0" y="445.0" type="curve" smooth="yes"/>
      <point x="752.0" y="559.0" type="line" smooth="yes"/>
      <point x="752.0" y="582.0"/>
      <point x="739.0" y="597.0"/>
      <point x="716.0" y="590.0" type="curve" smooth="yes"/>
      <point x="547.0" y="541.0" type="line" smooth="yes"/>
      <point x="463.0" y="517.0"/>
      <point x="420.0" y="485.0"/>
      <point x="420.0" y="386.0" type="curve" smooth="yes"/>
      <point x="420.0" y="312.0" type="line" smooth="yes"/>
      <point x="420.0" y="213.0"/>
      <point x="464.0" y="181.0"/>
      <point x="547.0" y="157.0" type="curve" smooth="yes"/>
    </contour>
  </outline>
</glyph>
<glyph name="logicalnot" format="1">
  <advance width="574"/>
  <unicode hex="00AC"/>
  <outline>
    <contour>
      <point x="258" y="99" type="curve"/>
      <point x="258" y="462" type="line"/>
      <point x="466" y="462" type="line" smooth="yes"/>
      <point x="491" y="462"/>
      <point x="502" y="472"/>
      <point x="502" y="498" type="curve" smooth="yes"/>
      <point x="502" y="621" type="line" smooth="yes"/>
      <point x="502" y="647"/>
      <point x="491" y="657"/>
      <point x="466" y="657" type="curve" smooth="yes"/>
      <point x="108" y="657" type="line" smooth="yes"/>
      <point x="82" y="657"/>
      <point x="72" y="646"/>
      <point x="72" y="621" type="curve" smooth="yes"/>
      <point x="72" y="99" type="line" smooth="yes"/>
      <point x="72" y="74"/>
      <point x="83" y="63"/>
      <point x="108" y="63" type="curve" smooth="yes"/>
      <point x="222" y="63" type="line" smooth="yes"/>
      <point x="248" y="63"/>
      <point x="258" y="74"/>
    </contour>
  </outline>
</glyph>
<glyph name="registered" format="1">
  <advance width="666"/>
  <unicode hex="00AE"/>
  <outline>
    <contour>
      <point x="457" y="584" type="curve" smooth="yes"/>
      <point x="211" y="584" type="line" smooth="yes"/>
      <point x="122" y="584"/>
      <point x="62" y="541"/>
      <point x="62" y="360" type="curve" smooth="yes"/>
      <point x="62" y="180"/>
      <point x="122" y="136"/>
      <point x="211" y="136" type="curve" smooth="yes"/>
      <point x="457" y="136" type="line" smooth="yes"/>
      <point x="544" y="136"/>
      <point x="604" y="180"/>
      <point x="604" y="360" type="curve" smooth="yes"/>
      <point x="604" y="541"/>
      <point x="544" y="584"/>
    </contour>
    <contour>
      <point x="476" y="314" type="line" smooth="yes"/>
      <point x="476" y="324"/>
      <point x="471" y="328"/>
      <point x="461" y="328" type="curve" smooth="yes"/>
      <point x="378" y="328" type="line"/>
      <point x="378" y="386" type="line" smooth="yes"/>
      <point x="378" y="397"/>
      <point x="383" y="401"/>
      <point x="395" y="401" type="curve" smooth="yes"/>
      <point x="461" y="401" type="line" smooth="yes"/>
      <point x="471" y="401"/>
      <point x="476" y="406"/>
      <point x="476" y="416" type="curve" smooth="yes"/>
      <point x="476" y="480" type="line" smooth="yes"/>
      <point x="476" y="490"/>
      <point x="471" y="494"/>
      <point x="461" y="494" type="curve" smooth="yes"/>
      <point x="374" y="494" type="line" smooth="yes"/>
      <point x="340" y="494"/>
      <point x="318" y="474"/>
      <point x="314" y="444" type="curve"/>
      <point x="307" y="462"/>
      <point x="291" y="468"/>
      <point x="268" y="468" type="curve" smooth="yes"/>
      <point x="249" y="468" type="line" smooth="yes"/>
      <point x="208" y="468"/>
      <point x="181" y="449"/>
      <point x="181" y="387" type="curve" smooth="yes"/>
      <point x="181" y="251" type="line" smooth="yes"/>
      <point x="181" y="240"/>
      <point x="185" y="236"/>
      <point x="196" y="236" type="curve"/>
      <point x="461" y="236" type="line"/>
      <point x="471" y="236"/>
      <point x="476" y="240"/>
      <point x="476" y="251" type="curve" smooth="yes"/>
    </contour>
    <contour>
      <point x="459" y="524" type="line"/>
      <point x="511" y="524"/>
      <point x="546" y="492"/>
      <point x="546" y="360" type="curve" smooth="yes"/>
      <point x="546" y="228"/>
      <point x="511" y="196"/>
      <point x="459" y="196" type="curve"/>
      <point x="208" y="196" type="line"/>
      <point x="156" y="196"/>
      <point x="120" y="228"/>
      <point x="120" y="360" type="curve" smooth="yes"/>
      <point x="120" y="492"/>
      <point x="156" y="524"/>
      <point x="208" y="524" type="curve"/>
    </contour>
    <contour>
      <point x="254" y="328" type="line"/>
      <point x="254" y="359" type="line" smooth="yes"/>
      <point x="254" y="374"/>
      <point x="263" y="377"/>
      <point x="274" y="377" type="curve" smooth="yes"/>
      <point x="287" y="377" type="line" smooth="yes"/>
      <point x="299" y="377"/>
      <point x="307" y="374"/>
      <point x="307" y="359" type="curve" smooth="yes"/>
      <point x="307" y="328" type="line"/>
    </contour>
  </outline>
</glyph>
<glyph name="macron" format="1">
  <advance width="249.0"/>
  <unicode hex="00AF"/>
  <unicode hex="0304"/>
  <outline>
    <contour>
      <point x="207.0" y="533" type="line" smooth="yes"/>
      <point x="207.0" y="558"/>
      <point x="196.0" y="569"/>
      <point x="171.0" y="569" type="curve" smooth="yes"/>
      <point x="78.0" y="569" type="line" smooth="yes"/>
      <point x="53.0" y="569"/>
      <point x="42.0" y="558"/>
      <point x="42.0" y="533" type="curve" smooth="yes"/>
      <point x="42.0" y="186" type="line" smooth="yes"/>
      <point x="42.0" y="161"/>
      <point x="53.0" y="150"/>
      <point x="78.0" y="150" type="curve" smooth="yes"/>
      <point x="171.0" y="150" type="line" smooth="yes"/>
      <point x="196.0" y="150"/>
      <point x="207.0" y="161"/>
      <point x="207.0" y="186" type="curve" smooth="yes"/>
    </contour>
  </outline>
</glyph>
<glyph name="two.sups" format="1">
  <advance width="670"/>
  <unicode hex="00B2"/>
  <outline>
    <contour>
      <point x="590.0" y="522.0" type="line"/>
      <point x="590.0" y="543.0"/>
      <point x="580.0" y="551.0"/>
      <point x="560.0" y="551.0" type="curve"/>
      <point x="477.0" y="551.0" type="line"/>
      <point x="457.0" y="551.0"/>
      <point x="447.0" y="543.0"/>
      <point x="447.0" y="522.0" type="curve"/>
      <point x="447.0" y="325.0" type="line"/>
      <point x="437.0" y="325.0" type="line"/>
      <point x="427.0" y="325.0"/>
      <point x="424.0" y="330.0"/>
      <point x="421.0" y="340.0" type="curve"/>
      <point x="390.0" y="439.0" type="line"/>
      <point x="368.0" y="508.0"/>
      <point x="336.0" y="551.0"/>
      <point x="261.0" y="551.0" type="curve"/>
      <point x="202.0" y="551.0" type="line"/>
      <point x="122.0" y="551.0"/>
      <point x="71.0" y="499.0"/>
      <point x="71.0" y="416.0" type="curve"/>
      <point x="71.0" y="211.0" type="line"/>
      <point x="71.0" y="190.0"/>
      <point x="81.0" y="180.0"/>
      <point x="102.0" y="180.0" type="curve"/>
      <point x="186.0" y="180.0" type="line"/>
      <point x="207.0" y="180.0"/>
      <point x="216.0" y="190.0"/>
      <point x="216.0" y="211.0" type="curve"/>
      <point x="216.0" y="368.0" type="line"/>
      <point x="216.0" y="377.0"/>
      <point x="218.0" y="383.0"/>
      <point x="230.0" y="383.0" type="curve" smooth="yes"/>
      <point x="244.0" y="383.0"/>
      <point x="247.0" y="379.0"/>
      <point x="251.0" y="366.0" type="curve"/>
      <point x="251.0" y="367.0" type="line"/>
      <point x="280.0" y="270.0" type="line"/>
      <point x="301.0" y="204.0"/>
      <point x="326.0" y="156.0"/>
      <point x="438.0" y="156.0" type="curve"/>
      <point x="561.0" y="156.0" type="line"/>
      <point x="581.0" y="156.0"/>
      <point x="590.0" y="166.0"/>
      <point x="590.0" y="186.0" type="curve"/>
    </contour>
  </outline>
</glyph>
<glyph name="three.sups" format="1">
  <advance width="652"/>
  <unicode hex="00B3"/>
  <outline>
    <contour>
      <point x="437" y="194" type="line"/>
      <point x="437" y="174"/>
      <point x="447" y="164"/>
      <point x="467" y="164" type="curve"/>
      <point x="550" y="164" type="line"/>
      <point x="570" y="164"/>
      <point x="580" y="174"/>
      <point x="580" y="194" type="curve"/>
      <point x="580" y="417" type="line"/>
      <point x="580" y="510"/>
      <point x="534" y="559"/>
      <point x="471" y="559" type="curve"/>
      <point x="394" y="559" type="line"/>
      <point x="331" y="559"/>
      <point x="292" y="526"/>
      <point x="283" y="479" type="curve"/>
      <point x="267" y="503"/>
      <point x="242" y="511"/>
      <point x="209" y="511" type="curve"/>
      <point x="175" y="511" type="line"/>
      <point x="110" y="511"/>
      <point x="62" y="471"/>
      <point x="62" y="371" type="curve"/>
      <point x="62" y="194" type="line"/>
      <point x="62" y="174"/>
      <point x="72" y="164"/>
      <point x="93" y="164" type="curve"/>
      <point x="175" y="164" type="line"/>
      <point x="195" y="164"/>
      <point x="204" y="174"/>
      <point x="204" y="194" type="curve"/>
      <point x="204" y="325" type="line"/>
      <point x="204" y="344"/>
      <point x="212" y="348"/>
      <point x="221" y="348" type="curve"/>
      <point x="234" y="348" type="line"/>
      <point x="242" y="348"/>
      <point x="250" y="344"/>
      <point x="250" y="325" type="curve"/>
      <point x="250" y="252" type="line"/>
      <point x="250" y="231"/>
      <point x="260" y="222"/>
      <point x="281" y="222" type="curve"/>
      <point x="355" y="222" type="line"/>
      <point x="376" y="222"/>
      <point x="385" y="231"/>
      <point x="385" y="252" type="curve"/>
      <point x="385" y="371" type="line"/>
      <point x="385" y="390"/>
      <point x="392" y="394"/>
      <point x="401" y="394" type="curve"/>
      <point x="421" y="394" type="line"/>
      <point x="429" y="394"/>
      <point x="437" y="390"/>
      <point x="437" y="371" type="curve"/>
    </contour>
  </outline>
</glyph>
<glyph name="mu" format="1">
  <advance width="794"/>
  <unicode hex="00B5"/>
  <unicode hex="03BC"/>
  <outline>
    <contour>
      <point x="448" y="658" type="curve" smooth="yes"/>
      <point x="103" y="658" type="line" smooth="yes"/>
      <point x="78" y="658"/>
      <point x="67" y="647"/>
      <point x="67" y="622" type="curve" smooth="yes"/>
      <point x="67" y="470" type="line" smooth="yes"/>
      <point x="67" y="444"/>
      <point x="78" y="434"/>
      <point x="103" y="434" type="curve" smooth="yes"/>
      <point x="419" y="434" type="line" smooth="yes"/>
      <point x="446" y="434"/>
      <point x="466" y="423"/>
      <point x="466" y="361" type="curve" smooth="yes"/>
      <point x="466" y="300"/>
      <point x="446" y="289"/>
      <point x="419" y="289" type="curve" smooth="yes"/>
      <point x="103" y="289" type="line"/>
      <point x="103" y="140" type="line"/>
      <point x="448" y="140" type="line" smooth="yes"/>
      <point x="570" y="140"/>
      <point x="652" y="187"/>
      <point x="652" y="379" type="curve" smooth="yes"/>
      <point x="652" y="603"/>
      <point x="570" y="658"/>
    </contour>
    <contour>
      <point x="727" y="253" type="line" smooth="yes"/>
      <point x="727" y="278"/>
      <point x="716" y="289"/>
      <point x="691" y="289" type="curve" smooth="yes"/>
      <point x="103" y="289" type="line" smooth="yes"/>
      <point x="78" y="289"/>
      <point x="67" y="278"/>
      <point x="67" y="253" type="curve" smooth="yes"/>
      <point x="67" y="98" type="line" smooth="yes"/>
      <point x="67" y="73"/>
      <point x="78" y="62"/>
      <point x="103" y="62" type="curve" smooth="yes"/>
      <point x="691" y="62" type="line" smooth="yes"/>
      <point x="716" y="62"/>
      <point x="727" y="73"/>
      <point x="727" y="98" type="curve" smooth="yes"/>
    </contour>
  </outline>
</glyph>
<glyph name="cedilla" format="1">
  <advance width="301.0"/>
  <unicode hex="00B8"/>
  <outline>
    <contour>
      <point x="274.0" y="374" type="line"/>
      <point x="274.0" y="400"/>
      <point x="265.0" y="413"/>
      <point x="244.0" y="420" type="curve" smooth="yes"/>
      <point x="67.0" y="483" type="line" smooth="yes"/>
      <point x="48.0" y="490"/>
      <point x="35.0" y="485"/>
      <point x="27.0" y="463" type="curve" smooth="yes"/>
      <point x="-16.0" y="347" type="line" smooth="yes"/>
      <point x="-25.0" y="323"/>
      <point x="-18.0" y="311"/>
      <point x="4.0" y="303" type="curve" smooth="yes"/>
      <point x="234.0" y="218" type="line" smooth="yes"/>
      <point x="258.0" y="209"/>
      <point x="274.0" y="214"/>
      <point x="274.0" y="248" type="curve" smooth="yes"/>
    </contour>
  </outline>
</glyph>
<glyph name="one.sups" format="1">
  <advance width="660"/>
  <unicode hex="00B9"/>
  <outline>
    <contour>
      <point x="580.0" y="531.0" type="line"/>
      <point x="580.0" y="552.0"/>
      <point x="570.0" y="561.0"/>
      <point x="550.0" y="561.0" type="curve"/>
      <point x="464.0" y="561.0" type="line"/>
      <point x="443.0" y="561.0"/>
      <point x="435.0" y="552.0"/>
      <point x="435.0" y="531.0" type="curve"/>
      <point x="435.0" y="458.0" type="line"/>
      <point x="93.0" y="458.0" type="line"/>
      <point x="72.0" y="458.0"/>
      <point x="62.0" y="448.0"/>
      <point x="62.0" y="427.0" type="curve"/>
      <point x="62.0" y="213.0" type="line"/>
      <point x="62.0" y="192.0"/>
      <point x="72.0" y="182.0"/>
      <point x="93.0" y="182.0" type="curve"/>
      <point x="178.0" y="182.0" type="line"/>
      <point x="199.0" y="182.0"/>
      <point x="207.0" y="192.0"/>
      <point x="207.0" y="213.0" type="curve"/>
      <point x="207.0" y="283.0" type="line"/>
      <point x="435.0" y="283.0" type="line"/>
      <point x="435.0" y="199.0" type="line"/>
      <point x="435.0" y="179.0"/>
      <point x="443.0" y="169.0"/>
      <point x="464.0" y="169.0" type="curve"/>
      <point x="550.0" y="169.0" type="line"/>
      <point x="570.0" y="169.0"/>
      <point x="580.0" y="179.0"/>
      <point x="580.0" y="199.0" type="curve"/>
    </contour>
  </outline>
</glyph>
<glyph name="guillemotright" format="1">
  <advance width="812"/>
  <unicode hex="00BB"/>
  <outline>
    <contour>
      <point x="456.0" y="106.0" type="curve" smooth="yes"/>
      <point x="635.0" y="157.0" type="line" smooth="yes"/>
      <point x="718.0" y="181.0"/>
      <point x="762.0" y="213.0"/>
      <point x="762.0" y="312.0" type="curve" smooth="yes"/>
      <point x="762.0" y="386.0" type="line" smooth="yes"/>
      <point x="762.0" y="485.0"/>
      <point x="718.0" y="517.0"/>
      <point x="635.0" y="541.0" type="curve" smooth="yes"/>
      <point x="456.0" y="593.0" type="line" smooth="yes"/>
      <point x="432.0" y="600.0"/>
      <point x="420.0" y="588.0"/>
      <point x="420.0" y="562.0" type="curve" smooth="yes"/>
      <point x="420.0" y="445.0" type="line" smooth="yes"/>
      <point x="420.0" y="419.0"/>
      <point x="433.0" y="405.0"/>
      <point x="456.0" y="396.0" type="curve"/>
      <point x="551.0" y="368.0" type="line"/>
      <point x="564.0" y="363.0"/>
      <point x="568.0" y="361.0"/>
      <point x="568.0" y="349.0" type="curve" smooth="yes"/>
      <point x="568.0" y="337.0"/>
      <point x="565.0" y="335.0"/>
      <point x="551.0" y="330.0" type="curve"/>
      <point x="456.0" y="303.0" type="line" smooth="yes"/>
      <point x="432.0" y="296.0"/>
      <point x="420.0" y="280.0"/>
      <point x="420.0" y="254.0" type="curve" smooth="yes"/>
      <point x="420.0" y="137.0" type="line" smooth="yes"/>
      <point x="420.0" y="111.0"/>
      <point x="432.0" y="99.0"/>
    </contour>
    <contour>
      <point x="265.0" y="157.0" type="line"/>
      <point x="348.0" y="181.0"/>
      <point x="392.0" y="213.0"/>
      <point x="392.0" y="312.0" type="curve" smooth="yes"/>
      <point x="392.0" y="386.0" type="line" smooth="yes"/>
      <point x="392.0" y="485.0"/>
      <point x="349.0" y="517.0"/>
      <point x="265.0" y="541.0" type="curve"/>
      <point x="96.0" y="590.0" type="line"/>
      <point x="72.0" y="598.0"/>
      <point x="60.0" y="585.0"/>
      <point x="60.0" y="559.0" type="curve" smooth="yes"/>
      <point x="60.0" y="445.0" type="line" smooth="yes"/>
      <point x="60.0" y="419.0"/>
      <point x="73.0" y="405.0"/>
      <point x="96.0" y="396.0" type="curve"/>
      <point x="191.0" y="368.0" type="line" smooth="yes"/>
      <point x="204.0" y="364.0"/>
      <point x="208.0" y="361.0"/>
      <point x="208.0" y="349.0" type="curve" smooth="yes"/>
      <point x="208.0" y="337.0"/>
      <point x="205.0" y="334.0"/>
      <point x="191.0" y="330.0" type="curve" smooth="yes"/>
      <point x="96.0" y="303.0" type="line" smooth="yes"/>
      <point x="72.0" y="296.0"/>
      <point x="60.0" y="280.0"/>
      <point x="60.0" y="254.0" type="curve" smooth="yes"/>
      <point x="60.0" y="140.0" type="line" smooth="yes"/>
      <point x="60.0" y="114.0"/>
      <point x="72.0" y="102.0"/>
      <point x="96.0" y="109.0" type="curve" smooth="yes"/>
    </contour>
  </outline>
</glyph>
<glyph name="questiondown" format="1">
  <advance width="847.0"/>
  <unicode hex="00BF"/>
  <outline>
    <contour>
      <point x="328.0" y="232.0" type="line" smooth="yes"/>
      <point x="341.0" y="137.0"/>
      <point x="382.0" y="77.0"/>
      <point x="494.0" y="77.0" type="curve" smooth="yes"/>
      <point x="599.0" y="77.0" type="line" smooth="yes"/>
      <point x="713.0" y="77.0"/>
      <point x="775.0" y="154.0"/>
      <point x="775.0" y="284.0" type="curve" smooth="yes"/>
      <point x="775.0" y="607.0" type="line" smooth="yes"/>
      <point x="775.0" y="632.0"/>
      <point x="764.0" y="643.0"/>
      <point x="739.0" y="643.0" type="curve"/>
      <point x="618.0" y="643.0" type="line" smooth="yes"/>
      <point x="592.0" y="643.0"/>
      <point x="582.0" y="632.0"/>
      <point x="582.0" y="607.0" type="curve" smooth="yes"/>
      <point x="582.0" y="331.0" type="line" smooth="yes"/>
      <point x="582.0" y="314.0"/>
      <point x="573.0" y="304.0"/>
      <point x="554.0" y="304.0" type="curve" smooth="yes"/>
      <point x="534.0" y="304.0"/>
      <point x="526.0" y="311.0"/>
      <point x="523.0" y="331.0" type="curve" smooth="yes"/>
      <point x="495.0" y="530.0" type="line" smooth="yes"/>
      <point x="492.0" y="555.0"/>
      <point x="480.0" y="567.0"/>
      <point x="454.0" y="563.0" type="curve" smooth="yes"/>
      <point x="322.0" y="542.0" type="line" smooth="yes"/>
      <point x="297.0" y="538.0"/>
      <point x="288.0" y="528.0"/>
      <point x="291.0" y="503.0" type="curve" smooth="yes"/>
    </contour>
    <contour>
      <point x="55.0" y="344.0" type="line" smooth="yes"/>
      <point x="55.0" y="319.0"/>
      <point x="66.0" y="308.0"/>
      <point x="91.0" y="308.0" type="curve" smooth="yes"/>
      <point x="222.0" y="308.0" type="line" smooth="yes"/>
      <point x="248.0" y="308.0"/>
      <point x="258.0" y="319.0"/>
      <point x="258.0" y="344.0" type="curve" smooth="yes"/>
      <point x="258.0" y="527.0" type="line" smooth="yes"/>
      <point x="258.0" y="553.0"/>
      <point x="248.0" y="563.0"/>
      <point x="222.0" y="563.0" type="curve" smooth="yes"/>
      <point x="91.0" y="563.0" type="line" smooth="yes"/>
      <point x="66.0" y="563.0"/>
      <point x="55.0" y="553.0"/>
      <point x="55.0" y="527.0" type="curve" smooth="yes"/>
    </contour>
  </outline>
</glyph>
<glyph name="multiply" format="1">
  <advance width="691.755065718"/>
  <unicode hex="00D7"/>
  <outline>
    <contour>
      <point x="206.877532859" y="90" type="curve"/>
      <point x="615.877532859" y="499" type="line" smooth="yes"/>
      <point x="633.877532859" y="516"/>
      <point x="634.877532859" y="531"/>
      <point x="615.877532859" y="550" type="curve" smooth="yes"/>
      <point x="535.877532859" y="630" type="line" smooth="yes"/>
      <point x="516.877532859" y="649"/>
      <point x="501.877532859" y="648"/>
      <point x="484.877532859" y="630" type="curve" smooth="yes"/>
      <point x="75.8775328591" y="221" type="line" smooth="yes"/>
      <point x="57.8775328591" y="204"/>
      <point x="57.8775328591" y="188"/>
      <point x="75.8775328591" y="170" type="curve" smooth="yes"/>
      <point x="155.877532859" y="90" type="line" smooth="yes"/>
      <point x="174.877532859" y="71"/>
      <point x="189.877532859" y="72"/>
    </contour>
    <contour>
      <point x="75.8775328591" y="499" type="curve"/>
      <point x="484.877532859" y="90" type="line" smooth="yes"/>
      <point x="501.877532859" y="72"/>
      <point x="516.877532859" y="71"/>
      <point x="535.877532859" y="90" type="curve" smooth="yes"/>
      <point x="615.877532859" y="170" type="line" smooth="yes"/>
      <point x="634.877532859" y="189"/>
      <point x="633.877532859" y="204"/>
      <point x="615.877532859" y="221" type="curve" smooth="yes"/>
      <point x="206.877532859" y="630" type="line" smooth="yes"/>
      <point x="189.877532859" y="648"/>
      <point x="173.877532859" y="648"/>
      <point x="155.877532859" y="630" type="curve" smooth="yes"/>
      <point x="75.8775328591" y="550" type="line" smooth="yes"/>
      <point x="56.8775328591" y="531"/>
      <point x="57.8775328591" y="516"/>
    </contour>
  </outline>
</glyph>
<glyph name="Thorn" format="1">
  <advance width="850.0"/>
  <unicode hex="00DE"/>
  <outline>
    <contour>
      <point x="785.0" y="251" type="line" smooth="yes"/>
      <point x="785.0" y="276"/>
      <point x="774.0" y="287"/>
      <point x="749.0" y="287" type="curve" smooth="yes"/>
      <point x="680.0" y="287" type="line"/>
      <point x="680.0" y="426" type="line" smooth="yes"/>
      <point x="680.0" y="608"/>
      <point x="601.0" y="662"/>
      <point x="485.0" y="662" type="curve" smooth="yes"/>
      <point x="363.0" y="662" type="line" smooth="yes"/>
      <point x="247.0" y="662"/>
      <point x="168.0" y="608"/>
      <point x="168.0" y="426" type="curve" smooth="yes"/>
      <point x="168.0" y="287" type="line"/>
      <point x="101.0" y="287" type="line" smooth="yes"/>
      <point x="76.0" y="287"/>
      <point x="65.0" y="276"/>
      <point x="65.0" y="251" type="curve" smooth="yes"/>
      <point x="65.0" y="96" type="line" smooth="yes"/>
      <point x="65.0" y="71"/>
      <point x="76.0" y="60"/>
      <point x="101.0" y="60" type="curve" smooth="yes"/>
      <point x="749.0" y="60" type="line" smooth="yes"/>
      <point x="774.0" y="60"/>
      <point x="785.0" y="71"/>
      <point x="785.0" y="96" type="curve" smooth="yes"/>
    </contour>
    <contour>
      <point x="355.0" y="285" type="line"/>
      <point x="355.0" y="399" type="line" smooth="yes"/>
      <point x="355.0" y="438"/>
      <point x="378.0" y="446"/>
      <point x="404.0" y="446" type="curve" smooth="yes"/>
      <point x="451.0" y="446" type="line" smooth="yes"/>
      <point x="477.0" y="446"/>
      <point x="500.0" y="438"/>
      <point x="500.0" y="399" type="curve" smooth="yes"/>
      <point x="500.0" y="285" type="line"/>
    </contour>
  </outline>
</glyph>
<glyph name="divide" format="1">
  <advance width="738"/>
  <unicode hex="00F7"/>
  <outline>
    <contour>
      <point x="286" y="621" type="curve"/>
      <point x="286" y="99" type="line" smooth="yes"/>
      <point x="286" y="74"/>
      <point x="296" y="63"/>
      <point x="322" y="63" type="curve" smooth="yes"/>
      <point x="416" y="63" type="line" smooth="yes"/>
      <point x="442" y="63"/>
      <point x="452" y="74"/>
      <point x="452" y="99" type="curve" smooth="yes"/>
      <point x="452" y="621" type="line" smooth="yes"/>
      <point x="452" y="646"/>
      <point x="441" y="657"/>
      <point x="416" y="657" type="curve" smooth="yes"/>
      <point x="322" y="657" type="line" smooth="yes"/>
      <point x="296" y="657"/>
      <point x="286" y="646"/>
    </contour>
    <contour>
      <point x="492" y="279" type="line" smooth="yes"/>
      <point x="492" y="254"/>
      <point x="503" y="243"/>
      <point x="528" y="243" type="curve" smooth="yes"/>
      <point x="651" y="243" type="line" smooth="yes"/>
      <point x="677" y="243"/>
      <point x="687" y="254"/>
      <point x="687" y="279" type="curve" smooth="yes"/>
      <point x="687" y="441" type="line" smooth="yes"/>
      <point x="687" y="466"/>
      <point x="677" y="477"/>
      <point x="651" y="477" type="curve"/>
      <point x="528" y="477" type="line"/>
      <point x="503" y="477"/>
      <point x="492" y="466"/>
      <point x="492" y="441" type="curve" smooth="yes"/>
    </contour>
    <contour>
      <point x="51" y="279" type="line" smooth="yes"/>
      <point x="51" y="254"/>
      <point x="62" y="243"/>
      <point x="87" y="243" type="curve" smooth="yes"/>
      <point x="210" y="243" type="line" smooth="yes"/>
      <point x="236" y="243"/>
      <point x="246" y="254"/>
      <point x="246" y="279" type="curve" smooth="yes"/>
      <point x="246" y="441" type="line" smooth="yes"/>
      <point x="246" y="466"/>
      <point x="236" y="477"/>
      <point x="210" y="477" type="curve" smooth="yes"/>
      <point x="87" y="477" type="line" smooth="yes"/>
      <point x="62" y="477"/>
      <point x="51" y="466"/>
      <point x="51" y="441" type="curve" smooth="yes"/>
    </contour>
  </outline>
</glyph>
<glyph name="Hbar" format="1">
  <advance width="880"/>
  <unicode hex="0126"/>
  <outline>
    <contour>
      <point x="800" y="247" type="line" smooth="yes"/>
      <point x="800" y="272"/>
      <point x="789" y="283"/>
      <point x="764" y="283" type="curve" smooth="yes"/>
      <point x="652" y="283" type="line"/>
      <point x="652" y="436" type="line"/>
      <point x="764" y="436" type="line" smooth="yes"/>
      <point x="789" y="436"/>
      <point x="800" y="447"/>
      <point x="800" y="472" type="curve" smooth="yes"/>
      <point x="800" y="624" type="line" smooth="yes"/>
      <point x="800" y="649"/>
      <point x="789" y="660"/>
      <point x="764" y="660" type="curve" smooth="yes"/>
      <point x="116" y="660" type="line" smooth="yes"/>
      <point x="91" y="660"/>
      <point x="80" y="649"/>
      <point x="80" y="624" type="curve" smooth="yes"/>
      <point x="80" y="472" type="line" smooth="yes"/>
      <point x="80" y="447"/>
      <point x="91" y="436"/>
      <point x="116" y="436" type="curve" smooth="yes"/>
      <point x="453" y="436" type="line"/>
      <point x="453" y="283" type="line"/>
      <point x="116" y="283" type="line" smooth="yes"/>
      <point x="91" y="283"/>
      <point x="80" y="272"/>
      <point x="80" y="247" type="curve" smooth="yes"/>
      <point x="80" y="95" type="line" smooth="yes"/>
      <point x="80" y="70"/>
      <point x="91" y="59"/>
      <point x="116" y="59" type="curve" smooth="yes"/>
      <point x="764" y="59" type="line" smooth="yes"/>
      <point x="789" y="59"/>
      <point x="800" y="70"/>
      <point x="800" y="95" type="curve" smooth="yes"/>
    </contour>
    <contour>
      <point x="375" y="46" type="curve"/>
      <point x="375" y="673" type="line" smooth="yes"/>
      <point x="375" y="698"/>
      <point x="365" y="709"/>
      <point x="339" y="709" type="curve" smooth="yes"/>
      <point x="242" y="709" type="line" smooth="yes"/>
      <point x="216" y="709"/>
      <point x="206" y="698"/>
      <point x="206" y="673" type="curve" smooth="yes"/>
      <point x="206" y="46" type="line" smooth="yes"/>
      <point x="206" y="21"/>
      <point x="217" y="10"/>
      <point x="242" y="10" type="curve" smooth="yes"/>
      <point x="339" y="10" type="line" smooth="yes"/>
      <point x="365" y="10"/>
      <point x="375" y="21"/>
    </contour>
  </outline>
</glyph>
<glyph name="IJ" format="1">
  <advance width="859.0"/>
  <unicode hex="0132"/>
  <outline>
    <contour>
      <point x="751.0" y="60.0" type="line" smooth="yes"/>
      <point x="776.0" y="60.0"/>
      <point x="787.0" y="71.0"/>
      <point x="787.0" y="96.0" type="curve"/>
      <point x="787.0" y="447.0" type="line" smooth="yes"/>
      <point x="787.0" y="579.0"/>
      <point x="709.0" y="660"/>
      <point x="577.0" y="660" type="curve" smooth="yes"/>
      <point x="103.0" y="660.0" type="line" smooth="yes"/>
      <point x="78.0" y="660"/>
      <point x="67.0" y="649.0"/>
      <point x="67.0" y="624.0" type="curve" smooth="yes"/>
      <point x="67.0" y="469.0" type="line" smooth="yes"/>
      <point x="67.0" y="444.0"/>
      <point x="78.0" y="433.0"/>
      <point x="103.0" y="433.0" type="curve" smooth="yes"/>
      <point x="527.0" y="433" type="line" smooth="yes"/>
      <point x="575.0" y="433"/>
      <point x="594.0" y="408"/>
      <point x="594.0" y="360" type="curve" smooth="yes"/>
      <point x="594.0" y="96" type="line" smooth="yes"/>
      <point x="594.0" y="71"/>
      <point x="605.0" y="60"/>
      <point x="630.0" y="60" type="curve" smooth="yes"/>
    </contour>
    <contour>
      <point x="437" y="251" type="line" smooth="yes"/>
      <point x="437" y="276"/>
      <point x="426" y="287"/>
      <point x="401" y="287" type="curve" smooth="yes"/>
      <point x="103.0" y="287.0" type="line" smooth="yes"/>
      <point x="78.0" y="287.0"/>
      <point x="67.0" y="276.0"/>
      <point x="67.0" y="251.0" type="curve" smooth="yes"/>
      <point x="67.0" y="96.0" type="line" smooth="yes"/>
      <point x="67.0" y="71.0"/>
      <point x="78.0" y="60.0"/>
      <point x="103.0" y="60.0" type="curve" smooth="yes"/>
      <point x="401" y="60" type="line" smooth="yes"/>
      <point x="426" y="60"/>
      <point x="437" y="71"/>
      <point x="437" y="96" type="curve" smooth="yes"/>
    </contour>
  </outline>
</glyph>
<glyph name="Lslash" format="1">
  <advance width="815"/>
  <unicode hex="0141"/>
  <outline>
    <contour>
      <point x="349" y="27" type="curve" smooth="yes"/>
      <point x="456" y="27" type="line" smooth="yes"/>
      <point x="482" y="27"/>
      <point x="496" y="38"/>
      <point x="492" y="63" type="curve" smooth="yes"/>
      <point x="442" y="371" type="line" smooth="yes"/>
      <point x="438" y="396"/>
      <point x="432" y="407"/>
      <point x="406" y="407" type="curve" smooth="yes"/>
      <point x="299" y="407" type="line" smooth="yes"/>
      <point x="273" y="407"/>
      <point x="259" y="396"/>
      <point x="263" y="371" type="curve" smooth="yes"/>
      <point x="313" y="63" type="line" smooth="yes"/>
      <point x="317" y="38"/>
      <point x="324" y="27"/>
    </contour>
    <component base="L.s"/>
  </outline>
</glyph>
<glyph name="Eng" format="1">
  <advance width="929.0"/>
  <unicode hex="014A"/>
  <outline>
    <contour>
      <point x="271" y="60" type="curve" smooth="yes"/>
      <point x="746" y="60" type="line" smooth="yes"/>
      <point x="771" y="60"/>
      <point x="782" y="71"/>
      <point x="782" y="96" type="curve" smooth="yes"/>
      <point x="782" y="248" type="line" smooth="yes"/>
      <point x="782" y="274"/>
      <point x="771" y="284"/>
      <point x="746" y="284" type="curve" smooth="yes"/>
      <point x="310" y="284" type="line" smooth="yes"/>
      <point x="283" y="284"/>
      <point x="263" y="296"/>
      <point x="263" y="358" type="curve" smooth="yes"/>
      <point x="263" y="419"/>
      <point x="283" y="431"/>
      <point x="310" y="431" type="curve" smooth="yes"/>
      <point x="633" y="431" type="line" smooth="yes"/>
      <point x="661" y="431"/>
      <point x="681" y="425"/>
      <point x="681" y="390" type="curve" smooth="yes"/>
      <point x="681" y="369" type="line" smooth="yes"/>
      <point x="681" y="344"/>
      <point x="692" y="333"/>
      <point x="717" y="333" type="curve" smooth="yes"/>
      <point x="836" y="333" type="line" smooth="yes"/>
      <point x="861" y="333"/>
      <point x="872" y="344"/>
      <point x="872" y="369" type="curve" smooth="yes"/>
      <point x="872" y="414" type="line" smooth="yes"/>
      <point x="872" y="603"/>
      <point x="789" y="660"/>
      <point x="668" y="660" type="curve"/>
      <point x="271" y="660" type="line" smooth="yes"/>
      <point x="149" y="660"/>
      <point x="67" y="599"/>
      <point x="67" y="360" type="curve" smooth="yes"/>
      <point x="67" y="121"/>
      <point x="149" y="60"/>
    </contour>
  </outline>
</glyph>
<glyph name="OE" format="1">
  <advance width="880"/>
  <unicode hex="0152"/>
  <outline>
    <contour>
      <point x="800" y="473" type="line"/>
      <point x="800" y="498"/>
      <point x="789" y="509"/>
      <point x="764" y="509" type="curve"/>
      <point x="116" y="509" type="line"/>
      <point x="91" y="509"/>
      <point x="80" y="498"/>
      <point x="80" y="473" type="curve" smooth="yes"/>
      <point x="80" y="285" type="line" smooth="yes"/>
      <point x="80" y="96"/>
      <point x="163" y="39"/>
      <point x="284" y="39" type="curve" smooth="yes"/>
      <point x="596" y="39" type="line" smooth="yes"/>
      <point x="717" y="39"/>
      <point x="800" y="96"/>
      <point x="800" y="285" type="curve" smooth="yes"/>
    </contour>
    <contour>
      <point x="611" y="340" type="line"/>
      <point x="611" y="289" type="line" smooth="yes"/>
      <point x="611" y="249"/>
      <point x="589" y="242"/>
      <point x="562" y="242" type="curve" smooth="yes"/>
      <point x="319" y="242" type="line" smooth="yes"/>
      <point x="293" y="242"/>
      <point x="271" y="249"/>
      <point x="271" y="289" type="curve" smooth="yes"/>
      <point x="271" y="340" type="line"/>
    </contour>
    <contour>
      <point x="800.0" y="645.0" type="line" smooth="yes"/>
      <point x="800.0" y="670.0"/>
      <point x="789.0" y="681.0"/>
      <point x="764.0" y="681.0" type="curve" smooth="yes"/>
      <point x="647.0" y="681.0" type="line" smooth="yes"/>
      <point x="622.0" y="681.0"/>
      <point x="611.0" y="670.0"/>
      <point x="611.0" y="645.0" type="curve" smooth="yes"/>
      <point x="611" y="542" type="line"/>
      <point x="525" y="542" type="line"/>
      <point x="525.0" y="644.0" type="line" smooth="yes"/>
      <point x="525.0" y="669.0"/>
      <point x="514.0" y="680.0"/>
      <point x="489.0" y="680.0" type="curve" smooth="yes"/>
      <point x="382.0" y="680.0" type="line" smooth="yes"/>
      <point x="356.0" y="680.0"/>
      <point x="346.0" y="669.0"/>
      <point x="346.0" y="644.0" type="curve" smooth="yes"/>
      <point x="346" y="542" type="line"/>
      <point x="269" y="542" type="line"/>
      <point x="269.0" y="645.0" type="line" smooth="yes"/>
      <point x="269.0" y="670.0"/>
      <point x="258.0" y="681.0"/>
      <point x="233.0" y="681.0" type="curve" smooth="yes"/>
      <point x="116.0" y="681.0" type="line" smooth="yes"/>
      <point x="91.0" y="681.0"/>
      <point x="80.0" y="670.0"/>
      <point x="80.0" y="645.0" type="curve" smooth="yes"/>
      <point x="80" y="384" type="line" smooth="yes"/>
      <point x="80" y="359"/>
      <point x="91" y="340"/>
      <point x="116" y="340" type="curve"/>
      <point x="764" y="340" type="line"/>
      <point x="789" y="340"/>
      <point x="800" y="351"/>
      <point x="800" y="376" type="curve" smooth="yes"/>
    </contour>
  </outline>
</glyph>
<glyph name="Tcommaaccent" format="1">
  <advance width="1001.0"/>
  <unicode hex="0162"/>
  <unicode hex="021A"/>
  <outline>
    <contour>
      <point x="680" y="444" type="line" smooth="yes"/>
      <point x="680" y="469"/>
      <point x="669" y="480"/>
      <point x="644" y="480" type="curve" smooth="yes"/>
      <point x="273" y="480" type="line"/>
      <point x="273" y="624" type="line" smooth="yes"/>
      <point x="273" y="649"/>
      <point x="262" y="660"/>
      <point x="237" y="660" type="curve" smooth="yes"/>
      <point x="116" y="660" type="line" smooth="yes"/>
      <point x="91" y="660"/>
      <point x="80" y="649"/>
      <point x="80" y="624" type="curve" smooth="yes"/>
      <point x="80" y="96" type="line" smooth="yes"/>
      <point x="80" y="71"/>
      <point x="91" y="60"/>
      <point x="116" y="60" type="curve" smooth="yes"/>
      <point x="237" y="60" type="line" smooth="yes"/>
      <point x="262" y="60"/>
      <point x="273" y="71"/>
      <point x="273" y="96" type="curve" smooth="yes"/>
      <point x="273" y="240" type="line"/>
      <point x="644" y="240" type="line" smooth="yes"/>
      <point x="669" y="240"/>
      <point x="680" y="251"/>
      <point x="680" y="276" type="curve" smooth="yes"/>
    </contour>
    <component base="commaaccent" xOffset="693"/>
  </outline>
</glyph>
<glyph name="Tbar" format="1">
  <advance width="815.0"/>
  <unicode hex="0166"/>
  <outline>
    <contour>
      <point x="580.0" y="553" type="line" smooth="yes"/>
      <point x="580.0" y="578"/>
      <point x="569.0" y="589"/>
      <point x="544.0" y="589" type="curve" smooth="yes"/>
      <point x="437.0" y="589" type="line" smooth="yes"/>
      <point x="412.0" y="589"/>
      <point x="401.0" y="578"/>
      <point x="401.0" y="553" type="curve" smooth="yes"/>
      <point x="401.0" y="166" type="line" smooth="yes"/>
      <point x="401.0" y="141"/>
      <point x="412.0" y="130"/>
      <point x="437.0" y="130" type="curve" smooth="yes"/>
      <point x="544.0" y="130" type="line" smooth="yes"/>
      <point x="569.0" y="130"/>
      <point x="580.0" y="141"/>
      <point x="580.0" y="166" type="curve" smooth="yes"/>
    </contour>
    <component base="T.s"/>
  </outline>
</glyph>
<glyph name="caron" format="1">
  <advance width="268.963921733"/>
  <unicode hex="02C7"/>
  <outline>
    <contour>
      <point x="71.963921733" y="391" type="line"/>
      <point x="77.963921733" y="368"/>
      <point x="77.963921733" y="352"/>
      <point x="71.963921733" y="329" type="curve"/>
      <point x="31.963921733" y="192" type="line" smooth="yes"/>
      <point x="20.963921733" y="157"/>
      <point x="26.963921733" y="150"/>
      <point x="62.963921733" y="150" type="curve" smooth="yes"/>
      <point x="143.963921733" y="150" type="line" smooth="yes"/>
      <point x="179.963921733" y="150"/>
      <point x="183.963921733" y="158"/>
      <point x="196.963921733" y="192" type="curve" smooth="yes"/>
      <point x="246.963921733" y="329" type="line" smooth="yes"/>
      <point x="250.963921733" y="339"/>
      <point x="251.963921733" y="349"/>
      <point x="251.963921733" y="361" type="curve" smooth="yes"/>
      <point x="250.963921733" y="373"/>
      <point x="247.963921733" y="388"/>
      <point x="242.963921733" y="400" type="curve" smooth="yes"/>
      <point x="196.963921733" y="528" type="line" smooth="yes"/>
      <point x="183.963921733" y="560"/>
      <point x="179.963921733" y="569"/>
      <point x="143.963921733" y="569" type="curve" smooth="yes"/>
      <point x="62.963921733" y="569" type="line" smooth="yes"/>
      <point x="26.963921733" y="569"/>
      <point x="20.963921733" y="562"/>
      <point x="31.963921733" y="528" type="curve" smooth="yes"/>
    </contour>
  </outline>
</glyph>
<glyph name="breve" format="1">
  <advance width="267.0"/>
  <unicode hex="02D8"/>
  <outline>
    <contour>
      <point x="107.0" y="577" type="curve"/>
      <point x="63.0" y="577" type="line" smooth="yes"/>
      <point x="38.0" y="577"/>
      <point x="27.0" y="566"/>
      <point x="27.0" y="541" type="curve"/>
      <point x="27.0" y="450" type="line" smooth="yes"/>
      <point x="27.0" y="427"/>
      <point x="34.0" y="420"/>
      <point x="58.0" y="420" type="curve" smooth="yes"/>
      <point x="79.0" y="420" type="line" smooth="yes"/>
      <point x="98.0" y="420"/>
      <point x="112.0" y="411"/>
      <point x="112.0" y="361" type="curve" smooth="yes"/>
      <point x="112.0" y="312"/>
      <point x="98.0" y="304"/>
      <point x="79.0" y="304" type="curve" smooth="yes"/>
      <point x="58.0" y="304" type="line" smooth="yes"/>
      <point x="34.0" y="304"/>
      <point x="27.0" y="296"/>
      <point x="27.0" y="275" type="curve" smooth="yes"/>
      <point x="27.0" y="179" type="line" smooth="yes"/>
      <point x="27.0" y="154"/>
      <point x="38.0" y="143"/>
      <point x="63.0" y="143" type="curve" smooth="yes"/>
      <point x="107.0" y="143" type="line" smooth="yes"/>
      <point x="192.0" y="143"/>
      <point x="250.0" y="186"/>
      <point x="250.0" y="360" type="curve" smooth="yes"/>
      <point x="250.0" y="534"/>
      <point x="192.0" y="577"/>
    </contour>
  </outline>
</glyph>
<glyph name="dotaccent" format="1">
  <advance width="233"/>
  <unicode hex="02D9"/>
  <outline>
    <contour>
      <point x="216" y="440" type="line" smooth="yes"/>
      <point x="216" y="465"/>
      <point x="205" y="476"/>
      <point x="180" y="476" type="curve" smooth="yes"/>
      <point x="53" y="476" type="line" smooth="yes"/>
      <point x="28" y="476"/>
      <point x="17" y="465"/>
      <point x="17" y="440" type="curve"/>
      <point x="17" y="282" type="line" smooth="yes"/>
      <point x="17" y="257"/>
      <point x="28" y="246"/>
      <point x="53" y="246" type="curve" smooth="yes"/>
      <point x="180" y="246" type="line" smooth="yes"/>
      <point x="205" y="246"/>
      <point x="216" y="257"/>
      <point x="216" y="282" type="curve" smooth="yes"/>
    </contour>
  </outline>
</glyph>
<glyph name="ogonek" format="1">
  <advance width="287.0"/>
  <unicode hex="02DB"/>
  <outline>
    <contour>
      <point x="17.0" y="427.0" type="line"/>
      <point x="17.0" y="264.0" type="line"/>
      <point x="135.0" y="243.0" type="line" smooth="yes"/>
      <point x="228.0" y="229.0"/>
      <point x="270.0" y="258.0"/>
      <point x="270.0" y="344.0" type="curve" smooth="yes"/>
      <point x="270.0" y="452.0" type="line" smooth="yes"/>
      <point x="270.0" y="482.0"/>
      <point x="264.0" y="488.0"/>
      <point x="233.0" y="488.0" type="curve" smooth="yes"/>
      <point x="157.0" y="488.0" type="line" smooth="yes"/>
      <point x="126.0" y="488.0"/>
      <point x="120.0" y="482.0"/>
      <point x="120.0" y="449.0" type="curve" smooth="yes"/>
      <point x="120.0" y="411.0" type="line"/>
    </contour>
  </outline>
</glyph>
<glyph name="tilde" format="1">
  <advance width="262.304751111"/>
  <unicode hex="02DC"/>
  <outline>
    <contour>
      <point x="214.152375556" y="359" type="line"/>
      <point x="216.152375556" y="375" type="line" smooth="yes"/>
      <point x="228.152375556" y="455"/>
      <point x="230.152375556" y="469"/>
      <point x="211.152375556" y="532" type="curve"/>
      <point x="202.152375556" y="555"/>
      <point x="195.152375556" y="568"/>
      <point x="170.152375556" y="568" type="curve" smooth="yes"/>
      <point x="69.1523755557" y="568" type="line" smooth="yes"/>
      <point x="44.1523755557" y="568"/>
      <point x="36.1523755557" y="556"/>
      <point x="43.1523755557" y="532" type="curve" smooth="yes"/>
      <point x="61.1523755557" y="473"/>
      <point x="64.1523755557" y="469"/>
      <point x="51.1523755557" y="381" type="curve" smooth="yes"/>
      <point x="48.1523755557" y="359" type="line"/>
      <point x="46.1523755557" y="342" type="line" smooth="yes"/>
      <point x="34.1523755557" y="262"/>
      <point x="32.1523755557" y="249"/>
      <point x="51.1523755557" y="186" type="curve"/>
      <point x="60.1523755557" y="163"/>
      <point x="67.1523755557" y="150"/>
      <point x="92.1523755557" y="150" type="curve" smooth="yes"/>
      <point x="193.152375556" y="150" type="line" smooth="yes"/>
      <point x="218.152375556" y="150"/>
      <point x="226.152375556" y="162"/>
      <point x="219.152375556" y="186" type="curve" smooth="yes"/>
      <point x="203.152375556" y="239"/>
      <point x="199.152375556" y="255"/>
      <point x="210.152375556" y="331" type="curve" smooth="yes"/>
    </contour>
  </outline>
</glyph>
<glyph name="hungarumlaut" format="1">
  <advance width="351.0"/>
  <unicode hex="02DD"/>
  <outline>
    <contour>
      <point x="280.0" y="105" type="line" smooth="yes"/>
      <point x="302.0" y="99"/>
      <point x="314.0" y="115"/>
      <point x="314.0" y="138" type="curve" smooth="yes"/>
      <point x="314.0" y="244" type="line" smooth="yes"/>
      <point x="314.0" y="269"/>
      <point x="302.0" y="274"/>
      <point x="278.0" y="280" type="curve" smooth="yes"/>
      <point x="71.0" y="333" type="line" smooth="yes"/>
      <point x="49.0" y="339"/>
      <point x="37.0" y="323"/>
      <point x="37.0" y="300" type="curve" smooth="yes"/>
      <point x="37.0" y="194" type="line" smooth="yes"/>
      <point x="37.0" y="169"/>
      <point x="49.0" y="164"/>
      <point x="73.0" y="158" type="curve" smooth="yes"/>
    </contour>
    <contour>
      <point x="280.0" y="365" type="line"/>
      <point x="303.0" y="362"/>
      <point x="314.0" y="375"/>
      <point x="314.0" y="398" type="curve" smooth="yes"/>
      <point x="314.0" y="504" type="line" smooth="yes"/>
      <point x="314.0" y="529"/>
      <point x="303.0" y="537"/>
      <point x="278.0" y="540" type="curve"/>
      <point x="71.0" y="593" type="line"/>
      <point x="48.0" y="596"/>
      <point x="37.0" y="583"/>
      <point x="37.0" y="560" type="curve" smooth="yes"/>
      <point x="37.0" y="454" type="line" smooth="yes"/>
      <point x="37.0" y="429"/>
      <point x="49.0" y="424"/>
      <point x="73.0" y="418" type="curve" smooth="yes"/>
    </contour>
  </outline>
</glyph>
<glyph name="commaaccent" format="1">
  <advance width="308.0"/>
  <unicode hex="0326"/>
  <outline>
    <contour>
      <point x="296.0" y="351" type="line" smooth="yes"/>
      <point x="296.0" y="427"/>
      <point x="254.0" y="476"/>
      <point x="168.0" y="476" type="curve" smooth="yes"/>
      <point x="56" y="476" type="line" smooth="yes"/>
      <point x="26" y="476"/>
      <point x="17" y="467"/>
      <point x="17" y="439" type="curve" smooth="yes"/>
      <point x="17" y="281" type="line" smooth="yes"/>
      <point x="17" y="253"/>
      <point x="26" y="244"/>
      <point x="56" y="244" type="curve" smooth="yes"/>
      <point x="135" y="244" type="line" smooth="yes"/>
      <point x="165" y="244"/>
      <point x="174" y="253"/>
      <point x="174" y="281" type="curve"/>
      <point x="174" y="367" type="line"/>
      <point x="187" y="367" type="line" smooth="yes"/>
      <point x="202" y="367"/>
      <point x="211" y="359"/>
      <point x="211" y="344" type="curve" smooth="yes"/>
      <point x="211" y="285" type="line" smooth="yes"/>
      <point x="211" y="264"/>
      <point x="220" y="255"/>
      <point x="241" y="255" type="curve" smooth="yes"/>
      <point x="265.0" y="255" type="line" smooth="yes"/>
      <point x="287.0" y="255"/>
      <point x="296.0" y="264"/>
      <point x="296.0" y="285" type="curve" smooth="yes"/>
    </contour>
  </outline>
</glyph>
<glyph name="pi" format="1">
  <advance width="717"/>
  <unicode hex="03C0"/>
  <outline>
    <contour>
      <point x="650" y="623" type="line" smooth="yes"/>
      <point x="650" y="648"/>
      <point x="639" y="659"/>
      <point x="614" y="659" type="curve" smooth="yes"/>
      <point x="116" y="659" type="line" smooth="yes"/>
      <point x="91" y="659"/>
      <point x="80" y="648"/>
      <point x="80" y="623" type="curve" smooth="yes"/>
      <point x="80" y="96" type="line" smooth="yes"/>
      <point x="80" y="71"/>
      <point x="91" y="60"/>
      <point x="116" y="60" type="curve" smooth="yes"/>
      <point x="614" y="60" type="line" smooth="yes"/>
      <point x="639" y="60"/>
      <point x="650" y="71"/>
      <point x="650" y="96" type="curve" smooth="yes"/>
      <point x="650" y="251" type="line" smooth="yes"/>
      <point x="650" y="276"/>
      <point x="639" y="287"/>
      <point x="614" y="287" type="curve" smooth="yes"/>
      <point x="269" y="287" type="line"/>
      <point x="269" y="432" type="line"/>
      <point x="614" y="432" type="line" smooth="yes"/>
      <point x="639" y="432"/>
      <point x="650" y="443"/>
      <point x="650" y="468" type="curve" smooth="yes"/>
    </contour>
  </outline>
</glyph>
<glyph name="emdash" format="1">
  <advance width="1134"/>
  <unicode hex="2014"/>
  <outline>
    <contour>
      <point x="106.0" y="257.0" type="curve"/>
      <point x="1028.0" y="257.0" type="line" smooth="yes"/>
      <point x="1053.0" y="257.0"/>
      <point x="1064.0" y="267.0"/>
      <point x="1064.0" y="293.0" type="curve" smooth="yes"/>
      <point x="1064.0" y="427.0" type="line" smooth="yes"/>
      <point x="1064.0" y="453.0"/>
      <point x="1053.0" y="463.0"/>
      <point x="1028.0" y="463.0" type="curve" smooth="yes"/>
      <point x="106.0" y="463.0" type="line" smooth="yes"/>
      <point x="81.0" y="463.0"/>
      <point x="70.0" y="452.0"/>
      <point x="70.0" y="427.0" type="curve" smooth="yes"/>
      <point x="70.0" y="293.0" type="line" smooth="yes"/>
      <point x="70.0" y="267.0"/>
      <point x="81.0" y="257.0"/>
    </contour>
  </outline>
</glyph>
<glyph name="quoteleft" format="1">
  <advance width="499"/>
  <unicode hex="2018"/>
  <outline>
    <contour>
      <point x="52.0" y="371.0" type="line" smooth="yes"/>
      <point x="52.0" y="281.0"/>
      <point x="101.0" y="223.0"/>
      <point x="203.0" y="223.0" type="curve" smooth="yes"/>
      <point x="391.0" y="223.0" type="line" smooth="yes"/>
      <point x="416.0" y="223.0"/>
      <point x="427.0" y="234.0"/>
      <point x="427.0" y="259.0" type="curve" smooth="yes"/>
      <point x="427.0" y="461.0" type="line" smooth="yes"/>
      <point x="427.0" y="486.0"/>
      <point x="416.0" y="497.0"/>
      <point x="391.0" y="497.0" type="curve"/>
      <point x="243.0" y="497.0" type="line"/>
      <point x="218.0" y="497.0"/>
      <point x="207.0" y="486.0"/>
      <point x="207.0" y="461.0" type="curve" smooth="yes"/>
      <point x="207.0" y="352.0" type="line"/>
      <point x="192.0" y="352.0" type="line" smooth="yes"/>
      <point x="174.0" y="352.0"/>
      <point x="164.0" y="361.0"/>
      <point x="164.0" y="379.0" type="curve" smooth="yes"/>
      <point x="164.0" y="448.0" type="line" smooth="yes"/>
      <point x="164.0" y="473.0"/>
      <point x="153.0" y="484.0"/>
      <point x="128.0" y="484.0" type="curve"/>
      <point x="88.0" y="484.0" type="line"/>
      <point x="62.0" y="484.0"/>
      <point x="52.0" y="473.0"/>
      <point x="52.0" y="448.0" type="curve" smooth="yes"/>
    </contour>
  </outline>
</glyph>
<glyph name="quotedblleft" format="1">
  <advance width="507"/>
  <unicode hex="201C"/>
  <outline>
    <contour>
      <point x="52" y="531" type="line" smooth="yes"/>
      <point x="52" y="441"/>
      <point x="101" y="383"/>
      <point x="203" y="383" type="curve" smooth="yes"/>
      <point x="391" y="383" type="line" smooth="yes"/>
      <point x="416" y="383"/>
      <point x="427" y="394"/>
      <point x="427" y="419" type="curve" smooth="yes"/>
      <point x="427" y="621" type="line" smooth="yes"/>
      <point x="427" y="646"/>
      <point x="416" y="657"/>
      <point x="391" y="657" type="curve"/>
      <point x="243" y="657" type="line"/>
      <point x="218" y="657"/>
      <point x="207" y="646"/>
      <point x="207" y="621" type="curve" smooth="yes"/>
      <point x="207" y="512" type="line"/>
      <point x="192" y="512" type="line" smooth="yes"/>
      <point x="174" y="512"/>
      <point x="164" y="521"/>
      <point x="164" y="539" type="curve" smooth="yes"/>
      <point x="164" y="608" type="line" smooth="yes"/>
      <point x="164" y="633"/>
      <point x="153" y="644"/>
      <point x="128" y="644" type="curve"/>
      <point x="88" y="644" type="line"/>
      <point x="62" y="644"/>
      <point x="52" y="633"/>
      <point x="52" y="608" type="curve" smooth="yes"/>
    </contour>
    <contour>
      <point x="52" y="211" type="line" smooth="yes"/>
      <point x="52" y="121"/>
      <point x="101" y="63"/>
      <point x="203" y="63" type="curve" smooth="yes"/>
      <point x="391" y="63" type="line" smooth="yes"/>
      <point x="416" y="63"/>
      <point x="427" y="74"/>
      <point x="427" y="99" type="curve" smooth="yes"/>
      <point x="427" y="301" type="line" smooth="yes"/>
      <point x="427" y="326"/>
      <point x="416" y="337"/>
      <point x="391" y="337" type="curve" smooth="yes"/>
      <point x="243" y="337" type="line" smooth="yes"/>
      <point x="218" y="337"/>
      <point x="207" y="326"/>
      <point x="207" y="301" type="curve" smooth="yes"/>
      <point x="207" y="192" type="line"/>
      <point x="192" y="192" type="line" smooth="yes"/>
      <point x="174" y="192"/>
      <point x="164" y="201"/>
      <point x="164" y="219" type="curve" smooth="yes"/>
      <point x="164" y="288" type="line" smooth="yes"/>
      <point x="164" y="313"/>
      <point x="153" y="324"/>
      <point x="128" y="324" type="curve" smooth="yes"/>
      <point x="88" y="324" type="line" smooth="yes"/>
      <point x="62" y="324"/>
      <point x="52" y="313"/>
      <point x="52" y="288" type="curve" smooth="yes"/>
    </contour>
  </outline>
</glyph>
<glyph name="quotedblright" format="1">
  <advance width="507"/>
  <unicode hex="201D"/>
  <outline>
    <contour>
      <point x="455" y="189" type="line" smooth="yes"/>
      <point x="455" y="279"/>
      <point x="406" y="337"/>
      <point x="304" y="337" type="curve" smooth="yes"/>
      <point x="116" y="337" type="line" smooth="yes"/>
      <point x="91" y="337"/>
      <point x="80" y="326"/>
      <point x="80" y="301" type="curve" smooth="yes"/>
      <point x="80" y="99" type="line" smooth="yes"/>
      <point x="80" y="74"/>
      <point x="91" y="63"/>
      <point x="116" y="63" type="curve"/>
      <point x="264" y="63" type="line"/>
      <point x="289" y="63"/>
      <point x="300" y="74"/>
      <point x="300" y="99" type="curve" smooth="yes"/>
      <point x="300" y="208" type="line"/>
      <point x="315" y="208" type="line" smooth="yes"/>
      <point x="333" y="208"/>
      <point x="343" y="199"/>
      <point x="343" y="181" type="curve" smooth="yes"/>
      <point x="343" y="112" type="line" smooth="yes"/>
      <point x="343" y="87"/>
      <point x="354" y="76"/>
      <point x="379" y="76" type="curve"/>
      <point x="419" y="76" type="line"/>
      <point x="445" y="76"/>
      <point x="455" y="87"/>
      <point x="455" y="112" type="curve" smooth="yes"/>
    </contour>
    <contour>
      <point x="455" y="509" type="line" smooth="yes"/>
      <point x="455" y="599"/>
      <point x="406" y="657"/>
      <point x="304" y="657" type="curve" smooth="yes"/>
      <point x="116" y="657" type="line" smooth="yes"/>
      <point x="91" y="657"/>
      <point x="80" y="646"/>
      <point x="80" y="621" type="curve" smooth="yes"/>
      <point x="80" y="419" type="line" smooth="yes"/>
      <point x="80" y="394"/>
      <point x="91" y="383"/>
      <point x="116" y="383" type="curve" smooth="yes"/>
      <point x="264" y="383" type="line" smooth="yes"/>
      <point x="289" y="383"/>
      <point x="300" y="394"/>
      <point x="300" y="419" type="curve" smooth="yes"/>
      <point x="300" y="528" type="line"/>
      <point x="315" y="528" type="line" smooth="yes"/>
      <point x="333" y="528"/>
      <point x="343" y="519"/>
      <point x="343" y="501" type="curve" smooth="yes"/>
      <point x="343" y="432" type="line" smooth="yes"/>
      <point x="343" y="407"/>
      <point x="354" y="396"/>
      <point x="379" y="396" type="curve" smooth="yes"/>
      <point x="419" y="396" type="line" smooth="yes"/>
      <point x="445" y="396"/>
      <point x="455" y="407"/>
      <point x="455" y="432" type="curve" smooth="yes"/>
    </contour>
  </outline>
</glyph>
<glyph name="daggerdbl" format="1">
  <advance width="884"/>
  <unicode hex="2021"/>
  <outline>
    <contour>
      <point x="822" y="432" type="line" smooth="yes"/>
      <point x="822" y="467"/>
      <point x="816" y="472"/>
      <point x="780" y="469" type="curve" smooth="yes"/>
      <point x="694" y="462" type="line"/>
      <point x="711" y="627" type="line" smooth="yes"/>
      <point x="714" y="662"/>
      <point x="708" y="669"/>
      <point x="673" y="669" type="curve" smooth="yes"/>
      <point x="542" y="669" type="line" smooth="yes"/>
      <point x="507" y="669"/>
      <point x="501" y="662"/>
      <point x="505" y="627" type="curve" smooth="yes"/>
      <point x="521" y="452" type="line"/>
      <point x="454" y="472" type="line" smooth="yes"/>
      <point x="451" y="472"/>
      <point x="447" y="472"/>
      <point x="442" y="472" type="curve" smooth="yes"/>
      <point x="438" y="472"/>
      <point x="434" y="472"/>
      <point x="431" y="472" type="curve" smooth="yes"/>
      <point x="363" y="452" type="line"/>
      <point x="379" y="627" type="line" smooth="yes"/>
      <point x="383" y="662"/>
      <point x="377" y="669"/>
      <point x="342" y="669" type="curve" smooth="yes"/>
      <point x="211" y="669" type="line" smooth="yes"/>
      <point x="177" y="669"/>
      <point x="171" y="662"/>
      <point x="174" y="627" type="curve" smooth="yes"/>
      <point x="190" y="462" type="line"/>
      <point x="104" y="469" type="line" smooth="yes"/>
      <point x="69" y="472"/>
      <point x="62" y="467"/>
      <point x="62" y="432" type="curve" smooth="yes"/>
      <point x="62" y="288" type="line" smooth="yes"/>
      <point x="62" y="253"/>
      <point x="69" y="248"/>
      <point x="104" y="251" type="curve" smooth="yes"/>
      <point x="190" y="258" type="line"/>
      <point x="174" y="93" type="line" smooth="yes"/>
      <point x="171" y="58"/>
      <point x="177" y="51"/>
      <point x="211" y="51" type="curve" smooth="yes"/>
      <point x="342" y="51" type="line" smooth="yes"/>
      <point x="377" y="51"/>
      <point x="383" y="58"/>
      <point x="379" y="93" type="curve" smooth="yes"/>
      <point x="363" y="267" type="line"/>
      <point x="431" y="248" type="line"/>
      <point x="434" y="247"/>
      <point x="438" y="247"/>
      <point x="442" y="247" type="curve" smooth="yes"/>
      <point x="447" y="247"/>
      <point x="451" y="247"/>
      <point x="454" y="248" type="curve"/>
      <point x="521" y="267" type="line"/>
      <point x="505" y="93" type="line" smooth="yes"/>
      <point x="501" y="58"/>
      <point x="507" y="51"/>
      <point x="542" y="51" type="curve" smooth="yes"/>
      <point x="673" y="51" type="line" smooth="yes"/>
      <point x="708" y="51"/>
      <point x="714" y="58"/>
      <point x="711" y="93" type="curve" smooth="yes"/>
      <point x="694" y="258" type="line"/>
      <point x="780" y="251" type="line" smooth="yes"/>
      <point x="816" y="248"/>
      <point x="822" y="253"/>
      <point x="822" y="288" type="curve" smooth="yes"/>
    </contour>
  </outline>
</glyph>
<glyph name="second" format="1">
  <advance width="535"/>
  <unicode hex="2033"/>
  <outline>
    <contour>
      <point x="455" y="267" type="line" smooth="yes"/>
      <point x="455" y="300"/>
      <point x="447" y="306"/>
      <point x="414" y="309" type="curve" smooth="yes"/>
      <point x="121" y="337" type="line" smooth="yes"/>
      <point x="88" y="340"/>
      <point x="80" y="330"/>
      <point x="80" y="298" type="curve" smooth="yes"/>
      <point x="80" y="133" type="line" smooth="yes"/>
      <point x="80" y="100"/>
      <point x="88" y="94"/>
      <point x="121" y="93" type="curve" smooth="yes"/>
      <point x="414" y="81" type="line" smooth="yes"/>
      <point x="447" y="80"/>
      <point x="455" y="90"/>
      <point x="455" y="123" type="curve" smooth="yes"/>
    </contour>
    <contour>
      <point x="455" y="577" type="line" smooth="yes"/>
      <point x="455" y="610"/>
      <point x="447" y="616"/>
      <point x="414" y="619" type="curve" smooth="yes"/>
      <point x="121" y="647" type="line" smooth="yes"/>
      <point x="88" y="650"/>
      <point x="80" y="640"/>
      <point x="80" y="608" type="curve" smooth="yes"/>
      <point x="80" y="443" type="line" smooth="yes"/>
      <point x="80" y="410"/>
      <point x="88" y="404"/>
      <point x="121" y="403" type="curve" smooth="yes"/>
      <point x="414" y="391" type="line" smooth="yes"/>
      <point x="447" y="390"/>
      <point x="455" y="400"/>
      <point x="455" y="433" type="curve" smooth="yes"/>
    </contour>
  </outline>
</glyph>
<glyph name="guilsinglright" format="1">
  <advance width="563"/>
  <unicode hex="203A"/>
  <outline>
    <contour>
      <point x="376.0" y="157.0" type="line"/>
      <point x="461.0" y="174.0"/>
      <point x="503.0" y="213.0"/>
      <point x="503.0" y="312.0" type="curve" smooth="yes"/>
      <point x="503.0" y="386.0" type="line" smooth="yes"/>
      <point x="503.0" y="485.0"/>
      <point x="461.0" y="524.0"/>
      <point x="376.0" y="541.0" type="curve" smooth="yes"/>
      <point x="116.0" y="594.0" type="line" smooth="yes"/>
      <point x="91.0" y="599.0"/>
      <point x="80.0" y="589.0"/>
      <point x="80.0" y="563.0" type="curve" smooth="yes"/>
      <point x="80.0" y="436.0" type="line" smooth="yes"/>
      <point x="80.0" y="410.0"/>
      <point x="91.0" y="399.0"/>
      <point x="116.0" y="395.0" type="curve" smooth="yes"/>
      <point x="282.0" y="368.0" type="line" smooth="yes"/>
      <point x="296.0" y="366.0"/>
      <point x="299.0" y="361.0"/>
      <point x="299.0" y="349.0" type="curve" smooth="yes"/>
      <point x="299.0" y="337.0"/>
      <point x="296.0" y="332.0"/>
      <point x="282.0" y="330.0" type="curve" smooth="yes"/>
      <point x="116.0" y="303.0" type="line" smooth="yes"/>
      <point x="91.0" y="299.0"/>
      <point x="80.0" y="288.0"/>
      <point x="80.0" y="262.0" type="curve" smooth="yes"/>
      <point x="80.0" y="135.0" type="line" smooth="yes"/>
      <point x="80.0" y="109.0"/>
      <point x="91.0" y="99.0"/>
      <point x="116.0" y="104.0" type="curve" smooth="yes"/>
    </contour>
  </outline>
</glyph>
<glyph name="fraction" format="1">
  <advance width="331.0"/>
  <unicode hex="2044"/>
  <unicode hex="2215"/>
  <outline>
    <contour>
      <point x="254" y="624" type="line" smooth="yes"/>
      <point x="254" y="649"/>
      <point x="243" y="660"/>
      <point x="218" y="660" type="curve" smooth="yes"/>
      <point x="113" y="660" type="line" smooth="yes"/>
      <point x="88" y="660"/>
      <point x="77" y="649"/>
      <point x="77" y="624" type="curve" smooth="yes"/>
      <point x="77" y="96" type="line" smooth="yes"/>
      <point x="77" y="71"/>
      <point x="88" y="60"/>
      <point x="113" y="60" type="curve" smooth="yes"/>
      <point x="218" y="60" type="line" smooth="yes"/>
      <point x="243" y="60"/>
      <point x="254" y="71"/>
      <point x="254" y="96" type="curve"/>
    </contour>
  </outline>
</glyph>
<glyph name="zero.sups" format="1">
  <advance width="652.0"/>
  <unicode hex="2070"/>
  <outline>
    <contour>
      <point x="447" y="580" type="curve"/>
      <point x="206" y="580" type="line" smooth="yes"/>
      <point x="117" y="580"/>
      <point x="57" y="537"/>
      <point x="57" y="360" type="curve" smooth="yes"/>
      <point x="57" y="183"/>
      <point x="117" y="140"/>
      <point x="206" y="140" type="curve" smooth="yes"/>
      <point x="447" y="140" type="line" smooth="yes"/>
      <point x="535" y="140"/>
      <point x="595" y="183"/>
      <point x="595" y="360" type="curve" smooth="yes"/>
      <point x="595" y="537"/>
      <point x="535" y="580"/>
    </contour>
    <contour>
      <point x="422" y="308" type="curve"/>
      <point x="232" y="308" type="line" smooth="yes"/>
      <point x="216" y="308"/>
      <point x="203" y="316"/>
      <point x="203" y="360" type="curve" smooth="yes"/>
      <point x="203" y="405"/>
      <point x="216" y="412"/>
      <point x="232" y="412" type="curve" smooth="yes"/>
      <point x="422" y="412" type="line" smooth="yes"/>
      <point x="438" y="412"/>
      <point x="450" y="405"/>
      <point x="450" y="360" type="curve" smooth="yes"/>
      <point x="450" y="316"/>
      <point x="438" y="308"/>
    </contour>
  </outline>
</glyph>
<glyph name="four.sups" format="1">
  <advance width="650"/>
  <unicode hex="2074"/>
  <outline>
    <contour>
      <point x="480" y="400" type="line"/>
      <point x="568" y="400" type="line"/>
      <point x="588" y="400"/>
      <point x="598" y="410"/>
      <point x="598" y="430" type="curve"/>
      <point x="598" y="538" type="line"/>
      <point x="598" y="559"/>
      <point x="588" y="569"/>
      <point x="568" y="569" type="curve"/>
      <point x="111" y="569" type="line"/>
      <point x="90" y="569"/>
      <point x="79" y="559"/>
      <point x="79" y="538" type="curve"/>
      <point x="79" y="430" type="line"/>
      <point x="79" y="410"/>
      <point x="90" y="400"/>
      <point x="111" y="400" type="curve"/>
      <point x="323" y="400" type="line"/>
      <point x="323" y="339" type="line"/>
      <point x="323" y="329"/>
      <point x="316" y="321"/>
      <point x="304" y="321" type="curve"/>
      <point x="111" y="321" type="line"/>
      <point x="90" y="321"/>
      <point x="79" y="312"/>
      <point x="79" y="292" type="curve"/>
      <point x="79" y="182" type="line"/>
      <point x="79" y="162"/>
      <point x="90" y="152"/>
      <point x="111" y="152" type="curve"/>
      <point x="351" y="152" type="line"/>
      <point x="430" y="152"/>
      <point x="480" y="203"/>
      <point x="480" y="281" type="curve"/>
    </contour>
  </outline>
</glyph>
<glyph name="five.sups" format="1">
  <advance width="670"/>
  <unicode hex="2075"/>
  <outline>
    <contour>
      <point x="598" y="410" type="line"/>
      <point x="598" y="502"/>
      <point x="548" y="560"/>
      <point x="469" y="560" type="curve"/>
      <point x="389" y="560" type="line"/>
      <point x="306" y="560"/>
      <point x="265" y="508"/>
      <point x="265" y="425" type="curve"/>
      <point x="265" y="340" type="line"/>
      <point x="224" y="340" type="line"/>
      <point x="224" y="505" type="line"/>
      <point x="224" y="527"/>
      <point x="215" y="535"/>
      <point x="194" y="535" type="curve"/>
      <point x="111" y="535" type="line"/>
      <point x="90" y="535"/>
      <point x="80" y="527"/>
      <point x="80" y="505" type="curve"/>
      <point x="80" y="201" type="line"/>
      <point x="80" y="180"/>
      <point x="90" y="171"/>
      <point x="111" y="171" type="curve"/>
      <point x="378" y="171" type="line"/>
      <point x="398" y="171"/>
      <point x="408" y="180"/>
      <point x="408" y="201" type="curve"/>
      <point x="408" y="375" type="line"/>
      <point x="408" y="384"/>
      <point x="411" y="391"/>
      <point x="419" y="391" type="curve"/>
      <point x="443" y="391" type="line"/>
      <point x="452" y="391"/>
      <point x="455" y="384"/>
      <point x="455" y="375" type="curve"/>
      <point x="455" y="194" type="line"/>
      <point x="455" y="174"/>
      <point x="465" y="164"/>
      <point x="485" y="164" type="curve"/>
      <point x="568" y="164" type="line"/>
      <point x="588" y="164"/>
      <point x="598" y="174"/>
      <point x="598" y="194" type="curve"/>
    </contour>
  </outline>
</glyph>
<glyph name="six.sups" format="1">
  <advance width="649"/>
  <unicode hex="2076"/>
  <outline>
    <contour>
      <point x="245" y="317" type="line"/>
      <point x="217" y="317"/>
      <point x="207" y="324"/>
      <point x="207" y="357" type="curve"/>
      <point x="207" y="489" type="line"/>
      <point x="207" y="510"/>
      <point x="199" y="519"/>
      <point x="178" y="519" type="curve"/>
      <point x="93" y="519" type="line"/>
      <point x="72" y="519"/>
      <point x="62" y="511"/>
      <point x="62" y="489" type="curve"/>
      <point x="62" y="327" type="line"/>
      <point x="62" y="190"/>
      <point x="122" y="149"/>
      <point x="211" y="149" type="curve"/>
      <point x="443" y="149" type="line"/>
      <point x="532" y="149"/>
      <point x="592" y="188"/>
      <point x="592" y="359" type="curve" smooth="yes"/>
      <point x="592" y="530"/>
      <point x="532" y="573"/>
      <point x="443" y="573" type="curve"/>
      <point x="379" y="573" type="line"/>
      <point x="299" y="573"/>
      <point x="244" y="540"/>
      <point x="244" y="402" type="curve" smooth="yes"/>
      <point x="244" y="366"/>
      <point x="248" y="339"/>
      <point x="256" y="317" type="curve"/>
    </contour>
    <contour>
      <point x="390" y="317" type="line"/>
      <point x="378" y="317"/>
      <point x="370" y="322"/>
      <point x="370" y="360" type="curve" smooth="yes"/>
      <point x="370" y="399"/>
      <point x="378" y="404"/>
      <point x="390" y="404" type="curve"/>
      <point x="432" y="404" type="line"/>
      <point x="444" y="404"/>
      <point x="454" y="399"/>
      <point x="454" y="360" type="curve" smooth="yes"/>
      <point x="454" y="322"/>
      <point x="444" y="317"/>
      <point x="432" y="317" type="curve"/>
    </contour>
  </outline>
</glyph>
<glyph name="seven.sups" format="1">
  <advance width="655"/>
  <unicode hex="2077"/>
  <outline>
    <contour>
      <point x="80" y="526" type="curve"/>
      <point x="80" y="198" type="line"/>
      <point x="80" y="178"/>
      <point x="90" y="168"/>
      <point x="111" y="168" type="curve"/>
      <point x="196" y="168" type="line"/>
      <point x="217" y="168"/>
      <point x="225" y="178"/>
      <point x="225" y="198" type="curve"/>
      <point x="225" y="387" type="line"/>
      <point x="281" y="387" type="line"/>
      <point x="296" y="334" type="line"/>
      <point x="316" y="268"/>
      <point x="343" y="220"/>
      <point x="440" y="220" type="curve"/>
      <point x="568" y="220" type="line"/>
      <point x="588" y="220"/>
      <point x="598" y="230"/>
      <point x="598" y="250" type="curve"/>
      <point x="598" y="364" type="line"/>
      <point x="598" y="384"/>
      <point x="588" y="394"/>
      <point x="568" y="394" type="curve"/>
      <point x="447" y="394" type="line"/>
      <point x="434" y="443" type="line"/>
      <point x="411" y="509"/>
      <point x="387" y="556"/>
      <point x="289" y="556" type="curve"/>
      <point x="111" y="556" type="line"/>
      <point x="90" y="556"/>
      <point x="80" y="546"/>
    </contour>
  </outline>
</glyph>
<glyph name="eight.sups" format="1">
  <advance width="652"/>
  <unicode hex="2078"/>
  <outline>
    <contour>
      <point x="441" y="302" type="curve"/>
      <point x="404" y="302" type="line"/>
      <point x="392" y="302"/>
      <point x="382" y="313"/>
      <point x="382" y="361" type="curve" smooth="yes"/>
      <point x="382" y="408"/>
      <point x="392" y="417"/>
      <point x="404" y="417" type="curve"/>
      <point x="441" y="417" type="line"/>
      <point x="453" y="417"/>
      <point x="463" y="408"/>
      <point x="463" y="361" type="curve" smooth="yes"/>
      <point x="463" y="313"/>
      <point x="453" y="302"/>
    </contour>
    <contour>
      <point x="399" y="582" type="line"/>
      <point x="335" y="582"/>
      <point x="301" y="556"/>
      <point x="289" y="516" type="curve"/>
      <point x="274" y="542"/>
      <point x="247" y="550"/>
      <point x="214" y="550" type="curve"/>
      <point x="172" y="550" type="line"/>
      <point x="101" y="550"/>
      <point x="57" y="513"/>
      <point x="57" y="361" type="curve" smooth="yes"/>
      <point x="57" y="210"/>
      <point x="101" y="171"/>
      <point x="172" y="171" type="curve"/>
      <point x="214" y="171" type="line"/>
      <point x="247" y="171"/>
      <point x="274" y="180"/>
      <point x="289" y="205" type="curve"/>
      <point x="301" y="167"/>
      <point x="336" y="138"/>
      <point x="399" y="138" type="curve"/>
      <point x="454" y="138" type="line"/>
      <point x="539" y="138"/>
      <point x="595" y="181"/>
      <point x="595" y="361" type="curve" smooth="yes"/>
      <point x="595" y="541"/>
      <point x="539" y="582"/>
      <point x="454" y="582" type="curve"/>
    </contour>
    <contour>
      <point x="242" y="320" type="curve"/>
      <point x="210" y="320" type="line"/>
      <point x="199" y="320"/>
      <point x="189" y="325"/>
      <point x="189" y="361" type="curve" smooth="yes"/>
      <point x="189" y="396"/>
      <point x="199" y="399"/>
      <point x="210" y="399" type="curve"/>
      <point x="242" y="399" type="line"/>
      <point x="253" y="399"/>
      <point x="263" y="396"/>
      <point x="263" y="361" type="curve" smooth="yes"/>
      <point x="263" y="325"/>
      <point x="253" y="320"/>
    </contour>
  </outline>
</glyph>
<glyph name="nine.sups" format="1">
  <advance width="649"/>
  <unicode hex="2079"/>
  <outline>
    <contour>
      <point x="442" y="364" type="curve"/>
      <point x="442" y="230" type="line"/>
      <point x="442" y="210"/>
      <point x="450" y="202"/>
      <point x="471" y="202" type="curve"/>
      <point x="557" y="202" type="line"/>
      <point x="577" y="202"/>
      <point x="587" y="210"/>
      <point x="587" y="230" type="curve"/>
      <point x="587" y="394" type="line"/>
      <point x="587" y="531"/>
      <point x="526" y="572"/>
      <point x="437" y="572" type="curve"/>
      <point x="206" y="572" type="line"/>
      <point x="117" y="572"/>
      <point x="57" y="533"/>
      <point x="57" y="361" type="curve" smooth="yes"/>
      <point x="57" y="190"/>
      <point x="117" y="148"/>
      <point x="206" y="148" type="curve"/>
      <point x="270" y="148" type="line"/>
      <point x="350" y="148"/>
      <point x="405" y="181"/>
      <point x="405" y="319" type="curve" smooth="yes"/>
      <point x="405" y="354"/>
      <point x="400" y="382"/>
      <point x="393" y="403" type="curve"/>
      <point x="404" y="403" type="line"/>
      <point x="432" y="403"/>
      <point x="442" y="397"/>
    </contour>
    <contour>
      <point x="259" y="403" type="line"/>
      <point x="271" y="403"/>
      <point x="280" y="398"/>
      <point x="280" y="361" type="curve" smooth="yes"/>
      <point x="280" y="322"/>
      <point x="271" y="316"/>
      <point x="259" y="316" type="curve"/>
      <point x="217" y="316" type="line"/>
      <point x="205" y="316"/>
      <point x="196" y="322"/>
      <point x="196" y="361" type="curve" smooth="yes"/>
      <point x="196" y="398"/>
      <point x="205" y="403"/>
      <point x="217" y="403" type="curve"/>
    </contour>
  </outline>
</glyph>
<glyph name="uni2117" format="1">
  <advance width="1026"/>
  <unicode hex="2117"/>
  <outline>
    <contour>
      <point x="764" y="297" type="line" smooth="yes"/>
      <point x="764" y="315"/>
      <point x="756" y="323"/>
      <point x="738" y="323" type="curve" smooth="yes"/>
      <point x="619" y="323" type="line"/>
      <point x="619" y="405" type="line" smooth="yes"/>
      <point x="619" y="536"/>
      <point x="562" y="574"/>
      <point x="479" y="574" type="curve" smooth="yes"/>
      <point x="387" y="574" type="line" smooth="yes"/>
      <point x="304" y="574"/>
      <point x="247" y="536"/>
      <point x="247" y="405" type="curve" smooth="yes"/>
      <point x="247" y="186" type="line" smooth="yes"/>
      <point x="247" y="168"/>
      <point x="255" y="160"/>
      <point x="273" y="160" type="curve" smooth="yes"/>
      <point x="738" y="160" type="line" smooth="yes"/>
      <point x="756" y="160"/>
      <point x="764" y="168"/>
      <point x="764" y="186" type="curve" smooth="yes"/>
    </contour>
    <contour>
      <point x="381" y="321" type="line"/>
      <point x="381" y="386" type="line" smooth="yes"/>
      <point x="381" y="414"/>
      <point x="398" y="420"/>
      <point x="416" y="420" type="curve" smooth="yes"/>
      <point x="454" y="420" type="line" smooth="yes"/>
      <point x="473" y="420"/>
      <point x="490" y="414"/>
      <point x="490" y="386" type="curve" smooth="yes"/>
      <point x="490" y="321" type="line"/>
    </contour>
    <contour>
      <point x="720" y="734" type="curve" smooth="yes"/>
      <point x="310" y="734" type="line" smooth="yes"/>
      <point x="163" y="734"/>
      <point x="62" y="662"/>
      <point x="62" y="361" type="curve" smooth="yes"/>
      <point x="62" y="61"/>
      <point x="163" y="-14"/>
      <point x="310" y="-14" type="curve" smooth="yes"/>
      <point x="720" y="-14" type="line" smooth="yes"/>
      <point x="866" y="-14"/>
      <point x="965" y="61"/>
      <point x="965" y="361" type="curve" smooth="yes"/>
      <point x="965" y="662"/>
      <point x="866" y="734"/>
    </contour>
    <contour>
      <point x="724" y="634" type="line"/>
      <point x="810" y="634"/>
      <point x="869" y="581"/>
      <point x="869" y="361" type="curve" smooth="yes"/>
      <point x="869" y="141"/>
      <point x="810" y="87"/>
      <point x="724" y="87" type="curve"/>
      <point x="306" y="87" type="line"/>
      <point x="219" y="87"/>
      <point x="159" y="141"/>
      <point x="159" y="361" type="curve" smooth="yes"/>
      <point x="159" y="581"/>
      <point x="219" y="634"/>
      <point x="306" y="634" type="curve"/>
    </contour>
  </outline>
</glyph>
<glyph name="trademark" format="1">
  <advance width="593"/>
  <unicode hex="2122"/>
  <outline>
    <contour>
      <point x="513" y="152" type="line"/>
      <point x="513" y="170"/>
      <point x="504" y="179"/>
      <point x="487" y="179" type="curve"/>
      <point x="203" y="179" type="line"/>
      <point x="203" y="260" type="line"/>
      <point x="203" y="278"/>
      <point x="194" y="287"/>
      <point x="177" y="287" type="curve"/>
      <point x="106" y="287" type="line"/>
      <point x="88" y="287"/>
      <point x="80" y="278"/>
      <point x="80" y="260" type="curve"/>
      <point x="80" y="-50" type="line"/>
      <point x="80" y="-69"/>
      <point x="88" y="-76"/>
      <point x="106" y="-76" type="curve"/>
      <point x="177" y="-76" type="line"/>
      <point x="194" y="-76"/>
      <point x="203" y="-69"/>
      <point x="203" y="-50" type="curve"/>
      <point x="203" y="32" type="line"/>
      <point x="487" y="32" type="line"/>
      <point x="504" y="32"/>
      <point x="513" y="39"/>
      <point x="513" y="57" type="curve"/>
    </contour>
    <contour>
      <point x="513" y="449" type="line"/>
      <point x="513" y="466"/>
      <point x="504" y="475"/>
      <point x="487" y="475" type="curve"/>
      <point x="304" y="474" type="line"/>
      <point x="297" y="474" type="line"/>
      <point x="346" y="501" type="line"/>
      <point x="361" y="508"/>
      <point x="368" y="519"/>
      <point x="368" y="535" type="curve"/>
      <point x="368" y="554" type="line"/>
      <point x="368" y="570"/>
      <point x="361" y="581"/>
      <point x="346" y="589" type="curve"/>
      <point x="297" y="615" type="line"/>
      <point x="487" y="615" type="line"/>
      <point x="504" y="615"/>
      <point x="513" y="622"/>
      <point x="513" y="641" type="curve"/>
      <point x="513" y="736" type="line"/>
      <point x="513" y="753"/>
      <point x="504" y="762"/>
      <point x="487" y="762" type="curve"/>
      <point x="106" y="762" type="line"/>
      <point x="88" y="762"/>
      <point x="80" y="753"/>
      <point x="80" y="736" type="curve"/>
      <point x="80" y="641" type="line"/>
      <point x="80" y="626"/>
      <point x="86" y="617"/>
      <point x="100" y="609" type="curve" smooth="yes"/>
      <point x="130" y="594"/>
      <point x="166" y="573"/>
      <point x="196" y="557" type="curve" smooth="yes"/>
      <point x="199" y="555"/>
      <point x="203" y="552"/>
      <point x="203" y="551" type="curve"/>
      <point x="203" y="546" type="line"/>
      <point x="203" y="543"/>
      <point x="201" y="542"/>
      <point x="196" y="539" type="curve" smooth="yes"/>
      <point x="166" y="521"/>
      <point x="131" y="503"/>
      <point x="100" y="486" type="curve" smooth="yes"/>
      <point x="87" y="478"/>
      <point x="80" y="469"/>
      <point x="80" y="454" type="curve"/>
      <point x="80" y="360" type="line"/>
      <point x="80" y="343"/>
      <point x="88" y="334"/>
      <point x="106" y="334" type="curve"/>
      <point x="487" y="334" type="line"/>
      <point x="504" y="334"/>
      <point x="513" y="343"/>
      <point x="513" y="360" type="curve"/>
    </contour>
  </outline>
</glyph>
<glyph name="partialdiff" format="1">
  <advance width="861"/>
  <unicode hex="2202"/>
  <outline>
    <contour>
      <point x="525" y="423" type="line"/>
      <point x="505" y="423"/>
      <point x="489" y="414"/>
      <point x="489" y="356" type="curve" smooth="yes"/>
      <point x="489" y="296"/>
      <point x="505" y="287"/>
      <point x="525" y="287" type="curve" smooth="yes"/>
      <point x="584" y="287" type="line" smooth="yes"/>
      <point x="605" y="287"/>
      <point x="621" y="296"/>
      <point x="621" y="356" type="curve" smooth="yes"/>
      <point x="621" y="414"/>
      <point x="605" y="423"/>
      <point x="584" y="423" type="curve"/>
    </contour>
    <contour>
      <point x="455" y="423" type="line"/>
      <point x="320" y="423" type="line" smooth="yes"/>
      <point x="274" y="423"/>
      <point x="260" y="412"/>
      <point x="260" y="360" type="curve" smooth="yes"/>
      <point x="260" y="172" type="line" smooth="yes"/>
      <point x="260" y="147"/>
      <point x="249" y="136"/>
      <point x="224" y="136" type="curve" smooth="yes"/>
      <point x="103" y="136" type="line" smooth="yes"/>
      <point x="78" y="136"/>
      <point x="67" y="146"/>
      <point x="67" y="172" type="curve" smooth="yes"/>
      <point x="67" y="403" type="line" smooth="yes"/>
      <point x="67" y="592"/>
      <point x="154" y="649"/>
      <point x="282" y="649" type="curve" smooth="yes"/>
      <point x="600" y="649" type="line" smooth="yes"/>
      <point x="722" y="649"/>
      <point x="804" y="595"/>
      <point x="804" y="357" type="curve" smooth="yes"/>
      <point x="804" y="119"/>
      <point x="722" y="61"/>
      <point x="600" y="61" type="curve" smooth="yes"/>
      <point x="509" y="61" type="line" smooth="yes"/>
      <point x="399" y="61"/>
      <point x="324" y="106"/>
      <point x="324" y="296" type="curve" smooth="yes"/>
      <point x="324" y="470"/>
      <point x="391" y="508"/>
      <point x="489" y="508" type="curve"/>
    </contour>
  </outline>
</glyph>
<glyph name="product" format="1">
  <advance width="867"/>
  <unicode hex="220F"/>
  <outline>
    <contour>
      <point x="800" y="634" type="line" smooth="yes"/>
      <point x="800" y="659"/>
      <point x="789" y="670"/>
      <point x="764" y="670" type="curve" smooth="yes"/>
      <point x="116" y="670" type="line" smooth="yes"/>
      <point x="91" y="670"/>
      <point x="80" y="659"/>
      <point x="80" y="634" type="curve" smooth="yes"/>
      <point x="80" y="85" type="line" smooth="yes"/>
      <point x="80" y="60"/>
      <point x="91" y="49"/>
      <point x="116" y="49" type="curve" smooth="yes"/>
      <point x="764" y="49" type="line" smooth="yes"/>
      <point x="789" y="49"/>
      <point x="800" y="60"/>
      <point x="800" y="85" type="curve" smooth="yes"/>
      <point x="800" y="240" type="line" smooth="yes"/>
      <point x="800" y="265"/>
      <point x="789" y="276"/>
      <point x="764" y="276" type="curve" smooth="yes"/>
      <point x="271" y="276" type="line"/>
      <point x="271" y="443" type="line"/>
      <point x="764" y="443" type="line" smooth="yes"/>
      <point x="789" y="443"/>
      <point x="800" y="454"/>
      <point x="800" y="479" type="curve" smooth="yes"/>
    </contour>
  </outline>
</glyph>
<glyph name="summation" format="1">
  <advance width="970"/>
  <unicode hex="2211"/>
  <outline>
    <contour>
      <point x="273" y="371" type="line"/>
      <point x="273" y="585" type="line" smooth="yes"/>
      <point x="273" y="610"/>
      <point x="262" y="621"/>
      <point x="237" y="621" type="curve" smooth="yes"/>
      <point x="116" y="621" type="line" smooth="yes"/>
      <point x="91" y="621"/>
      <point x="80" y="610"/>
      <point x="80" y="585" type="curve" smooth="yes"/>
      <point x="80" y="135" type="line" smooth="yes"/>
      <point x="80" y="110"/>
      <point x="91" y="99"/>
      <point x="116" y="99" type="curve" smooth="yes"/>
      <point x="270" y="99" type="line" smooth="yes"/>
      <point x="297" y="99"/>
      <point x="314" y="106"/>
      <point x="333" y="124" type="curve" smooth="yes"/>
      <point x="484" y="289" type="line"/>
      <point x="663" y="106" type="line" smooth="yes"/>
      <point x="682" y="88"/>
      <point x="699" y="81"/>
      <point x="725" y="81" type="curve" smooth="yes"/>
      <point x="854" y="81" type="line" smooth="yes"/>
      <point x="879" y="81"/>
      <point x="890" y="92"/>
      <point x="890" y="117" type="curve" smooth="yes"/>
      <point x="890" y="603" type="line" smooth="yes"/>
      <point x="890" y="628"/>
      <point x="879" y="639"/>
      <point x="854" y="639" type="curve" smooth="yes"/>
      <point x="735" y="639" type="line" smooth="yes"/>
      <point x="710" y="639"/>
      <point x="699" y="628"/>
      <point x="699" y="603" type="curve" smooth="yes"/>
      <point x="699" y="354" type="line"/>
      <point x="546" y="509" type="line" smooth="yes"/>
      <point x="531" y="523"/>
      <point x="522" y="526"/>
      <point x="500" y="526" type="curve" smooth="yes"/>
      <point x="448" y="526" type="line" smooth="yes"/>
      <point x="427" y="526"/>
      <point x="418" y="524"/>
      <point x="403" y="509" type="curve" smooth="yes"/>
    </contour>
  </outline>
</glyph>
<glyph name="notequal" format="1">
  <advance width="784.0"/>
  <unicode hex="2260"/>
  <outline>
    <contour>
      <point x="335.0" y="99" type="curve"/>
      <point x="335.0" y="621" type="line" smooth="yes"/>
      <point x="335.0" y="646"/>
      <point x="325.0" y="657"/>
      <point x="299.0" y="657" type="curve" smooth="yes"/>
      <point x="185.0" y="657" type="line" smooth="yes"/>
      <point x="159.0" y="657"/>
      <point x="149.0" y="646"/>
      <point x="149.0" y="621" type="curve" smooth="yes"/>
      <point x="149.0" y="99" type="line" smooth="yes"/>
      <point x="149.0" y="74"/>
      <point x="160.0" y="63"/>
      <point x="185.0" y="63" type="curve" smooth="yes"/>
      <point x="299.0" y="63" type="line" smooth="yes"/>
      <point x="325.0" y="63"/>
      <point x="335.0" y="74"/>
    </contour>
    <contour>
      <point x="635.0" y="99" type="curve"/>
      <point x="635.0" y="621" type="line" smooth="yes"/>
      <point x="635.0" y="646"/>
      <point x="625.0" y="657"/>
      <point x="599.0" y="657" type="curve" smooth="yes"/>
      <point x="485.0" y="657" type="line" smooth="yes"/>
      <point x="459.0" y="657"/>
      <point x="449.0" y="646"/>
      <point x="449.0" y="621" type="curve" smooth="yes"/>
      <point x="449.0" y="99" type="line" smooth="yes"/>
      <point x="449.0" y="74"/>
      <point x="460.0" y="63"/>
      <point x="485.0" y="63" type="curve" smooth="yes"/>
      <point x="599.0" y="63" type="line" smooth="yes"/>
      <point x="625.0" y="63"/>
      <point x="635.0" y="74"/>
    </contour>
    <contour>
      <point x="686.0" y="212" type="line"/>
      <point x="711.0" y="209"/>
      <point x="722.0" y="223"/>
      <point x="722.0" y="248" type="curve" smooth="yes"/>
      <point x="722.0" y="373" type="line" smooth="yes"/>
      <point x="722.0" y="398"/>
      <point x="711.0" y="406"/>
      <point x="686.0" y="409" type="curve" smooth="yes"/>
      <point x="98.0" y="509" type="line" smooth="yes"/>
      <point x="73.0" y="513"/>
      <point x="62.0" y="498"/>
      <point x="62.0" y="473" type="curve" smooth="yes"/>
      <point x="62.0" y="348" type="line" smooth="yes"/>
      <point x="62.0" y="323"/>
      <point x="73.0" y="316"/>
      <point x="98.0" y="312" type="curve" smooth="yes"/>
    </contour>
  </outline>
</glyph>
<glyph name="lessequal" format="1">
  <advance width="851.0"/>
  <unicode hex="2264"/>
  <outline>
    <contour>
      <point x="771.0" y="123" type="curve"/>
      <point x="771.0" y="595" type="line" smooth="yes"/>
      <point x="771.0" y="620"/>
      <point x="761.0" y="631"/>
      <point x="735.0" y="631" type="curve" smooth="yes"/>
      <point x="585.0" y="631" type="line"/>
      <point x="585.0" y="123" type="line" smooth="yes"/>
      <point x="585.0" y="98"/>
      <point x="596.0" y="87"/>
      <point x="621.0" y="87" type="curve" smooth="yes"/>
      <point x="735.0" y="87" type="line" smooth="yes"/>
      <point x="761.0" y="87"/>
      <point x="771.0" y="98"/>
    </contour>
    <component base="less"/>
  </outline>
</glyph>
<glyph name="greaterequal" format="1">
  <advance width="861.0"/>
  <unicode hex="2265"/>
  <outline>
    <contour>
      <point x="781.0" y="129.0" type="curve"/>
      <point x="781.0" y="601.0" type="line" smooth="yes"/>
      <point x="781.0" y="626.0"/>
      <point x="771.0" y="637.0"/>
      <point x="745.0" y="637.0" type="curve" smooth="yes"/>
      <point x="631.0" y="637.0" type="line" smooth="yes"/>
      <point x="605.0" y="637.0"/>
      <point x="595.0" y="626.0"/>
      <point x="595.0" y="601.0" type="curve" smooth="yes"/>
      <point x="595.0" y="93.0" type="line"/>
      <point x="745.0" y="93.0" type="line" smooth="yes"/>
      <point x="771.0" y="93.0"/>
      <point x="781.0" y="104.0"/>
    </contour>
    <component base="greater" xOffset="-1.42108547152e-14" yOffset="6"/>
  </outline>
</glyph>
<glyph name="lozenge" format="1">
  <advance width="853.0"/>
  <unicode hex="25CA"/>
  <outline>
    <contour>
      <point x="67.0" y="244" type="line" smooth="yes"/>
      <point x="67.0" y="218"/>
      <point x="76.0" y="204"/>
      <point x="100.0" y="193" type="curve" smooth="yes"/>
      <point x="357.0" y="77" type="line"/>
      <point x="384.0" y="65"/>
      <point x="394.0" y="63"/>
      <point x="415.0" y="63" type="curve" smooth="yes"/>
      <point x="438.0" y="63" type="line" smooth="yes"/>
      <point x="459.0" y="63"/>
      <point x="469.0" y="65"/>
      <point x="496.0" y="77" type="curve"/>
      <point x="753.0" y="193" type="line" smooth="yes"/>
      <point x="777.0" y="204"/>
      <point x="786.0" y="217"/>
      <point x="786.0" y="243" type="curve" smooth="yes"/>
      <point x="786.0" y="474" type="line" smooth="yes"/>
      <point x="786.0" y="500"/>
      <point x="777.0" y="514"/>
      <point x="753.0" y="525" type="curve" smooth="yes"/>
      <point x="496.0" y="641" type="line" smooth="yes"/>
      <point x="469.0" y="653"/>
      <point x="459.0" y="655"/>
      <point x="438.0" y="655" type="curve" smooth="yes"/>
      <point x="415.0" y="655" type="line" smooth="yes"/>
      <point x="394.0" y="655"/>
      <point x="384.0" y="653"/>
      <point x="357.0" y="641" type="curve" smooth="yes"/>
      <point x="100.0" y="525" type="line" smooth="yes"/>
      <point x="76.0" y="514"/>
      <point x="67.0" y="501"/>
      <point x="67.0" y="475" type="curve" smooth="yes"/>
    </contour>
    <contour>
      <point x="427.0" y="439" type="line"/>
      <point x="566.0" y="381" type="line" smooth="yes"/>
      <point x="579.0" y="375"/>
      <point x="583.0" y="373"/>
      <point x="583.0" y="361" type="curve" smooth="yes"/>
      <point x="583.0" y="356" type="line" smooth="yes"/>
      <point x="583.0" y="344"/>
      <point x="579.0" y="342"/>
      <point x="566.0" y="336" type="curve" smooth="yes"/>
      <point x="425.0" y="278" type="line"/>
      <point x="287.0" y="336" type="line" smooth="yes"/>
      <point x="274.0" y="342"/>
      <point x="270.0" y="344"/>
      <point x="270.0" y="356" type="curve" smooth="yes"/>
      <point x="270.0" y="361" type="line" smooth="yes"/>
      <point x="270.0" y="373"/>
      <point x="274.0" y="375"/>
      <point x="287.0" y="381" type="curve" smooth="yes"/>
    </contour>
  </outline>
</glyph>
<glyph name="A.s" format="1">
  <advance width="809.0"/>
  <outline>
    <contour>
      <point x="62.0" y="226.0" type="line" smooth="yes"/>
      <point x="62.0" y="200.0"/>
      <point x="70.0" y="184.0"/>
      <point x="95.0" y="175.0" type="curve" smooth="yes"/>
      <point x="302.0" y="98" type="line" smooth="yes"/>
      <point x="378.0" y="69"/>
      <point x="393.0" y="59"/>
      <point x="462.0" y="59" type="curve" smooth="yes"/>
      <point x="706.0" y="59" type="line" smooth="yes"/>
      <point x="731.0" y="59"/>
      <point x="742.0" y="69"/>
      <point x="742.0" y="95" type="curve" smooth="yes"/>
      <point x="742.0" y="242" type="line" smooth="yes"/>
      <point x="742.0" y="267"/>
      <point x="731.0" y="278"/>
      <point x="706.0" y="278" type="curve" smooth="yes"/>
      <point x="451.0" y="278" type="line" smooth="yes"/>
      <point x="437.0" y="278"/>
      <point x="425.0" y="280"/>
      <point x="410.0" y="286" type="curve"/>
      <point x="272.0" y="335.0" type="line"/>
      <point x="259.0" y="341.0"/>
      <point x="255.0" y="343.0"/>
      <point x="255.0" y="354.0" type="curve" smooth="yes"/>
      <point x="255.0" y="359.0" type="line" smooth="yes"/>
      <point x="255.0" y="370.0"/>
      <point x="259.0" y="372.0"/>
      <point x="272.0" y="378.0" type="curve"/>
      <point x="409.0" y="427" type="line"/>
      <point x="424.0" y="433"/>
      <point x="436.0" y="435"/>
      <point x="450.0" y="435" type="curve" smooth="yes"/>
      <point x="706.0" y="435" type="line" smooth="yes"/>
      <point x="731.0" y="435"/>
      <point x="742.0" y="449"/>
      <point x="742.0" y="474" type="curve" smooth="yes"/>
      <point x="742.0" y="625" type="line" smooth="yes"/>
      <point x="742.0" y="650"/>
      <point x="731.0" y="661"/>
      <point x="706.0" y="661" type="curve" smooth="yes"/>
      <point x="462.0" y="661" type="line" smooth="yes"/>
      <point x="393.0" y="661"/>
      <point x="378.0" y="651"/>
      <point x="302.0" y="622" type="curve" smooth="yes"/>
      <point x="95.0" y="535.0" type="line" smooth="yes"/>
      <point x="70.0" y="526.0"/>
      <point x="62.0" y="511.0"/>
      <point x="62.0" y="485.0" type="curve" smooth="yes"/>
    </contour>
    <contour>
      <point x="586.0" y="476" type="line"/>
      <point x="404.0" y="476" type="line"/>
      <point x="404.0" y="237" type="line"/>
      <point x="586.0" y="237" type="line"/>
    </contour>
  </outline>
</glyph>
<glyph name="A.salt_s" format="1">
  <advance width="819.0"/>
  <outline>
    <contour>
      <point x="752" y="242" type="line" smooth="yes"/>
      <point x="752" y="267"/>
      <point x="741" y="278"/>
      <point x="716" y="278" type="curve" smooth="yes"/>
      <point x="295" y="278" type="line" smooth="yes"/>
      <point x="268" y="278"/>
      <point x="248.0" y="287.0"/>
      <point x="248.0" y="358.0" type="curve" smooth="yes"/>
      <point x="248.0" y="428.0"/>
      <point x="268" y="437"/>
      <point x="295" y="437" type="curve"/>
      <point x="716" y="437" type="line" smooth="yes"/>
      <point x="741" y="437"/>
      <point x="752" y="448"/>
      <point x="752" y="473" type="curve" smooth="yes"/>
      <point x="752" y="625" type="line" smooth="yes"/>
      <point x="752" y="650"/>
      <point x="741" y="661"/>
      <point x="716" y="661" type="curve" smooth="yes"/>
      <point x="261" y="661" type="line" smooth="yes"/>
      <point x="140" y="661"/>
      <point x="57.0" y="608.0"/>
      <point x="57.0" y="359.0" type="curve" smooth="yes"/>
      <point x="57.0" y="111.0"/>
      <point x="140" y="59"/>
      <point x="261" y="59" type="curve" smooth="yes"/>
      <point x="716" y="59" type="line"/>
      <point x="741" y="59"/>
      <point x="752" y="70"/>
      <point x="752" y="95" type="curve" smooth="yes"/>
    </contour>
    <contour>
      <point x="587" y="455" type="line"/>
      <point x="404" y="455" type="line"/>
      <point x="404" y="247" type="line"/>
      <point x="587" y="247" type="line"/>
    </contour>
  </outline>
</glyph>
<glyph name="A.salt" format="1">
  <advance width="859.0"/>
  <outline>
    <contour>
      <point x="792" y="243" type="line" smooth="yes"/>
      <point x="792" y="268"/>
      <point x="781" y="279"/>
      <point x="756" y="279" type="curve" smooth="yes"/>
      <point x="295" y="279" type="line" smooth="yes"/>
      <point x="268" y="279"/>
      <point x="248.0" y="287"/>
      <point x="248.0" y="358" type="curve" smooth="yes"/>
      <point x="248.0" y="428"/>
      <point x="268" y="436"/>
      <point x="295" y="436" type="curve"/>
      <point x="756" y="436" type="line" smooth="yes"/>
      <point x="781" y="436"/>
      <point x="792" y="447"/>
      <point x="792" y="472" type="curve" smooth="yes"/>
      <point x="792" y="624" type="line" smooth="yes"/>
      <point x="792" y="649"/>
      <point x="781" y="660"/>
      <point x="756" y="660" type="curve" smooth="yes"/>
      <point x="261" y="660" type="line" smooth="yes"/>
      <point x="140" y="660"/>
      <point x="57.0" y="608"/>
      <point x="57.0" y="359" type="curve" smooth="yes"/>
      <point x="57.0" y="111"/>
      <point x="140" y="60"/>
      <point x="261" y="60" type="curve" smooth="yes"/>
      <point x="756" y="60" type="line"/>
      <point x="781" y="60"/>
      <point x="792" y="71"/>
      <point x="792" y="96" type="curve" smooth="yes"/>
    </contour>
    <contour>
      <point x="607" y="454" type="line"/>
      <point x="424" y="454" type="line"/>
      <point x="424" y="248" type="line"/>
      <point x="607" y="248" type="line"/>
    </contour>
  </outline>
</glyph>
<glyph name="Aring.salt" format="1">
  <advance width="1011.0"/>
  <outline>
    <contour>
      <point x="944" y="243" type="line" smooth="yes"/>
      <point x="944" y="268"/>
      <point x="933" y="279"/>
      <point x="908" y="279" type="curve" smooth="yes"/>
      <point x="487" y="279" type="line" smooth="yes"/>
      <point x="460" y="279"/>
      <point x="440.0" y="287"/>
      <point x="440.0" y="358" type="curve" smooth="yes"/>
      <point x="440.0" y="428"/>
      <point x="460" y="436"/>
      <point x="487" y="436" type="curve" smooth="yes"/>
      <point x="908" y="436" type="line" smooth="yes"/>
      <point x="933" y="436"/>
      <point x="944" y="447"/>
      <point x="944" y="472" type="curve" smooth="yes"/>
      <point x="944" y="624" type="line" smooth="yes"/>
      <point x="944" y="649"/>
      <point x="933" y="660"/>
      <point x="908" y="660" type="curve" smooth="yes"/>
      <point x="453" y="660" type="line" smooth="yes"/>
      <point x="351" y="660"/>
      <point x="276.0" y="625"/>
      <point x="255.0" y="463" type="curve"/>
      <point x="321.0" y="358" type="line"/>
      <point x="259.0" y="232" type="line"/>
      <point x="284.0" y="91"/>
      <point x="356" y="60"/>
      <point x="453" y="60" type="curve" smooth="yes"/>
      <point x="908" y="60" type="line" smooth="yes"/>
      <point x="933" y="60"/>
      <point x="944" y="71"/>
      <point x="944" y="96" type="curve" smooth="yes"/>
    </contour>
    <contour>
      <point x="779" y="454" type="line"/>
      <point x="596" y="454" type="line"/>
      <point x="596" y="248" type="line"/>
      <point x="779" y="248" type="line"/>
    </contour>
    <contour>
      <point x="155.0" y="574" type="line" smooth="yes"/>
      <point x="70.0" y="574"/>
      <point x="12.0" y="531"/>
      <point x="12.0" y="357" type="curve" smooth="yes"/>
      <point x="12.0" y="183"/>
      <point x="70.0" y="140"/>
      <point x="155.0" y="140" type="curve" smooth="yes"/>
      <point x="213.0" y="140" type="line" smooth="yes"/>
      <point x="298.0" y="140"/>
      <point x="356.0" y="183"/>
      <point x="356.0" y="357" type="curve" smooth="yes"/>
      <point x="356.0" y="531"/>
      <point x="298.0" y="574"/>
      <point x="213.0" y="574" type="curve" smooth="yes"/>
    </contour>
    <contour>
      <point x="220.0" y="417" type="line" smooth="yes"/>
      <point x="249.0" y="417"/>
      <point x="263.0" y="408"/>
      <point x="263.0" y="358" type="curve" smooth="yes"/>
      <point x="263.0" y="309"/>
      <point x="249.0" y="301"/>
      <point x="220.0" y="301" type="curve" smooth="yes"/>
      <point x="185.0" y="301" type="line" smooth="yes"/>
      <point x="159.0" y="301"/>
      <point x="145.0" y="309"/>
      <point x="145.0" y="358" type="curve" smooth="yes"/>
      <point x="145.0" y="408"/>
      <point x="159.0" y="417"/>
      <point x="185.0" y="417" type="curve" smooth="yes"/>
    </contour>
  </outline>
</glyph>
<glyph name="E.s" format="1">
  <advance width="840"/>
  <outline>
    <contour>
      <point x="760" y="614" type="line" smooth="yes"/>
      <point x="760" y="639"/>
      <point x="749" y="650"/>
      <point x="724" y="650" type="curve" smooth="yes"/>
      <point x="607" y="650" type="line" smooth="yes"/>
      <point x="582" y="650"/>
      <point x="571" y="639"/>
      <point x="571" y="614" type="curve" smooth="yes"/>
      <point x="571" y="287" type="line"/>
      <point x="495" y="287" type="line"/>
      <point x="495" y="533" type="line" smooth="yes"/>
      <point x="495" y="558"/>
      <point x="484" y="569"/>
      <point x="459" y="569" type="curve" smooth="yes"/>
      <point x="372" y="569" type="line" smooth="yes"/>
      <point x="346" y="569"/>
      <point x="336" y="558"/>
      <point x="336" y="533" type="curve" smooth="yes"/>
      <point x="336" y="287" type="line"/>
      <point x="269" y="287" type="line"/>
      <point x="269" y="614" type="line" smooth="yes"/>
      <point x="269" y="639"/>
      <point x="258" y="650"/>
      <point x="233" y="650" type="curve" smooth="yes"/>
      <point x="116" y="650" type="line" smooth="yes"/>
      <point x="91" y="650"/>
      <point x="80" y="639"/>
      <point x="80" y="614" type="curve" smooth="yes"/>
      <point x="80" y="96" type="line" smooth="yes"/>
      <point x="80" y="71"/>
      <point x="91" y="60"/>
      <point x="116" y="60" type="curve" smooth="yes"/>
      <point x="724" y="60" type="line" smooth="yes"/>
      <point x="749" y="60"/>
      <point x="760" y="71"/>
      <point x="760" y="96" type="curve" smooth="yes"/>
    </contour>
  </outline>
</glyph>
<glyph name="E.salt_s_v" format="1">
  <advance width="824"/>
  <outline>
    <contour>
      <point x="752" y="303" type="curve"/>
      <point x="752" y="615" type="line" smooth="yes"/>
      <point x="752" y="640"/>
      <point x="741" y="651"/>
      <point x="716" y="651" type="curve" smooth="yes"/>
      <point x="603" y="651" type="line" smooth="yes"/>
      <point x="578" y="651"/>
      <point x="567" y="640"/>
      <point x="567" y="615" type="curve" smooth="yes"/>
      <point x="567" y="342" type="line"/>
      <point x="567" y="290"/>
      <point x="547" y="281"/>
      <point x="519" y="281" type="curve" smooth="yes"/>
      <point x="307" y="281" type="line" smooth="yes"/>
      <point x="281" y="281"/>
      <point x="257" y="290"/>
      <point x="257" y="342" type="curve"/>
      <point x="257" y="615" type="line" smooth="yes"/>
      <point x="257" y="640"/>
      <point x="246" y="651"/>
      <point x="221" y="651" type="curve" smooth="yes"/>
      <point x="108" y="651" type="line" smooth="yes"/>
      <point x="83" y="651"/>
      <point x="72" y="640"/>
      <point x="72" y="615" type="curve" smooth="yes"/>
      <point x="72" y="303" type="line"/>
      <point x="72" y="114"/>
      <point x="155" y="57"/>
      <point x="277" y="57" type="curve" smooth="yes"/>
      <point x="548" y="57" type="line" smooth="yes"/>
      <point x="669" y="57"/>
      <point x="752" y="114"/>
    </contour>
    <contour>
      <point x="491" y="255" type="line"/>
      <point x="491" y="534" type="line" smooth="yes"/>
      <point x="491" y="559"/>
      <point x="480" y="570"/>
      <point x="455" y="570" type="curve" smooth="yes"/>
      <point x="360" y="570" type="line" smooth="yes"/>
      <point x="334" y="570"/>
      <point x="324" y="559"/>
      <point x="324" y="534" type="curve" smooth="yes"/>
      <point x="324" y="255" type="line"/>
    </contour>
  </outline>
</glyph>
<glyph name="E.salt_v" format="1">
  <advance width="864"/>
  <outline>
    <contour>
      <point x="72" y="302" type="line"/>
      <point x="72" y="113"/>
      <point x="155" y="56"/>
      <point x="277" y="56" type="curve" smooth="yes"/>
      <point x="588" y="56" type="line" smooth="yes"/>
      <point x="709" y="56"/>
      <point x="792" y="113"/>
      <point x="792" y="302" type="curve"/>
      <point x="792" y="615" type="line" smooth="yes"/>
      <point x="792" y="640"/>
      <point x="781" y="651"/>
      <point x="756" y="651" type="curve" smooth="yes"/>
      <point x="639" y="651" type="line" smooth="yes"/>
      <point x="614" y="651"/>
      <point x="603" y="640"/>
      <point x="603" y="615" type="curve" smooth="yes"/>
      <point x="603" y="342" type="line"/>
      <point x="603" y="290"/>
      <point x="583" y="281"/>
      <point x="555" y="281" type="curve" smooth="yes"/>
      <point x="311" y="281" type="line" smooth="yes"/>
      <point x="285" y="281"/>
      <point x="261" y="290"/>
      <point x="261" y="342" type="curve"/>
      <point x="261" y="615" type="line" smooth="yes"/>
      <point x="261" y="640"/>
      <point x="250" y="651"/>
      <point x="225" y="651" type="curve" smooth="yes"/>
      <point x="108" y="651" type="line" smooth="yes"/>
      <point x="83" y="651"/>
      <point x="72" y="640"/>
      <point x="72" y="615" type="curve" smooth="yes"/>
    </contour>
    <contour>
      <point x="517" y="255" type="line"/>
      <point x="517" y="534" type="line" smooth="yes"/>
      <point x="517" y="559"/>
      <point x="506" y="570"/>
      <point x="481" y="570" type="curve" smooth="yes"/>
      <point x="374" y="570" type="line" smooth="yes"/>
      <point x="348" y="570"/>
      <point x="338" y="559"/>
      <point x="338" y="534" type="curve" smooth="yes"/>
      <point x="338" y="255" type="line"/>
    </contour>
  </outline>
</glyph>
<glyph name="H.s" format="1">
  <advance width="814.0"/>
  <outline>
    <contour>
      <point x="747" y="251" type="line" smooth="yes"/>
      <point x="747" y="276"/>
      <point x="736" y="287"/>
      <point x="711" y="287" type="curve" smooth="yes"/>
      <point x="509" y="287" type="line"/>
      <point x="509" y="433" type="line"/>
      <point x="711" y="433" type="line" smooth="yes"/>
      <point x="736" y="433"/>
      <point x="747" y="444"/>
      <point x="747" y="469" type="curve" smooth="yes"/>
      <point x="747" y="624" type="line" smooth="yes"/>
      <point x="747" y="649"/>
      <point x="736" y="660"/>
      <point x="711" y="660" type="curve" smooth="yes"/>
      <point x="103" y="660" type="line" smooth="yes"/>
      <point x="78" y="660"/>
      <point x="67" y="649"/>
      <point x="67" y="624" type="curve" smooth="yes"/>
      <point x="67" y="469" type="line" smooth="yes"/>
      <point x="67" y="444"/>
      <point x="78" y="433"/>
      <point x="103" y="433" type="curve" smooth="yes"/>
      <point x="300" y="433" type="line"/>
      <point x="300" y="287" type="line"/>
      <point x="103" y="287" type="line" smooth="yes"/>
      <point x="78" y="287"/>
      <point x="67" y="276"/>
      <point x="67" y="251" type="curve" smooth="yes"/>
      <point x="67" y="96" type="line" smooth="yes"/>
      <point x="67" y="71"/>
      <point x="78" y="60"/>
      <point x="103" y="60" type="curve" smooth="yes"/>
      <point x="711" y="60" type="line" smooth="yes"/>
      <point x="736" y="60"/>
      <point x="747" y="71"/>
      <point x="747" y="96" type="curve" smooth="yes"/>
    </contour>
  </outline>
</glyph>
<glyph name="I.salt_s" format="1">
  <advance width="790.0"/>
  <outline>
    <contour>
      <point x="735.0" y="439" type="line" smooth="yes"/>
      <point x="735.0" y="464"/>
      <point x="724.0" y="475"/>
      <point x="699.0" y="475" type="curve" smooth="yes"/>
      <point x="91.0" y="475.0" type="line" smooth="yes"/>
      <point x="66.0" y="475.0"/>
      <point x="55.0" y="464.0"/>
      <point x="55.0" y="439.0" type="curve" smooth="yes"/>
      <point x="55.0" y="280.0" type="line" smooth="yes"/>
      <point x="55.0" y="255.0"/>
      <point x="66.0" y="244.0"/>
      <point x="91.0" y="244.0" type="curve"/>
      <point x="699.0" y="244" type="line"/>
      <point x="724.0" y="244"/>
      <point x="735.0" y="255"/>
      <point x="735.0" y="280" type="curve" smooth="yes"/>
    </contour>
  </outline>
</glyph>
<glyph name="I.salt" format="1">
  <advance width="830"/>
  <outline>
    <contour>
      <point x="775" y="439" type="line" smooth="yes"/>
      <point x="775" y="464"/>
      <point x="764" y="475"/>
      <point x="739" y="475" type="curve" smooth="yes"/>
      <point x="91" y="475" type="line" smooth="yes"/>
      <point x="66" y="475"/>
      <point x="55" y="464"/>
      <point x="55" y="439" type="curve" smooth="yes"/>
      <point x="55" y="280" type="line" smooth="yes"/>
      <point x="55" y="255"/>
      <point x="66" y="244"/>
      <point x="91" y="244" type="curve"/>
      <point x="739" y="244" type="line"/>
      <point x="764" y="244"/>
      <point x="775" y="255"/>
      <point x="775" y="280" type="curve" smooth="yes"/>
    </contour>
  </outline>
</glyph>
<glyph name="L.s" format="1">
  <advance width="815"/>
  <outline>
    <contour>
      <point x="735" y="624" type="line" smooth="yes"/>
      <point x="735" y="649"/>
      <point x="724" y="660"/>
      <point x="699" y="660" type="curve" smooth="yes"/>
      <point x="394" y="660" type="line" smooth="yes"/>
      <point x="369" y="660"/>
      <point x="358" y="649"/>
      <point x="358" y="624" type="curve" smooth="yes"/>
      <point x="358" y="479" type="line" smooth="yes"/>
      <point x="358" y="454"/>
      <point x="369" y="443"/>
      <point x="394" y="443" type="curve" smooth="yes"/>
      <point x="546" y="443" type="line"/>
      <point x="546" y="287" type="line"/>
      <point x="91" y="287" type="line" smooth="yes"/>
      <point x="66" y="287"/>
      <point x="55" y="276"/>
      <point x="55" y="251" type="curve" smooth="yes"/>
      <point x="55" y="96" type="line" smooth="yes"/>
      <point x="55" y="71"/>
      <point x="66" y="60"/>
      <point x="91" y="60" type="curve" smooth="yes"/>
      <point x="699" y="60" type="line" smooth="yes"/>
      <point x="724" y="60"/>
      <point x="735" y="71"/>
      <point x="735" y="96" type="curve" smooth="yes"/>
    </contour>
  </outline>
</glyph>
<glyph name="M.salt" format="1">
  <advance width="882"/>
  <outline>
    <contour>
      <point x="271" y="11" type="curve"/>
      <point x="766" y="11" type="line" smooth="yes"/>
      <point x="791" y="11"/>
      <point x="802" y="22"/>
      <point x="802" y="47" type="curve" smooth="yes"/>
      <point x="802" y="164" type="line" smooth="yes"/>
      <point x="802" y="190"/>
      <point x="791" y="200"/>
      <point x="766" y="200" type="curve" smooth="yes"/>
      <point x="303" y="200" type="line" smooth="yes"/>
      <point x="276" y="200"/>
      <point x="263" y="207"/>
      <point x="263" y="233" type="curve" smooth="yes"/>
      <point x="263" y="259"/>
      <point x="276" y="265"/>
      <point x="303" y="265" type="curve" smooth="yes"/>
      <point x="766" y="265" type="line" smooth="yes"/>
      <point x="791" y="265"/>
      <point x="802" y="276"/>
      <point x="802" y="301" type="curve"/>
      <point x="802" y="399" type="line"/>
      <point x="271" y="399" type="line" smooth="yes"/>
      <point x="149" y="399"/>
      <point x="67" y="371"/>
      <point x="67" y="210" type="curve" smooth="yes"/>
      <point x="67" y="59"/>
      <point x="149" y="11"/>
    </contour>
    <contour>
      <point x="271" y="708" type="line"/>
      <point x="149" y="708"/>
      <point x="67" y="660"/>
      <point x="67" y="509" type="curve" smooth="yes"/>
      <point x="67" y="348"/>
      <point x="149" y="320"/>
      <point x="271" y="320" type="curve"/>
      <point x="802" y="320" type="line" smooth="yes"/>
      <point x="802" y="418" type="line" smooth="yes"/>
      <point x="802" y="443"/>
      <point x="791" y="454"/>
      <point x="766" y="454" type="curve" smooth="yes"/>
      <point x="303" y="454" type="line" smooth="yes"/>
      <point x="276" y="454"/>
      <point x="263" y="460"/>
      <point x="263" y="486" type="curve" smooth="yes"/>
      <point x="263" y="512"/>
      <point x="276" y="519"/>
      <point x="303" y="519" type="curve" smooth="yes"/>
      <point x="766" y="519" type="line" smooth="yes"/>
      <point x="791" y="519"/>
      <point x="802" y="529"/>
      <point x="802" y="555" type="curve" smooth="yes"/>
      <point x="802" y="672" type="line" smooth="yes"/>
      <point x="802" y="697"/>
      <point x="791" y="708"/>
      <point x="766" y="708" type="curve" smooth="yes"/>
    </contour>
  </outline>
</glyph>
<glyph name="N.salt" format="1">
  <advance width="859.0"/>
  <outline>
    <contour>
      <point x="261" y="60" type="curve" smooth="yes"/>
      <point x="756" y="60" type="line" smooth="yes"/>
      <point x="781" y="60"/>
      <point x="792" y="71"/>
      <point x="792" y="96" type="curve" smooth="yes"/>
      <point x="792" y="248" type="line" smooth="yes"/>
      <point x="792" y="274"/>
      <point x="781" y="284"/>
      <point x="756" y="284" type="curve" smooth="yes"/>
      <point x="300" y="284" type="line" smooth="yes"/>
      <point x="273" y="284"/>
      <point x="253" y="296"/>
      <point x="253.0" y="358.0" type="curve" smooth="yes"/>
      <point x="253" y="419"/>
      <point x="273" y="431"/>
      <point x="300" y="431" type="curve" smooth="yes"/>
      <point x="756" y="431" type="line" smooth="yes"/>
      <point x="781" y="431"/>
      <point x="792" y="442"/>
      <point x="792" y="467" type="curve" smooth="yes"/>
      <point x="792" y="624" type="line" smooth="yes"/>
      <point x="792" y="649"/>
      <point x="781" y="660"/>
      <point x="756" y="660" type="curve"/>
      <point x="261" y="660" type="line" smooth="yes"/>
      <point x="139" y="660"/>
      <point x="57.0" y="608.0"/>
      <point x="57.0" y="360.0" type="curve" smooth="yes"/>
      <point x="57" y="112"/>
      <point x="139" y="60"/>
    </contour>
  </outline>
</glyph>
<glyph name="O.s" format="1">
  <advance width="824.0"/>
  <outline>
    <contour>
      <point x="563" y="664" type="curve" smooth="yes"/>
      <point x="262" y="664" type="line" smooth="yes"/>
      <point x="140" y="664"/>
      <point x="57" y="605"/>
      <point x="57" y="360" type="curve" smooth="yes"/>
      <point x="57" y="115"/>
      <point x="140" y="56"/>
      <point x="262" y="56" type="curve" smooth="yes"/>
      <point x="563" y="56" type="line" smooth="yes"/>
      <point x="685" y="56"/>
      <point x="767" y="115"/>
      <point x="767" y="360" type="curve" smooth="yes"/>
      <point x="767" y="605"/>
      <point x="685" y="664"/>
    </contour>
    <contour>
      <point x="527" y="283" type="curve" smooth="yes"/>
      <point x="298" y="283" type="line" smooth="yes"/>
      <point x="272" y="283"/>
      <point x="252" y="294"/>
      <point x="252" y="360" type="curve" smooth="yes"/>
      <point x="252" y="427"/>
      <point x="272" y="438"/>
      <point x="298" y="438" type="curve" smooth="yes"/>
      <point x="527" y="438" type="line" smooth="yes"/>
      <point x="554" y="438"/>
      <point x="574" y="427"/>
      <point x="574" y="360" type="curve" smooth="yes"/>
      <point x="574" y="294"/>
      <point x="554" y="283"/>
    </contour>
  </outline>
</glyph>
<glyph name="R.s" format="1">
  <advance width="819.0"/>
  <outline>
    <contour>
      <point x="752.0" y="250" type="line" smooth="yes"/>
      <point x="752.0" y="275"/>
      <point x="741.0" y="286"/>
      <point x="716.0" y="286" type="curve" smooth="yes"/>
      <point x="543.0" y="286" type="line"/>
      <point x="543.0" y="395" type="line" smooth="yes"/>
      <point x="543.0" y="423"/>
      <point x="556.0" y="433"/>
      <point x="586.0" y="433" type="curve" smooth="yes"/>
      <point x="716.0" y="433" type="line" smooth="yes"/>
      <point x="741.0" y="433"/>
      <point x="752.0" y="444"/>
      <point x="752.0" y="469" type="curve" smooth="yes"/>
      <point x="752.0" y="624" type="line" smooth="yes"/>
      <point x="752.0" y="649"/>
      <point x="741.0" y="660"/>
      <point x="716.0" y="660" type="curve" smooth="yes"/>
      <point x="534.0" y="660" type="line" smooth="yes"/>
      <point x="450.0" y="660"/>
      <point x="397.0" y="620"/>
      <point x="389.0" y="559" type="curve"/>
      <point x="371.0" y="601"/>
      <point x="331.0" y="615"/>
      <point x="275.0" y="615" type="curve" smooth="yes"/>
      <point x="239.0" y="615.0" type="line" smooth="yes"/>
      <point x="140.0" y="615.0"/>
      <point x="72.0" y="568.0"/>
      <point x="72.0" y="418.0" type="curve" smooth="yes"/>
      <point x="72.0" y="96.0" type="line" smooth="yes"/>
      <point x="72.0" y="71.0"/>
      <point x="83.0" y="60.0"/>
      <point x="108.0" y="60.0" type="curve" smooth="yes"/>
      <point x="716.0" y="60" type="line" smooth="yes"/>
      <point x="741.0" y="60"/>
      <point x="752.0" y="71"/>
      <point x="752.0" y="96" type="curve" smooth="yes"/>
    </contour>
    <contour>
      <point x="252.0" y="286.0" type="line"/>
      <point x="252.0" y="350.0" type="line" smooth="yes"/>
      <point x="252.0" y="385.0"/>
      <point x="272.0" y="394.0"/>
      <point x="299.0" y="394.0" type="curve" smooth="yes"/>
      <point x="323.0" y="394" type="line" smooth="yes"/>
      <point x="350.0" y="394"/>
      <point x="370.0" y="385"/>
      <point x="370.0" y="350" type="curve" smooth="yes"/>
      <point x="370.0" y="286" type="line"/>
    </contour>
  </outline>
</glyph>
<glyph name="W.s" format="1">
  <advance width="814.0"/>
  <outline>
    <contour>
      <point x="67" y="513" type="line" smooth="yes"/>
      <point x="67" y="488"/>
      <point x="78" y="482"/>
      <point x="103" y="482" type="curve" smooth="yes"/>
      <point x="375" y="479" type="line"/>
      <point x="406" y="479" type="line"/>
      <point x="288" y="439" type="line"/>
      <point x="266" y="426"/>
      <point x="257" y="412"/>
      <point x="257" y="386" type="curve" smooth="yes"/>
      <point x="257" y="355" type="line" smooth="yes"/>
      <point x="257" y="329"/>
      <point x="266" y="315"/>
      <point x="288" y="302" type="curve"/>
      <point x="406" y="262" type="line"/>
      <point x="375" y="262" type="line"/>
      <point x="103" y="258" type="line" smooth="yes"/>
      <point x="78" y="258"/>
      <point x="67" y="247"/>
      <point x="67" y="222" type="curve" smooth="yes"/>
      <point x="67.0" y="74.0" type="line" smooth="yes"/>
      <point x="67.0" y="49.0"/>
      <point x="78.0" y="38.0"/>
      <point x="103.0" y="38.0" type="curve" smooth="yes"/>
      <point x="429" y="42" type="line"/>
      <point x="491" y="42"/>
      <point x="505" y="42"/>
      <point x="573" y="60" type="curve" smooth="yes"/>
      <point x="711" y="96" type="line" smooth="yes"/>
      <point x="735" y="102"/>
      <point x="747" y="117"/>
      <point x="747" y="142" type="curve" smooth="yes"/>
      <point x="747" y="250" type="line" smooth="yes"/>
      <point x="747" y="281"/>
      <point x="737" y="294"/>
      <point x="717" y="300" type="curve" smooth="yes"/>
      <point x="541" y="353" type="line"/>
      <point x="541" y="377" type="line"/>
      <point x="717" y="430" type="line" smooth="yes"/>
      <point x="738" y="436"/>
      <point x="747" y="449"/>
      <point x="747" y="480" type="curve" smooth="yes"/>
      <point x="747" y="580" type="line" smooth="yes"/>
      <point x="747" y="605"/>
      <point x="735" y="618"/>
      <point x="711" y="624" type="curve" smooth="yes"/>
      <point x="575" y="660" type="line" smooth="yes"/>
      <point x="507" y="678"/>
      <point x="492" y="678"/>
      <point x="431" y="678" type="curve"/>
      <point x="103.0" y="682.0" type="line" smooth="yes"/>
      <point x="78.0" y="682.0"/>
      <point x="67.0" y="672.0"/>
      <point x="67.0" y="646.0" type="curve" smooth="yes"/>
    </contour>
  </outline>
</glyph>
<glyph name="W.salt_s" format="1">
  <advance width="842.0"/>
  <outline>
    <contour>
      <point x="571.0" y="11" type="line"/>
      <point x="693.0" y="11"/>
      <point x="775.0" y="59"/>
      <point x="775.0" y="210" type="curve" smooth="yes"/>
      <point x="775.0" y="371"/>
      <point x="693.0" y="399"/>
      <point x="571.0" y="399" type="curve" smooth="yes"/>
      <point x="80.0" y="399.0" type="line"/>
      <point x="80.0" y="301.0" type="line"/>
      <point x="80.0" y="276.0"/>
      <point x="91.0" y="265.0"/>
      <point x="116.0" y="265.0" type="curve" smooth="yes"/>
      <point x="539.0" y="265" type="line" smooth="yes"/>
      <point x="566.0" y="265"/>
      <point x="579.0" y="259"/>
      <point x="579.0" y="233" type="curve" smooth="yes"/>
      <point x="579.0" y="207"/>
      <point x="566.0" y="200"/>
      <point x="539.0" y="200" type="curve" smooth="yes"/>
      <point x="116.0" y="200.0" type="line" smooth="yes"/>
      <point x="91.0" y="200.0"/>
      <point x="80.0" y="190.0"/>
      <point x="80.0" y="164.0" type="curve" smooth="yes"/>
      <point x="80.0" y="47.0" type="line" smooth="yes"/>
      <point x="80.0" y="22.0"/>
      <point x="91.0" y="11.0"/>
      <point x="116.0" y="11.0" type="curve" smooth="yes"/>
    </contour>
    <contour>
      <point x="571.0" y="708" type="curve"/>
      <point x="116.0" y="708.0" type="line" smooth="yes"/>
      <point x="91.0" y="708.0"/>
      <point x="80.0" y="697.0"/>
      <point x="80.0" y="672.0" type="curve" smooth="yes"/>
      <point x="80.0" y="555.0" type="line" smooth="yes"/>
      <point x="80.0" y="529.0"/>
      <point x="91.0" y="519.0"/>
      <point x="116.0" y="519.0" type="curve" smooth="yes"/>
      <point x="539.0" y="519" type="line" smooth="yes"/>
      <point x="566.0" y="519"/>
      <point x="579.0" y="512"/>
      <point x="579.0" y="486" type="curve" smooth="yes"/>
      <point x="579.0" y="460"/>
      <point x="566.0" y="454"/>
      <point x="539.0" y="454" type="curve" smooth="yes"/>
      <point x="116.0" y="454.0" type="line" smooth="yes"/>
      <point x="91.0" y="454.0"/>
      <point x="80.0" y="443.0"/>
      <point x="80.0" y="418.0" type="curve" smooth="yes"/>
      <point x="80.0" y="320.0" type="line" smooth="yes"/>
      <point x="571.0" y="320" type="line"/>
      <point x="693.0" y="320"/>
      <point x="775.0" y="348"/>
      <point x="775.0" y="509" type="curve" smooth="yes"/>
      <point x="775.0" y="660"/>
      <point x="693.0" y="708"/>
    </contour>
  </outline>
</glyph>
<glyph name="W.salt" format="1">
  <advance width="882"/>
  <outline>
    <contour>
      <point x="611" y="708" type="curve"/>
      <point x="116" y="708" type="line" smooth="yes"/>
      <point x="91" y="708"/>
      <point x="80" y="697"/>
      <point x="80" y="672" type="curve" smooth="yes"/>
      <point x="80" y="555" type="line" smooth="yes"/>
      <point x="80" y="529"/>
      <point x="91" y="519"/>
      <point x="116" y="519" type="curve" smooth="yes"/>
      <point x="579" y="519" type="line" smooth="yes"/>
      <point x="606" y="519"/>
      <point x="619" y="512"/>
      <point x="619" y="486" type="curve" smooth="yes"/>
      <point x="619" y="460"/>
      <point x="606" y="454"/>
      <point x="579" y="454" type="curve" smooth="yes"/>
      <point x="116" y="454" type="line" smooth="yes"/>
      <point x="91" y="454"/>
      <point x="80" y="443"/>
      <point x="80" y="418" type="curve" smooth="yes"/>
      <point x="80" y="320" type="line" smooth="yes"/>
      <point x="611" y="320" type="line"/>
      <point x="733" y="320"/>
      <point x="815" y="348"/>
      <point x="815" y="509" type="curve" smooth="yes"/>
      <point x="815" y="660"/>
      <point x="733" y="708"/>
    </contour>
    <contour>
      <point x="611" y="11" type="line"/>
      <point x="733" y="11"/>
      <point x="815" y="59"/>
      <point x="815" y="210" type="curve" smooth="yes"/>
      <point x="815" y="371"/>
      <point x="733" y="399"/>
      <point x="611" y="399" type="curve" smooth="yes"/>
      <point x="80" y="399" type="line"/>
      <point x="80" y="301" type="line"/>
      <point x="80" y="276"/>
      <point x="91" y="265"/>
      <point x="116" y="265" type="curve" smooth="yes"/>
      <point x="579" y="265" type="line" smooth="yes"/>
      <point x="606" y="265"/>
      <point x="619" y="259"/>
      <point x="619" y="233" type="curve" smooth="yes"/>
      <point x="619" y="207"/>
      <point x="606" y="200"/>
      <point x="579" y="200" type="curve" smooth="yes"/>
      <point x="116" y="200" type="line" smooth="yes"/>
      <point x="91" y="200"/>
      <point x="80" y="190"/>
      <point x="80" y="164" type="curve" smooth="yes"/>
      <point x="80" y="47" type="line" smooth="yes"/>
      <point x="80" y="22"/>
      <point x="91" y="11"/>
      <point x="116" y="11" type="curve" smooth="yes"/>
    </contour>
  </outline>
</glyph>
<glyph name="Y.s" format="1">
  <advance width="802"/>
  <outline>
    <contour>
      <point x="614" y="462" type="line"/>
      <point x="388" y="623" type="line" smooth="yes"/>
      <point x="347" y="653"/>
      <point x="317" y="661"/>
      <point x="265" y="661" type="curve" smooth="yes"/>
      <point x="103" y="661" type="line" smooth="yes"/>
      <point x="78" y="661"/>
      <point x="67" y="650"/>
      <point x="67" y="625" type="curve" smooth="yes"/>
      <point x="67" y="476" type="line" smooth="yes"/>
      <point x="67" y="451"/>
      <point x="78" y="440"/>
      <point x="103" y="440" type="curve" smooth="yes"/>
      <point x="237" y="440" type="line" smooth="yes"/>
      <point x="251" y="440"/>
      <point x="265" y="440"/>
      <point x="279" y="431" type="curve"/>
      <point x="351" y="391" type="line" smooth="yes"/>
      <point x="363" y="384"/>
      <point x="368" y="378"/>
      <point x="368" y="367" type="curve" smooth="yes"/>
      <point x="368" y="357" type="line" smooth="yes"/>
      <point x="368" y="346"/>
      <point x="363" y="340"/>
      <point x="351" y="333" type="curve" smooth="yes"/>
      <point x="279" y="294" type="line"/>
      <point x="265" y="285"/>
      <point x="251" y="285"/>
      <point x="237" y="285" type="curve" smooth="yes"/>
      <point x="103" y="285" type="line" smooth="yes"/>
      <point x="78" y="285"/>
      <point x="67" y="274"/>
      <point x="67" y="249" type="curve" smooth="yes"/>
      <point x="67" y="95" type="line" smooth="yes"/>
      <point x="67" y="70"/>
      <point x="78" y="59"/>
      <point x="103" y="59" type="curve" smooth="yes"/>
      <point x="265" y="59" type="line" smooth="yes"/>
      <point x="317" y="59"/>
      <point x="347" y="66"/>
      <point x="388" y="97" type="curve" smooth="yes"/>
      <point x="614" y="259" type="line"/>
    </contour>
    <contour>
      <point x="747" y="441" type="line" smooth="yes"/>
      <point x="747" y="466"/>
      <point x="736" y="477"/>
      <point x="711" y="477" type="curve" smooth="yes"/>
      <point x="533" y="477" type="line"/>
      <point x="533" y="243" type="line"/>
      <point x="711" y="243" type="line" smooth="yes"/>
      <point x="736" y="243"/>
      <point x="747" y="253"/>
      <point x="747" y="279" type="curve" smooth="yes"/>
    </contour>
  </outline>
</glyph>
